solid OpenSCAD_Model
  facet normal -1 0 0
    outer loop
      vertex 10 197 66
      vertex 10 191.35 71.65
      vertex 10 191.35 71.66000000000001
    endloop
  endfacet
  facet normal -1 0 0
    outer loop
      vertex 10 197 66
      vertex 10 191.35 71.66000000000001
      vertex 10 208.65 71.65
    endloop
  endfacet
  facet normal -1 0 0
    outer loop
      vertex 10 197 66
      vertex 10 208.65 71.65
      vertex 10 203 66
    endloop
  endfacet
  facet normal -1 0 0
    outer loop
      vertex 10 191.35 71.66000000000001
      vertex 10 208.65 71.66000000000001
      vertex 10 208.65 71.65
    endloop
  endfacet
  facet normal 0 -0.7071067811865476 -0.7071067811865476
    outer loop
      vertex 10 197 66
      vertex 70 191.35 71.65
      vertex 10 191.35 71.65
    endloop
  endfacet
  facet normal 0 0.7071067811865476 -0.7071067811865476
    outer loop
      vertex 10 203 66
      vertex 10 208.65 71.65
      vertex 70 203 66
    endloop
  endfacet
  facet normal 0 -0.7071067811865476 -0.7071067811865476
    outer loop
      vertex 10 197 66
      vertex 70 197 66
      vertex 70 191.35 71.65
    endloop
  endfacet
  facet normal 0 0.7071067811865476 -0.7071067811865476
    outer loop
      vertex 10 208.65 71.65
      vertex 70 208.65 71.65
      vertex 70 203 66
    endloop
  endfacet
  facet normal 1 0 0
    outer loop
      vertex 70 191.35 71.65
      vertex 70 191.35998233215548 71.65
      vertex 70 191.35 71.66000000000001
    endloop
  endfacet
  facet normal 1 0 0
    outer loop
      vertex 70 197 66
      vertex 70 191.35998233215548 71.65
      vertex 70 191.35 71.65
    endloop
  endfacet
  facet normal 1 0 0
    outer loop
      vertex 70 197 66
      vertex 70 203 66
      vertex 70 191.35998233215548 71.65
    endloop
  endfacet
  facet normal 1 0 0
    outer loop
      vertex 70 191.35998233215548 71.65
      vertex 70 203 66
      vertex 70 208.65 71.65
    endloop
  endfacet
  facet normal -1 0 0
    outer loop
      vertex 10 -3 66
      vertex 10 -8.65 71.65
      vertex 10 -8.65 71.66000000000001
    endloop
  endfacet
  facet normal -1 0 0
    outer loop
      vertex 10 -3 66
      vertex 10 -8.65 71.66000000000001
      vertex 10 8.65 71.65
    endloop
  endfacet
  facet normal -1 0 0
    outer loop
      vertex 10 -3 66
      vertex 10 8.65 71.65
      vertex 10 3 66
    endloop
  endfacet
  facet normal -1 0 0
    outer loop
      vertex 10 -8.65 71.66000000000001
      vertex 10 8.65 71.66000000000001
      vertex 10 8.65 71.65
    endloop
  endfacet
  facet normal 0 -0.7071067811865479 -0.7071067811865471
    outer loop
      vertex 10 -3 66
      vertex 70 -8.65 71.65
      vertex 10 -8.65 71.65
    endloop
  endfacet
  facet normal 0 0.7071067811865479 -0.7071067811865471
    outer loop
      vertex 10 3 66
      vertex 10 8.65 71.65
      vertex 70 3 66
    endloop
  endfacet
  facet normal 0 -0.7071067811865479 -0.7071067811865471
    outer loop
      vertex 10 -3 66
      vertex 70 -3 66
      vertex 70 -8.65 71.65
    endloop
  endfacet
  facet normal 0 0.7071067811865479 -0.7071067811865471
    outer loop
      vertex 10 8.65 71.65
      vertex 70 8.65 71.65
      vertex 70 3 66
    endloop
  endfacet
  facet normal 1 0 0
    outer loop
      vertex 70 -8.65 71.65
      vertex 70 -8.640017667844518 71.65
      vertex 70 -8.65 71.66000000000001
    endloop
  endfacet
  facet normal 1 0 0
    outer loop
      vertex 70 -3 66
      vertex 70 -8.640017667844518 71.65
      vertex 70 -8.65 71.65
    endloop
  endfacet
  facet normal 1 0 0
    outer loop
      vertex 70 -3 66
      vertex 70 3 66
      vertex 70 -8.640017667844518 71.65
    endloop
  endfacet
  facet normal 1 0 0
    outer loop
      vertex 70 -8.640017667844518 71.65
      vertex 70 3 66
      vertex 70 8.65 71.65
    endloop
  endfacet
  facet normal -1 0 0
    outer loop
      vertex 10 185.3599833610649 81.65
      vertex 10 185.35 81.66000000000001
      vertex 10 185.38876871880203 81.65
    endloop
  endfacet
  facet normal -1 0 0
    outer loop
      vertex 10 185.3599833610649 81.65
      vertex 10 208.65 75.65
      vertex 10 191.35 75.65
    endloop
  endfacet
  facet normal -1 0 0
    outer loop
      vertex 10 185.35 81.65
      vertex 10 185.3599833610649 81.65
      vertex 10 191.35 75.65
    endloop
  endfacet
  facet normal -1 0 0
    outer loop
      vertex 10 185.3599833610649 81.65
      vertex 10 185.38876871880203 81.65
      vertex 10 208.65 75.65
    endloop
  endfacet
  facet normal -1 0 0
    outer loop
      vertex 10 185.38876871880203 81.65
      vertex 10 214.65 81.65
      vertex 10 208.65 75.65
    endloop
  endfacet
  facet normal 0 -1 0
    outer loop
      vertex 10 185.35 81.65
      vertex 70 185.35 81.65
      vertex 10 185.35 81.66000000000001
    endloop
  endfacet
  facet normal 0 -0.7071067811865475 -0.7071067811865475
    outer loop
      vertex 10 185.35 81.65
      vertex 10 191.35 75.65
      vertex 70 191.35 75.65
    endloop
  endfacet
  facet normal 0 0.7071067811865475 -0.7071067811865475
    outer loop
      vertex 10 208.65 75.65
      vertex 10 214.65 81.65
      vertex 70 214.65 81.65
    endloop
  endfacet
  facet normal 0 1 0
    outer loop
      vertex 10 214.65 81.65
      vertex 10 214.65 81.66000000000001
      vertex 70 214.65 81.65
    endloop
  endfacet
  facet normal 0 -1 0
    outer loop
      vertex 10 185.35 81.66000000000001
      vertex 70 185.35 81.65
      vertex 70 185.35 81.66000000000001
    endloop
  endfacet
  facet normal 0 -0.7071067811865475 -0.7071067811865475
    outer loop
      vertex 10 185.35 81.65
      vertex 70 191.35 75.65
      vertex 70 185.35 81.65
    endloop
  endfacet
  facet normal 0 0.7071067811865475 -0.7071067811865475
    outer loop
      vertex 10 208.65 75.65
      vertex 70 214.65 81.65
      vertex 70 208.65 75.65
    endloop
  endfacet
  facet normal 0 1 0
    outer loop
      vertex 10 214.65 81.66000000000001
      vertex 70 214.65 81.66000000000001
      vertex 70 214.65 81.65
    endloop
  endfacet
  facet normal 1 0 0
    outer loop
      vertex 70 185.35 81.65
      vertex 70 191.35 75.65
      vertex 70 208.65 75.65
    endloop
  endfacet
  facet normal 1 0 0
    outer loop
      vertex 70 185.35 81.65
      vertex 70 208.65 75.65
      vertex 70 214.65 81.65
    endloop
  endfacet
  facet normal -1 0 0
    outer loop
      vertex 10 -8.65 75.65
      vertex 10 -14.640016638935103 81.65
      vertex 10 8.65 75.65
    endloop
  endfacet
  facet normal -1 0 0
    outer loop
      vertex 10 -8.65 75.65
      vertex 10 -14.65 81.65
      vertex 10 -14.640016638935103 81.65
    endloop
  endfacet
  facet normal -1 0 0
    outer loop
      vertex 10 -14.640016638935103 81.65
      vertex 10 -14.65 81.66000000000001
      vertex 10 -14.611231281197984 81.65
    endloop
  endfacet
  facet normal -1 0 0
    outer loop
      vertex 10 -14.640016638935103 81.65
      vertex 10 -14.611231281197984 81.65
      vertex 10 8.65 75.65
    endloop
  endfacet
  facet normal -1 0 0
    outer loop
      vertex 10 -14.611231281197984 81.65
      vertex 10 14.65 81.65
      vertex 10 8.65 75.65
    endloop
  endfacet
  facet normal 0 -0.7071067811865475 -0.7071067811865475
    outer loop
      vertex 10 -8.65 75.65
      vertex 70 -8.65 75.65
      vertex 10 -14.65 81.65
    endloop
  endfacet
  facet normal 0 -1 0
    outer loop
      vertex 10 -14.65 81.65
      vertex 70 -14.65 81.65
      vertex 10 -14.65 81.66000000000001
    endloop
  endfacet
  facet normal 0 0.7071067811865475 -0.7071067811865475
    outer loop
      vertex 10 8.65 75.65
      vertex 10 14.65 81.65
      vertex 70 14.65 81.65
    endloop
  endfacet
  facet normal 0 1 0
    outer loop
      vertex 10 14.65 81.65
      vertex 10 14.65 81.66000000000001
      vertex 70 14.65 81.65
    endloop
  endfacet
  facet normal 0 -0.7071067811865475 -0.7071067811865475
    outer loop
      vertex 10 -14.65 81.65
      vertex 70 -8.65 75.65
      vertex 70 -14.65 81.65
    endloop
  endfacet
  facet normal 0 -1 0
    outer loop
      vertex 10 -14.65 81.66000000000001
      vertex 70 -14.65 81.65
      vertex 70 -14.65 81.66000000000001
    endloop
  endfacet
  facet normal 0 0.7071067811865475 -0.7071067811865475
    outer loop
      vertex 10 8.65 75.65
      vertex 70 14.65 81.65
      vertex 70 8.65 75.65
    endloop
  endfacet
  facet normal 0 1 0
    outer loop
      vertex 10 14.65 81.66000000000001
      vertex 70 14.65 81.66000000000001
      vertex 70 14.65 81.65
    endloop
  endfacet
  facet normal 1 0 0
    outer loop
      vertex 70 -8.65 75.65
      vertex 70 8.65 75.65
      vertex 70 -14.65 81.65
    endloop
  endfacet
  facet normal 1 0 0
    outer loop
      vertex 70 -14.65 81.65
      vertex 70 8.65 75.65
      vertex 70 14.65 81.65
    endloop
  endfacet
  facet normal -1 0 0
    outer loop
      vertex 10 191.35 71.66000000000001
      vertex 10 191.35 75.65
      vertex 10 208.65 71.66000000000001
    endloop
  endfacet
  facet normal -1 0 0
    outer loop
      vertex 10 208.65 71.66000000000001
      vertex 10 191.35 75.65
      vertex 10 208.65 75.65
    endloop
  endfacet
  facet normal 0 1 0
    outer loop
      vertex 10 208.65 71.66000000000001
      vertex 70 208.65 71.65
      vertex 10 208.65 71.65
    endloop
  endfacet
  facet normal 0 -1 0
    outer loop
      vertex 10 191.35 71.66000000000001
      vertex 10 191.35 71.65
      vertex 70 191.35 75.65
    endloop
  endfacet
  facet normal 0 -1 0
    outer loop
      vertex 10 191.35 71.66000000000001
      vertex 70 191.35 75.65
      vertex 10 191.35 75.65
    endloop
  endfacet
  facet normal 0 1 0
    outer loop
      vertex 10 208.65 71.66000000000001
      vertex 10 208.65 75.65
      vertex 70 208.65 71.65
    endloop
  endfacet
  facet normal 0 -1 0
    outer loop
      vertex 10 191.35 71.65
      vertex 70 191.35 71.65
      vertex 70 191.35 71.66000000000001
    endloop
  endfacet
  facet normal 0 -1 0
    outer loop
      vertex 10 191.35 71.65
      vertex 70 191.35 71.66000000000001
      vertex 70 191.35 75.65
    endloop
  endfacet
  facet normal 0 1 0
    outer loop
      vertex 10 208.65 75.65
      vertex 70 208.65 75.65
      vertex 70 208.65 71.65
    endloop
  endfacet
  facet normal 1 0 0
    outer loop
      vertex 70 191.35 71.66000000000001
      vertex 70 191.35998233215548 71.65
      vertex 70 208.65 71.65
    endloop
  endfacet
  facet normal 1 0 0
    outer loop
      vertex 70 191.35 71.66000000000001
      vertex 70 208.65 71.65
      vertex 70 191.35 75.65
    endloop
  endfacet
  facet normal 1 0 0
    outer loop
      vertex 70 208.65 71.65
      vertex 70 208.65 75.65
      vertex 70 191.35 75.65
    endloop
  endfacet
  facet normal -1 0 0
    outer loop
      vertex 10 -8.65 71.66000000000001
      vertex 10 -8.65 75.65
      vertex 10 8.65 71.66000000000001
    endloop
  endfacet
  facet normal -1 0 0
    outer loop
      vertex 10 8.65 71.66000000000001
      vertex 10 -8.65 75.65
      vertex 10 8.65 75.65
    endloop
  endfacet
  facet normal 0 1 0
    outer loop
      vertex 10 8.65 71.66000000000001
      vertex 70 8.65 71.65
      vertex 10 8.65 71.65
    endloop
  endfacet
  facet normal 0 -1 0
    outer loop
      vertex 10 -8.65 71.66000000000001
      vertex 10 -8.65 71.65
      vertex 70 -8.65 75.65
    endloop
  endfacet
  facet normal 0 -1 0
    outer loop
      vertex 10 -8.65 71.66000000000001
      vertex 70 -8.65 75.65
      vertex 10 -8.65 75.65
    endloop
  endfacet
  facet normal 0 1 0
    outer loop
      vertex 10 8.65 71.66000000000001
      vertex 10 8.65 75.65
      vertex 70 8.65 71.65
    endloop
  endfacet
  facet normal 0 -1 0
    outer loop
      vertex 10 -8.65 71.65
      vertex 70 -8.65 71.65
      vertex 70 -8.65 71.66000000000001
    endloop
  endfacet
  facet normal 0 -1 0
    outer loop
      vertex 10 -8.65 71.65
      vertex 70 -8.65 71.66000000000001
      vertex 70 -8.65 75.65
    endloop
  endfacet
  facet normal 0 1 0
    outer loop
      vertex 10 8.65 75.65
      vertex 70 8.65 75.65
      vertex 70 8.65 71.65
    endloop
  endfacet
  facet normal 1 0 0
    outer loop
      vertex 70 -8.65 71.66000000000001
      vertex 70 -8.640017667844518 71.65
      vertex 70 8.65 71.65
    endloop
  endfacet
  facet normal 1 0 0
    outer loop
      vertex 70 -8.65 71.66000000000001
      vertex 70 8.65 71.65
      vertex 70 -8.65 75.65
    endloop
  endfacet
  facet normal 1 0 0
    outer loop
      vertex 70 8.65 71.65
      vertex 70 8.65 75.65
      vertex 70 -8.65 75.65
    endloop
  endfacet
  facet normal -1 0 0
    outer loop
      vertex 10 185.35 81.65
      vertex 10 185.35 81.66000000000001
      vertex 10 185.3599833610649 81.65
    endloop
  endfacet
  facet normal -1 0 0
    outer loop
      vertex 10 185.38876871880203 81.65
      vertex 10 185.35 81.66000000000001
      vertex 10 214.65 82.95
    endloop
  endfacet
  facet normal -1 0 0
    outer loop
      vertex 10 185.35 81.66000000000001
      vertex 10 185.35 82.95
      vertex 10 214.65 82.95
    endloop
  endfacet
  facet normal -1 0 0
    outer loop
      vertex 10 185.38876871880203 81.65
      vertex 10 214.65 81.66000000000001
      vertex 10 214.65 81.65
    endloop
  endfacet
  facet normal -1 0 0
    outer loop
      vertex 10 185.38876871880203 81.65
      vertex 10 214.65 82.95
      vertex 10 214.65 81.66000000000001
    endloop
  endfacet
  facet normal 0 -1 0
    outer loop
      vertex 10 185.35 81.66000000000001
      vertex 70 185.35 81.66000000000001
      vertex 10 185.35 82.95
    endloop
  endfacet
  facet normal 0 0 1
    outer loop
      vertex 10 185.35 82.95
      vertex 70 185.35 82.95
      vertex 10 214.65 82.95
    endloop
  endfacet
  facet normal 0 1 0
    outer loop
      vertex 10 214.65 81.66000000000001
      vertex 10 214.65 82.95
      vertex 70 214.65 82.95
    endloop
  endfacet
  facet normal 0 -1 0
    outer loop
      vertex 10 185.35 82.95
      vertex 70 185.35 81.66000000000001
      vertex 70 185.35 82.95
    endloop
  endfacet
  facet normal 0 0 1
    outer loop
      vertex 10 214.65 82.95
      vertex 70 185.35 82.95
      vertex 70 214.65 82.95
    endloop
  endfacet
  facet normal 0 1 0
    outer loop
      vertex 10 214.65 81.66000000000001
      vertex 70 214.65 82.95
      vertex 70 214.65 81.66000000000001
    endloop
  endfacet
  facet normal 1 0 0
    outer loop
      vertex 70 185.35 81.65
      vertex 70 214.65 81.65
      vertex 70 185.35 81.66000000000001
    endloop
  endfacet
  facet normal 1 0 0
    outer loop
      vertex 70 185.35 81.66000000000001
      vertex 70 214.65 81.65
      vertex 70 185.35 82.95
    endloop
  endfacet
  facet normal 1 0 0
    outer loop
      vertex 70 185.35 82.95
      vertex 70 214.65 81.65
      vertex 70 214.65 81.66000000000001
    endloop
  endfacet
  facet normal 1 0 0
    outer loop
      vertex 70 185.35 82.95
      vertex 70 214.65 81.66000000000001
      vertex 70 214.65 82.95
    endloop
  endfacet
  facet normal -1 0 0
    outer loop
      vertex 10 -14.65 81.65
      vertex 10 -14.65 81.66000000000001
      vertex 10 -14.640016638935103 81.65
    endloop
  endfacet
  facet normal -1 0 0
    outer loop
      vertex 10 -14.611231281197984 81.65
      vertex 10 -14.65 81.66000000000001
      vertex 10 14.65 82.95
    endloop
  endfacet
  facet normal -1 0 0
    outer loop
      vertex 10 -14.65 81.66000000000001
      vertex 10 -14.65 82.95
      vertex 10 14.65 82.95
    endloop
  endfacet
  facet normal -1 0 0
    outer loop
      vertex 10 -14.611231281197984 81.65
      vertex 10 14.65 81.66000000000001
      vertex 10 14.65 81.65
    endloop
  endfacet
  facet normal -1 0 0
    outer loop
      vertex 10 -14.611231281197984 81.65
      vertex 10 14.65 82.95
      vertex 10 14.65 81.66000000000001
    endloop
  endfacet
  facet normal 0 -1 0
    outer loop
      vertex 10 -14.65 81.66000000000001
      vertex 70 -14.65 81.66000000000001
      vertex 10 -14.65 82.95
    endloop
  endfacet
  facet normal 0 0 1
    outer loop
      vertex 10 -14.65 82.95
      vertex 70 -14.65 82.95
      vertex 10 14.65 82.95
    endloop
  endfacet
  facet normal 0 1 0
    outer loop
      vertex 10 14.65 81.66000000000001
      vertex 10 14.65 82.95
      vertex 70 14.65 82.95
    endloop
  endfacet
  facet normal 0 -1 0
    outer loop
      vertex 10 -14.65 82.95
      vertex 70 -14.65 81.66000000000001
      vertex 70 -14.65 82.95
    endloop
  endfacet
  facet normal 0 0 1
    outer loop
      vertex 10 14.65 82.95
      vertex 70 -14.65 82.95
      vertex 70 14.65 82.95
    endloop
  endfacet
  facet normal 0 1 0
    outer loop
      vertex 10 14.65 81.66000000000001
      vertex 70 14.65 82.95
      vertex 70 14.65 81.66000000000001
    endloop
  endfacet
  facet normal 1 0 0
    outer loop
      vertex 70 -14.65 81.65
      vertex 70 14.65 81.65
      vertex 70 -14.65 81.66000000000001
    endloop
  endfacet
  facet normal 1 0 0
    outer loop
      vertex 70 -14.65 81.66000000000001
      vertex 70 14.65 81.65
      vertex 70 -14.65 82.95
    endloop
  endfacet
  facet normal 1 0 0
    outer loop
      vertex 70 -14.65 82.95
      vertex 70 14.65 81.65
      vertex 70 14.65 81.66000000000001
    endloop
  endfacet
  facet normal 1 0 0
    outer loop
      vertex 70 -14.65 82.95
      vertex 70 14.65 81.66000000000001
      vertex 70 14.65 82.95
    endloop
  endfacet
  facet normal 0 0 1
    outer loop
      vertex 3 3 3
      vertex 20 22 3
      vertex 3 95 3
    endloop
  endfacet
  facet normal 0 0 -1
    outer loop
      vertex 0 -3 0
      vertex 20 22 0
      vertex 29 22 0
    endloop
  endfacet
  facet normal 0 0 1
    outer loop
      vertex 3 3 3
      vertex 29 22 3
      vertex 20 22 3
    endloop
  endfacet
  facet normal 0 0 -1
    outer loop
      vertex 0 -3 0
      vertex 0 203 0
      vertex 20 22 0
    endloop
  endfacet
  facet normal 0 0 1
    outer loop
      vertex 3 95 3
      vertex 20 22 3
      vertex 20 95 3
    endloop
  endfacet
  facet normal 0 0 -1
    outer loop
      vertex 0 -3 0
      vertex 29 22 0
      vertex 42 22 0
    endloop
  endfacet
  facet normal 0 -1 0
    outer loop
      vertex 0 -3 0
      vertex 80 -3 3
      vertex 3.6363636363636367 -3 3
    endloop
  endfacet
  facet normal 0 0 1
    outer loop
      vertex 3 3 3
      vertex 42 22 3
      vertex 29 22 3
    endloop
  endfacet
  facet normal 0 0 1
    outer loop
      vertex 29 22 3
      vertex 42 22 3
      vertex 36.25 38 3
    endloop
  endfacet
  facet normal 0 0 1
    outer loop
      vertex 42 22 3
      vertex 39.75 38 3
      vertex 36.25 38 3
    endloop
  endfacet
  facet normal 0 0 1
    outer loop
      vertex 29 22 3
      vertex 36.25 38 3
      vertex 29 95 3
    endloop
  endfacet
  facet normal 0 0 1
    outer loop
      vertex 29 95 3
      vertex 36.25 38 3
      vertex 36.25 58 3
    endloop
  endfacet
  facet normal 0 0 1
    outer loop
      vertex 42 95 3
      vertex 36.25 58 3
      vertex 39.75 58 3
    endloop
  endfacet
  facet normal 0 0 -1
    outer loop
      vertex 29 22 0
      vertex 29 178 0
      vertex 42 22 0
    endloop
  endfacet
  facet normal 0 0 1
    outer loop
      vertex 29 95 3
      vertex 36.25 58 3
      vertex 42 95 3
    endloop
  endfacet
  facet normal 0 0 1
    outer loop
      vertex 3 98 3
      vertex 9 98 3
      vertex 3 197 3
    endloop
  endfacet
  facet normal 0 0 1
    outer loop
      vertex 9 98 3
      vertex 9 110.01 3
      vertex 3 197 3
    endloop
  endfacet
  facet normal 0 0 1
    outer loop
      vertex 17 98 3
      vertex 20 98 3
      vertex 17 110.01 3
    endloop
  endfacet
  facet normal 0 0 -1
    outer loop
      vertex 20 22 0
      vertex 0 203 0
      vertex 20 178 0
    endloop
  endfacet
  facet normal 0 0 1
    outer loop
      vertex 9 110.01 3
      vertex 17 110.01 3
      vertex 20 178 3
    endloop
  endfacet
  facet normal 0 0 1
    outer loop
      vertex 20 98 3
      vertex 20 178 3
      vertex 17 110.01 3
    endloop
  endfacet
  facet normal 0 0 1
    outer loop
      vertex 9 110.01 3
      vertex 20 178 3
      vertex 3 197 3
    endloop
  endfacet
  facet normal 0 0 1
    outer loop
      vertex 3 197 3
      vertex 20 178 3
      vertex 29 178 3
    endloop
  endfacet
  facet normal 0 0 -1
    outer loop
      vertex 0 203 0
      vertex 29 178 0
      vertex 20 178 0
    endloop
  endfacet
  facet normal 0 0 1
    outer loop
      vertex 29 98 3
      vertex 36 98 3
      vertex 36 110.01 3
    endloop
  endfacet
  facet normal 0 0 -1
    outer loop
      vertex 29 178 0
      vertex 42 178 0
      vertex 42 22 0
    endloop
  endfacet
  facet normal 0 0 1
    outer loop
      vertex 29 98 3
      vertex 36 110.01 3
      vertex 29 178 3
    endloop
  endfacet
  facet normal 0 0 1
    outer loop
      vertex 36 110.01 3
      vertex 42 110.01 3
      vertex 29 178 3
    endloop
  endfacet
  facet normal 0 0 1
    outer loop
      vertex 29 178 3
      vertex 42 110.01 3
      vertex 42 178 3
    endloop
  endfacet
  facet normal 0 0 1
    outer loop
      vertex 3 197 3
      vertex 29 178 3
      vertex 42 178 3
    endloop
  endfacet
  facet normal 0 0 -1
    outer loop
      vertex 0 203 0
      vertex 42 178 0
      vertex 29 178 0
    endloop
  endfacet
  facet normal 0 0 -1
    outer loop
      vertex 0 -3 0
      vertex 42 22 0
      vertex 80 -3 0
    endloop
  endfacet
  facet normal 0 0 1
    outer loop
      vertex 3 3 3
      vertex 77 3 3
      vertex 42 22 3
    endloop
  endfacet
  facet normal 0 0 -1
    outer loop
      vertex 42 22 0
      vertex 51 22 0
      vertex 80 -3 0
    endloop
  endfacet
  facet normal 0 0 1
    outer loop
      vertex 42 22 3
      vertex 77 3 3
      vertex 51 22 3
    endloop
  endfacet
  facet normal 0 0 1
    outer loop
      vertex 51 22 3
      vertex 77 3 3
      vertex 51 95 3
    endloop
  endfacet
  facet normal 0 0 1
    outer loop
      vertex 42 22 3
      vertex 42 95 3
      vertex 39.75 38 3
    endloop
  endfacet
  facet normal 0 0 1
    outer loop
      vertex 42 95 3
      vertex 39.75 58 3
      vertex 39.75 38 3
    endloop
  endfacet
  facet normal 0 0 -1
    outer loop
      vertex 51 22 0
      vertex 51 178 0
      vertex 80 -3 0
    endloop
  endfacet
  facet normal 0 0 1
    outer loop
      vertex 51 95 3
      vertex 77 3 3
      vertex 77 95 3
    endloop
  endfacet
  facet normal 0 0 1
    outer loop
      vertex 51 98 3
      vertex 63 98 3
      vertex 63 110.01 3
    endloop
  endfacet
  facet normal 0 0 1
    outer loop
      vertex 51 98 3
      vertex 63 110.01 3
      vertex 51 178 3
    endloop
  endfacet
  facet normal 0 0 1
    outer loop
      vertex 3 197 3
      vertex 42 178 3
      vertex 77 197 3
    endloop
  endfacet
  facet normal 0 0 -1
    outer loop
      vertex 0 203 0
      vertex 80 203 0
      vertex 42 178 0
    endloop
  endfacet
  facet normal 0 0 1
    outer loop
      vertex 42 178 3
      vertex 51 178 3
      vertex 77 197 3
    endloop
  endfacet
  facet normal 0 1 0
    outer loop
      vertex 0 203 3
      vertex 76.36363636363636 203 3
      vertex 80 203 0
    endloop
  endfacet
  facet normal 0 0 -1
    outer loop
      vertex 42 178 0
      vertex 80 203 0
      vertex 51 178 0
    endloop
  endfacet
  facet normal 0 0 1
    outer loop
      vertex 51 178 3
      vertex 63 110.01 3
      vertex 71 110.01 3
    endloop
  endfacet
  facet normal 0 0 1
    outer loop
      vertex 71 98 3
      vertex 77 98 3
      vertex 71 110.01 3
    endloop
  endfacet
  facet normal 0 0 -1
    outer loop
      vertex 80 -3 0
      vertex 51 178 0
      vertex 80 203 0
    endloop
  endfacet
  facet normal 0 0 1
    outer loop
      vertex 77 98 3
      vertex 77 197 3
      vertex 71 110.01 3
    endloop
  endfacet
  facet normal 0 0 1
    outer loop
      vertex 51 178 3
      vertex 71 110.01 3
      vertex 77 197 3
    endloop
  endfacet
  facet normal 1 0 0
    outer loop
      vertex 80 100 3
      vertex 80 203 0
      vertex 80 185.35294117647058 3
    endloop
  endfacet
  facet normal -1 0 0
    outer loop
      vertex 0 -3 0
      vertex 0 -3 22.439999999999998
      vertex 0 12 8
    endloop
  endfacet
  facet normal -1 0 0
    outer loop
      vertex 0 -3 0
      vertex 0 12 8
      vertex 0 28 8
    endloop
  endfacet
  facet normal 1 0 0
    outer loop
      vertex 3 3 3
      vertex 3 12 8
      vertex 3 12 27
    endloop
  endfacet
  facet normal -1 0 0
    outer loop
      vertex 0 -3 22.439999999999998
      vertex 0 12 27
      vertex 0 12 8
    endloop
  endfacet
  facet normal -1 0 0
    outer loop
      vertex 0 -3 0
      vertex 0 28 8
      vertex 0 40 8
    endloop
  endfacet
  facet normal 1 0 0
    outer loop
      vertex 3 3 3
      vertex 3 28 8
      vertex 3 12 8
    endloop
  endfacet
  facet normal 1 0 0
    outer loop
      vertex 3 3 3
      vertex 3 95 3
      vertex 3 28 8
    endloop
  endfacet
  facet normal -1 0 0
    outer loop
      vertex 0 -3 0
      vertex 0 40 8
      vertex 0 56 8
    endloop
  endfacet
  facet normal -1 0 0
    outer loop
      vertex 0 -3 0
      vertex 0 56 8
      vertex 0 68 8
    endloop
  endfacet
  facet normal -1 0 0
    outer loop
      vertex 0 28 8
      vertex 0 28 27
      vertex 0 40 8
    endloop
  endfacet
  facet normal 1 0 0
    outer loop
      vertex 3 28 8
      vertex 3 40 8
      vertex 3 40 27
    endloop
  endfacet
  facet normal -1 0 0
    outer loop
      vertex 0 40 8
      vertex 0 28 27
      vertex 0 40 27
    endloop
  endfacet
  facet normal 1 0 0
    outer loop
      vertex 3 28 8
      vertex 3 40 27
      vertex 3 28 27
    endloop
  endfacet
  facet normal -1 0 0
    outer loop
      vertex 0 -3 22.439999999999998
      vertex 0 -3 34
      vertex 0 3 34
    endloop
  endfacet
  facet normal 1 0 0
    outer loop
      vertex 3 3 3
      vertex 3 12 27
      vertex 3 3 34
    endloop
  endfacet
  facet normal -1 0 0
    outer loop
      vertex 0 -3 22.439999999999998
      vertex 0 3 34
      vertex 0 12 27
    endloop
  endfacet
  facet normal 1 0 0
    outer loop
      vertex 3 3 34
      vertex 3 12 27
      vertex 3 28 27
    endloop
  endfacet
  facet normal 1 0 0
    outer loop
      vertex 3 3 34
      vertex 3 28 27
      vertex 3 40 27
    endloop
  endfacet
  facet normal 1 0 0
    outer loop
      vertex 3 3 34
      vertex 3 40 27
      vertex 3 56 27
    endloop
  endfacet
  facet normal -1 0 0
    outer loop
      vertex 0 -3 0
      vertex 0 68 8
      vertex 0 84 8
    endloop
  endfacet
  facet normal 1 0 0
    outer loop
      vertex 3 95 3
      vertex 3 40 8
      vertex 3 28 8
    endloop
  endfacet
  facet normal -1 0 0
    outer loop
      vertex 0 -3 0
      vertex 0 84 8
      vertex 0 96 8
    endloop
  endfacet
  facet normal -1 0 0
    outer loop
      vertex 0 -3 0
      vertex 0 96 8
      vertex 0 112 8
    endloop
  endfacet
  facet normal 1 0 0
    outer loop
      vertex 3 95 3
      vertex 3 56 8
      vertex 3 40 8
    endloop
  endfacet
  facet normal -1 0 0
    outer loop
      vertex 0 56 27
      vertex 0 68 8
      vertex 0 56 8
    endloop
  endfacet
  facet normal 1 0 0
    outer loop
      vertex 3 68 27
      vertex 3 56 8
      vertex 3 68 8
    endloop
  endfacet
  facet normal -1 0 0
    outer loop
      vertex 0 68 8
      vertex 0 56 27
      vertex 0 68 27
    endloop
  endfacet
  facet normal 1 0 0
    outer loop
      vertex 3 68 27
      vertex 3 56 27
      vertex 3 56 8
    endloop
  endfacet
  facet normal -1 0 0
    outer loop
      vertex 0 -3 0
      vertex 0 112 8
      vertex 0 124 8
    endloop
  endfacet
  facet normal 1 0 0
    outer loop
      vertex 3 95 3
      vertex 3 68 8
      vertex 3 56 8
    endloop
  endfacet
  facet normal 1 0 0
    outer loop
      vertex 3 95 3
      vertex 3 84 8
      vertex 3 68 8
    endloop
  endfacet
  facet normal -1 0 0
    outer loop
      vertex 0 -3 0
      vertex 0 124 8
      vertex 0 140 8
    endloop
  endfacet
  facet normal -1 0 0
    outer loop
      vertex 0 -3 0
      vertex 0 140 8
      vertex 0 152 8
    endloop
  endfacet
  facet normal -1 0 0
    outer loop
      vertex 0 84 27
      vertex 0 96 8
      vertex 0 84 8
    endloop
  endfacet
  facet normal 1 0 0
    outer loop
      vertex 3 95 3
      vertex 3 95 28
      vertex 3 84 8
    endloop
  endfacet
  facet normal -1 0 0
    outer loop
      vertex 0 96 8
      vertex 0 84 27
      vertex 0 96 27
    endloop
  endfacet
  facet normal 1 0 0
    outer loop
      vertex 3 3 34
      vertex 3 56 27
      vertex 3 95 28
    endloop
  endfacet
  facet normal -1 0 0
    outer loop
      vertex 0 3 34
      vertex 0 197 34
      vertex 0 12 27
    endloop
  endfacet
  facet normal 0 0 1
    outer loop
      vertex 0 3 34
      vertex 3 3 34
      vertex 0 197 34
    endloop
  endfacet
  facet normal -1 0 0
    outer loop
      vertex 0 197 34
      vertex 0 28 27
      vertex 0 12 27
    endloop
  endfacet
  facet normal 1 0 0
    outer loop
      vertex 3 95 28
      vertex 3 56 27
      vertex 3 68 27
    endloop
  endfacet
  facet normal 1 0 0
    outer loop
      vertex 3 95 28
      vertex 3 68 27
      vertex 3 84 27
    endloop
  endfacet
  facet normal 1 0 0
    outer loop
      vertex 3 95 28
      vertex 3 84 27
      vertex 3 84 8
    endloop
  endfacet
  facet normal -1 0 0
    outer loop
      vertex 0 197 34
      vertex 0 40 27
      vertex 0 28 27
    endloop
  endfacet
  facet normal -1 0 0
    outer loop
      vertex 0 197 34
      vertex 0 56 27
      vertex 0 40 27
    endloop
  endfacet
  facet normal 1 0 0
    outer loop
      vertex 3 3 34
      vertex 3 95 28
      vertex 3 197 34
    endloop
  endfacet
  facet normal -1 0 0
    outer loop
      vertex 0 -3 0
      vertex 0 152 8
      vertex 0 168 8
    endloop
  endfacet
  facet normal 1 0 0
    outer loop
      vertex 3 98 3
      vertex 3 112 8
      vertex 3 98 8
    endloop
  endfacet
  facet normal 1 0 0
    outer loop
      vertex 3 98 3
      vertex 3 124 8
      vertex 3 112 8
    endloop
  endfacet
  facet normal -1 0 0
    outer loop
      vertex 0 -3 0
      vertex 0 168 8
      vertex 0 203 3
    endloop
  endfacet
  facet normal -1 0 0
    outer loop
      vertex 0 112 27
      vertex 0 124 8
      vertex 0 112 8
    endloop
  endfacet
  facet normal 1 0 0
    outer loop
      vertex 3 124 8
      vertex 3 124 27
      vertex 3 112 8
    endloop
  endfacet
  facet normal -1 0 0
    outer loop
      vertex 0 124 8
      vertex 0 112 27
      vertex 0 124 27
    endloop
  endfacet
  facet normal 1 0 0
    outer loop
      vertex 3 112 8
      vertex 3 124 27
      vertex 3 112 27
    endloop
  endfacet
  facet normal -1 0 0
    outer loop
      vertex 0 -3 0
      vertex 0 203 3
      vertex 0 203 0
    endloop
  endfacet
  facet normal 1 0 0
    outer loop
      vertex 3 98 3
      vertex 3 197 3
      vertex 3 124 8
    endloop
  endfacet
  facet normal 1 0 0
    outer loop
      vertex 3 197 3
      vertex 3 140 8
      vertex 3 124 8
    endloop
  endfacet
  facet normal -1 0 0
    outer loop
      vertex 0 140 8
      vertex 0 140 27
      vertex 0 152 8
    endloop
  endfacet
  facet normal 1 0 0
    outer loop
      vertex 3 152 27
      vertex 3 140 8
      vertex 3 152 8
    endloop
  endfacet
  facet normal -1 0 0
    outer loop
      vertex 0 152 8
      vertex 0 140 27
      vertex 0 152 27
    endloop
  endfacet
  facet normal 1 0 0
    outer loop
      vertex 3 140 8
      vertex 3 152 27
      vertex 3 140 27
    endloop
  endfacet
  facet normal -1 0 0
    outer loop
      vertex 0 197 34
      vertex 0 68 27
      vertex 0 56 27
    endloop
  endfacet
  facet normal 1 0 0
    outer loop
      vertex 3 98 28
      vertex 3 98 27
      vertex 3 112 27
    endloop
  endfacet
  facet normal 1 0 0
    outer loop
      vertex 3 98 28
      vertex 3 112 27
      vertex 3 124 27
    endloop
  endfacet
  facet normal -1 0 0
    outer loop
      vertex 0 203 34
      vertex 0 84 27
      vertex 0 68 27
    endloop
  endfacet
  facet normal -1 0 0
    outer loop
      vertex 0 203 34
      vertex 0 96 27
      vertex 0 84 27
    endloop
  endfacet
  facet normal 1 0 0
    outer loop
      vertex 3 98 28
      vertex 3 124 27
      vertex 3 140 27
    endloop
  endfacet
  facet normal -1 0 0
    outer loop
      vertex 0 203 34
      vertex 0 112 27
      vertex 0 96 27
    endloop
  endfacet
  facet normal 1 0 0
    outer loop
      vertex 3 95 28
      vertex 3 98 28
      vertex 3 197 34
    endloop
  endfacet
  facet normal -1 0 0
    outer loop
      vertex 0 203 34
      vertex 0 124 27
      vertex 0 112 27
    endloop
  endfacet
  facet normal -1 0 0
    outer loop
      vertex 0 203 34
      vertex 0 140 27
      vertex 0 124 27
    endloop
  endfacet
  facet normal 1 0 0
    outer loop
      vertex 3 98 28
      vertex 3 140 27
      vertex 3 197 34
    endloop
  endfacet
  facet normal 0 0 1
    outer loop
      vertex 3 3 34
      vertex 3 197 34
      vertex 0 197 34
    endloop
  endfacet
  facet normal -1 0 0
    outer loop
      vertex 0 197 34
      vertex 0 203 34
      vertex 0 68 27
    endloop
  endfacet
  facet normal 1 0 0
    outer loop
      vertex 3 197 3
      vertex 3 152 8
      vertex 3 140 8
    endloop
  endfacet
  facet normal 1 0 0
    outer loop
      vertex 3 197 3
      vertex 3 168 8
      vertex 3 152 8
    endloop
  endfacet
  facet normal -1 0 0
    outer loop
      vertex 0 203 3
      vertex 0 168 8
      vertex 0 168 27
    endloop
  endfacet
  facet normal 1 0 0
    outer loop
      vertex 3 197 3
      vertex 3 197 34
      vertex 3 168 8
    endloop
  endfacet
  facet normal -1 0 0
    outer loop
      vertex 0 203 34
      vertex 0 152 27
      vertex 0 140 27
    endloop
  endfacet
  facet normal 1 0 0
    outer loop
      vertex 3 197 34
      vertex 3 140 27
      vertex 3 152 27
    endloop
  endfacet
  facet normal 1 0 0
    outer loop
      vertex 3 197 34
      vertex 3 168 27
      vertex 3 168 8
    endloop
  endfacet
  facet normal -1 0 0
    outer loop
      vertex 0 203 34
      vertex 0 168 27
      vertex 0 152 27
    endloop
  endfacet
  facet normal 1 0 0
    outer loop
      vertex 3 197 34
      vertex 3 152 27
      vertex 3 168 27
    endloop
  endfacet
  facet normal -1 0 0
    outer loop
      vertex 0 203 3
      vertex 0 168 27
      vertex 0 203 34
    endloop
  endfacet
  facet normal -1 0 0
    outer loop
      vertex 77 3 3
      vertex 77 3 34
      vertex 77 12 8
    endloop
  endfacet
  facet normal 1 0 0
    outer loop
      vertex 80 -3 3
      vertex 80 12 8
      vertex 80 12 27
    endloop
  endfacet
  facet normal -1 0 0
    outer loop
      vertex 77 3 3
      vertex 77 12 8
      vertex 77 28 8
    endloop
  endfacet
  facet normal -1 0 0
    outer loop
      vertex 77 3 3
      vertex 77 28 8
      vertex 77 95 3
    endloop
  endfacet
  facet normal 1 0 0
    outer loop
      vertex 80 -3 0
      vertex 80 100 3
      vertex 80 -3 3
    endloop
  endfacet
  facet normal 1 0 0
    outer loop
      vertex 80 -3 3
      vertex 80 100 3
      vertex 80 12 8
    endloop
  endfacet
  facet normal -1 0 0
    outer loop
      vertex 77 28 8
      vertex 77 28 27
      vertex 77 40 8
    endloop
  endfacet
  facet normal 1 0 0
    outer loop
      vertex 80 40 27
      vertex 80 28 8
      vertex 80 40 8
    endloop
  endfacet
  facet normal -1 0 0
    outer loop
      vertex 77 28 27
      vertex 77 40 27
      vertex 77 40 8
    endloop
  endfacet
  facet normal 1 0 0
    outer loop
      vertex 80 28 8
      vertex 80 40 27
      vertex 80 28 27
    endloop
  endfacet
  facet normal -1 0 0
    outer loop
      vertex 77 3 34
      vertex 77 12 27
      vertex 77 12 8
    endloop
  endfacet
  facet normal 1 0 0
    outer loop
      vertex 80 -3 3
      vertex 80 12 27
      vertex 80 -3 34
    endloop
  endfacet
  facet normal 1 0 0
    outer loop
      vertex 80 -3 34
      vertex 80 12 27
      vertex 80 28 27
    endloop
  endfacet
  facet normal 1 0 0
    outer loop
      vertex 80 -3 34
      vertex 80 40 27
      vertex 80 3 34
    endloop
  endfacet
  facet normal -1 0 0
    outer loop
      vertex 77 3 34
      vertex 77 28 27
      vertex 77 12 27
    endloop
  endfacet
  facet normal -1 0 0
    outer loop
      vertex 77 3 34
      vertex 77 40 27
      vertex 77 28 27
    endloop
  endfacet
  facet normal 1 0 0
    outer loop
      vertex 80 -3 34
      vertex 80 28 27
      vertex 80 40 27
    endloop
  endfacet
  facet normal 1 0 0
    outer loop
      vertex 80 3 34
      vertex 80 40 27
      vertex 80 56 27
    endloop
  endfacet
  facet normal 1 0 0
    outer loop
      vertex 80 3 34
      vertex 80 56 27
      vertex 80 68 27
    endloop
  endfacet
  facet normal -1 0 0
    outer loop
      vertex 77 95 3
      vertex 77 28 8
      vertex 77 40 8
    endloop
  endfacet
  facet normal 1 0 0
    outer loop
      vertex 80 100 3
      vertex 80 28 8
      vertex 80 12 8
    endloop
  endfacet
  facet normal 1 0 0
    outer loop
      vertex 80 100 3
      vertex 80 40 8
      vertex 80 28 8
    endloop
  endfacet
  facet normal -1 0 0
    outer loop
      vertex 77 95 3
      vertex 77 40 8
      vertex 77 56 8
    endloop
  endfacet
  facet normal 1 0 0
    outer loop
      vertex 80 100 3
      vertex 80 56 8
      vertex 80 40 8
    endloop
  endfacet
  facet normal -1 0 0
    outer loop
      vertex 77 56 27
      vertex 77 68 8
      vertex 77 56 8
    endloop
  endfacet
  facet normal 1 0 0
    outer loop
      vertex 80 68 27
      vertex 80 56 8
      vertex 80 68 8
    endloop
  endfacet
  facet normal -1 0 0
    outer loop
      vertex 77 68 8
      vertex 77 56 27
      vertex 77 68 27
    endloop
  endfacet
  facet normal 1 0 0
    outer loop
      vertex 80 56 8
      vertex 80 68 27
      vertex 80 56 27
    endloop
  endfacet
  facet normal -1 0 0
    outer loop
      vertex 77 95 3
      vertex 77 56 8
      vertex 77 68 8
    endloop
  endfacet
  facet normal -1 0 0
    outer loop
      vertex 77 95 3
      vertex 77 68 8
      vertex 77 84 8
    endloop
  endfacet
  facet normal 1 0 0
    outer loop
      vertex 80 100 3
      vertex 80 68 8
      vertex 80 56 8
    endloop
  endfacet
  facet normal 1 0 0
    outer loop
      vertex 80 100 3
      vertex 80 84 8
      vertex 80 68 8
    endloop
  endfacet
  facet normal 1 0 0
    outer loop
      vertex 80 100 3
      vertex 80 96 8
      vertex 80 84 8
    endloop
  endfacet
  facet normal -1 0 0
    outer loop
      vertex 77 95 3
      vertex 77 84 8
      vertex 77 84 27
    endloop
  endfacet
  facet normal 1 0 0
    outer loop
      vertex 80 96 27
      vertex 80 84 8
      vertex 80 96 8
    endloop
  endfacet
  facet normal -1 0 0
    outer loop
      vertex 77 95 3
      vertex 77 84 27
      vertex 77 95 28
    endloop
  endfacet
  facet normal 1 0 0
    outer loop
      vertex 80 84 8
      vertex 80 96 27
      vertex 80 84 27
    endloop
  endfacet
  facet normal -1 0 0
    outer loop
      vertex 77 3 34
      vertex 77 95 28
      vertex 77 40 27
    endloop
  endfacet
  facet normal -1 0 0
    outer loop
      vertex 77 95 28
      vertex 77 56 27
      vertex 77 40 27
    endloop
  endfacet
  facet normal 0 0 1
    outer loop
      vertex 77 3 34
      vertex 80 3 34
      vertex 77 197 34
    endloop
  endfacet
  facet normal -1 0 0
    outer loop
      vertex 77 95 28
      vertex 77 68 27
      vertex 77 56 27
    endloop
  endfacet
  facet normal -1 0 0
    outer loop
      vertex 77 95 28
      vertex 77 84 27
      vertex 77 68 27
    endloop
  endfacet
  facet normal -1 0 0
    outer loop
      vertex 77 3 34
      vertex 77 197 34
      vertex 77 95 28
    endloop
  endfacet
  facet normal 1 0 0
    outer loop
      vertex 80 3 34
      vertex 80 68 27
      vertex 80 197 34
    endloop
  endfacet
  facet normal 1 0 0
    outer loop
      vertex 80 -3 0
      vertex 80 203 0
      vertex 80 100 3
    endloop
  endfacet
  facet normal -1 0 0
    outer loop
      vertex 77 98 3
      vertex 77 98 8
      vertex 77 112 8
    endloop
  endfacet
  facet normal -1 0 0
    outer loop
      vertex 77 98 3
      vertex 77 112 8
      vertex 77 124 8
    endloop
  endfacet
  facet normal 1 0 0
    outer loop
      vertex 80 100 3
      vertex 80 112 8
      vertex 80 96 8
    endloop
  endfacet
  facet normal 1 0 0
    outer loop
      vertex 80 100 3
      vertex 80 124 8
      vertex 80 112 8
    endloop
  endfacet
  facet normal -1 0 0
    outer loop
      vertex 77 98 3
      vertex 77 124 8
      vertex 77 140 8
    endloop
  endfacet
  facet normal 1 0 0
    outer loop
      vertex 80 100 3
      vertex 80 140 8
      vertex 80 124 8
    endloop
  endfacet
  facet normal -1 0 0
    outer loop
      vertex 77 112 8
      vertex 77 112 27
      vertex 77 124 8
    endloop
  endfacet
  facet normal 1 0 0
    outer loop
      vertex 80 124 27
      vertex 80 112 8
      vertex 80 124 8
    endloop
  endfacet
  facet normal -1 0 0
    outer loop
      vertex 77 112 27
      vertex 77 124 27
      vertex 77 124 8
    endloop
  endfacet
  facet normal 1 0 0
    outer loop
      vertex 80 112 8
      vertex 80 124 27
      vertex 80 112 27
    endloop
  endfacet
  facet normal -1 0 0
    outer loop
      vertex 77 98 3
      vertex 77 140 8
      vertex 77 152 8
    endloop
  endfacet
  facet normal -1 0 0
    outer loop
      vertex 77 98 3
      vertex 77 152 8
      vertex 77 168 8
    endloop
  endfacet
  facet normal 1 0 0
    outer loop
      vertex 80 100 3
      vertex 80 152 8
      vertex 80 140 8
    endloop
  endfacet
  facet normal -1 0 0
    outer loop
      vertex 77 98 3
      vertex 77 168 8
      vertex 77 197 3
    endloop
  endfacet
  facet normal 1 0 0
    outer loop
      vertex 80 100 3
      vertex 80 185.35294117647058 3
      vertex 80 152 8
    endloop
  endfacet
  facet normal -1 0 0
    outer loop
      vertex 77 140 27
      vertex 77 152 8
      vertex 77 140 8
    endloop
  endfacet
  facet normal 1 0 0
    outer loop
      vertex 80 152 27
      vertex 80 140 8
      vertex 80 152 8
    endloop
  endfacet
  facet normal -1 0 0
    outer loop
      vertex 77 152 8
      vertex 77 140 27
      vertex 77 152 27
    endloop
  endfacet
  facet normal 1 0 0
    outer loop
      vertex 80 140 8
      vertex 80 152 27
      vertex 80 140 27
    endloop
  endfacet
  facet normal -1 0 0
    outer loop
      vertex 77 98 28
      vertex 77 112 27
      vertex 77 98 27
    endloop
  endfacet
  facet normal -1 0 0
    outer loop
      vertex 77 98 28
      vertex 77 124 27
      vertex 77 112 27
    endloop
  endfacet
  facet normal -1 0 0
    outer loop
      vertex 77 98 28
      vertex 77 140 27
      vertex 77 124 27
    endloop
  endfacet
  facet normal 1 0 0
    outer loop
      vertex 80 197 34
      vertex 80 68 27
      vertex 80 84 27
    endloop
  endfacet
  facet normal 1 0 0
    outer loop
      vertex 80 197 34
      vertex 80 84 27
      vertex 80 96 27
    endloop
  endfacet
  facet normal -1 0 0
    outer loop
      vertex 77 98 28
      vertex 77 152 27
      vertex 77 140 27
    endloop
  endfacet
  facet normal -1 0 0
    outer loop
      vertex 77 95 28
      vertex 77 197 34
      vertex 77 98 28
    endloop
  endfacet
  facet normal 1 0 0
    outer loop
      vertex 80 197 34
      vertex 80 96 27
      vertex 80 112 27
    endloop
  endfacet
  facet normal -1 0 0
    outer loop
      vertex 77 98 28
      vertex 77 197 34
      vertex 77 152 27
    endloop
  endfacet
  facet normal 1 0 0
    outer loop
      vertex 80 197 34
      vertex 80 112 27
      vertex 80 124 27
    endloop
  endfacet
  facet normal 1 0 0
    outer loop
      vertex 80 197 34
      vertex 80 124 27
      vertex 80 140 27
    endloop
  endfacet
  facet normal 0 0 1
    outer loop
      vertex 80 3 34
      vertex 80 197 34
      vertex 77 197 34
    endloop
  endfacet
  facet normal 1 0 0
    outer loop
      vertex 80 185.35294117647058 3
      vertex 80 168 8
      vertex 80 152 8
    endloop
  endfacet
  facet normal -1 0 0
    outer loop
      vertex 77 197 3
      vertex 77 168 8
      vertex 77 168 27
    endloop
  endfacet
  facet normal 1 0 0
    outer loop
      vertex 80 185.35294117647058 3
      vertex 80 197 34
      vertex 80 168 8
    endloop
  endfacet
  facet normal 1 0 0
    outer loop
      vertex 80 185.35294117647058 3
      vertex 80 203 0
      vertex 80 197 34
    endloop
  endfacet
  facet normal 1 0 0
    outer loop
      vertex 80 197 34
      vertex 80 140 27
      vertex 80 152 27
    endloop
  endfacet
  facet normal 1 0 0
    outer loop
      vertex 80 197 34
      vertex 80 168 27
      vertex 80 168 8
    endloop
  endfacet
  facet normal -1 0 0
    outer loop
      vertex 77 197 34
      vertex 77 168 27
      vertex 77 152 27
    endloop
  endfacet
  facet normal 1 0 0
    outer loop
      vertex 80 197 34
      vertex 80 152 27
      vertex 80 168 27
    endloop
  endfacet
  facet normal -1 0 0
    outer loop
      vertex 77 197 3
      vertex 77 168 27
      vertex 77 197 34
    endloop
  endfacet
  facet normal 1 0 0
    outer loop
      vertex 80 203 0
      vertex 80 203 34
      vertex 80 197 34
    endloop
  endfacet
  facet normal 0 -1 0
    outer loop
      vertex 0 -3 0
      vertex 3.6363636363636367 -3 3
      vertex 0 -3 22.439999999999998
    endloop
  endfacet
  facet normal 0 1 0
    outer loop
      vertex 3 3 3
      vertex 3 3 34
      vertex 22 3 9
    endloop
  endfacet
  facet normal 0 -1 0
    outer loop
      vertex 3.6363636363636367 -3 3
      vertex 22 -3 62
      vertex 0 -3 22.439999999999998
    endloop
  endfacet
  facet normal 0 -1 0
    outer loop
      vertex 0 -3 22.439999999999998
      vertex 10 -3 66
      vertex 0 -3 34
    endloop
  endfacet
  facet normal 0 1 0
    outer loop
      vertex 3 3 34
      vertex 0 3 66
      vertex 22 3 9
    endloop
  endfacet
  facet normal 0 -1 0
    outer loop
      vertex 3.6363636363636367 -3 3
      vertex 22 -3 9
      vertex 22 -3 62
    endloop
  endfacet
  facet normal 0 1 0
    outer loop
      vertex 3 3 3
      vertex 22 3 9
      vertex 58 3 9
    endloop
  endfacet
  facet normal 0 -1 0
    outer loop
      vertex 3.6363636363636367 -3 3
      vertex 80 -3 3
      vertex 22 -3 9
    endloop
  endfacet
  facet normal -1 0 0
    outer loop
      vertex 0 -3 34
      vertex 0 -3 66
      vertex 0 3 34
    endloop
  endfacet
  facet normal 0 1 0
    outer loop
      vertex 0 3 34
      vertex 0 3 66
      vertex 3 3 34
    endloop
  endfacet
  facet normal 0 -1 0
    outer loop
      vertex 0 -3 34
      vertex 10 -3 66
      vertex 0 -3 66
    endloop
  endfacet
  facet normal -1 0 0
    outer loop
      vertex 0 3 34
      vertex 0 -3 66
      vertex 0 3 66
    endloop
  endfacet
  facet normal 0 -1 0
    outer loop
      vertex 0 -3 22.439999999999998
      vertex 22 -3 62
      vertex 10 -3 66
    endloop
  endfacet
  facet normal 0 1 0
    outer loop
      vertex 0 3 66
      vertex 10 3 66
      vertex 22 3 9
    endloop
  endfacet
  facet normal 0 1 0
    outer loop
      vertex 10 3 66
      vertex 22 3 62
      vertex 22 3 9
    endloop
  endfacet
  facet normal 0 0 1
    outer loop
      vertex 0 -3 66
      vertex 10 -3 66
      vertex 0 3 66
    endloop
  endfacet
  facet normal 0 0 1
    outer loop
      vertex 0 3 66
      vertex 10 -3 66
      vertex 10 3 66
    endloop
  endfacet
  facet normal 0 -1 0
    outer loop
      vertex 10 -3 66
      vertex 22 -3 62
      vertex 58 -3 62
    endloop
  endfacet
  facet normal 0 1 0
    outer loop
      vertex 10 3 66
      vertex 70 3 66
      vertex 22 3 62
    endloop
  endfacet
  facet normal 0 1 0
    outer loop
      vertex 3 3 3
      vertex 58 3 9
      vertex 77 3 3
    endloop
  endfacet
  facet normal 0 -1 0
    outer loop
      vertex 0 -3 0
      vertex 80 -3 0
      vertex 80 -3 3
    endloop
  endfacet
  facet normal 0 -1 0
    outer loop
      vertex 80 -3 3
      vertex 58 -3 9
      vertex 22 -3 9
    endloop
  endfacet
  facet normal 0 -1 0
    outer loop
      vertex 80 -3 3
      vertex 80 -3 34
      vertex 58 -3 9
    endloop
  endfacet
  facet normal 0 1 0
    outer loop
      vertex 77 3 3
      vertex 58 3 9
      vertex 58 3 62
    endloop
  endfacet
  facet normal 0 -1 0
    outer loop
      vertex 80 -3 34
      vertex 80 -3 66
      vertex 58 -3 9
    endloop
  endfacet
  facet normal 0 1 0
    outer loop
      vertex 77 3 3
      vertex 58 3 62
      vertex 77 3 34
    endloop
  endfacet
  facet normal 0 -1 0
    outer loop
      vertex 10 -3 66
      vertex 58 -3 62
      vertex 70 -3 66
    endloop
  endfacet
  facet normal 0 1 0
    outer loop
      vertex 70 3 66
      vertex 58 3 62
      vertex 22 3 62
    endloop
  endfacet
  facet normal 0 -1 0
    outer loop
      vertex 70 -3 66
      vertex 58 -3 62
      vertex 58 -3 9
    endloop
  endfacet
  facet normal 0 -1 0
    outer loop
      vertex 70 -3 66
      vertex 58 -3 9
      vertex 80 -3 66
    endloop
  endfacet
  facet normal 0 1 0
    outer loop
      vertex 77 3 34
      vertex 58 3 62
      vertex 70 3 66
    endloop
  endfacet
  facet normal 0 1 0
    outer loop
      vertex 77 3 34
      vertex 80 3 66
      vertex 80 3 34
    endloop
  endfacet
  facet normal 1 0 0
    outer loop
      vertex 80 -3 34
      vertex 80 3 34
      vertex 80 3 66
    endloop
  endfacet
  facet normal 1 0 0
    outer loop
      vertex 80 -3 34
      vertex 80 3 66
      vertex 80 -3 66
    endloop
  endfacet
  facet normal 0 1 0
    outer loop
      vertex 77 3 34
      vertex 70 3 66
      vertex 80 3 66
    endloop
  endfacet
  facet normal 0 0 1
    outer loop
      vertex 70 -3 66
      vertex 80 -3 66
      vertex 70 3 66
    endloop
  endfacet
  facet normal 0 0 1
    outer loop
      vertex 70 3 66
      vertex 80 -3 66
      vertex 80 3 66
    endloop
  endfacet
  facet normal 0 1 0
    outer loop
      vertex 0 203 3
      vertex 0 203 34
      vertex 22 203 9
    endloop
  endfacet
  facet normal 0 -1 0
    outer loop
      vertex 3 197 3
      vertex 22 197 62
      vertex 3 197 34
    endloop
  endfacet
  facet normal 0 1 0
    outer loop
      vertex 0 203 34
      vertex 0 203 66
      vertex 22 203 9
    endloop
  endfacet
  facet normal 0 -1 0
    outer loop
      vertex 3 197 3
      vertex 22 197 9
      vertex 22 197 62
    endloop
  endfacet
  facet normal 0 1 0
    outer loop
      vertex 0 203 0
      vertex 0 203 3
      vertex 80 203 0
    endloop
  endfacet
  facet normal 0 1 0
    outer loop
      vertex 0 203 3
      vertex 22 203 9
      vertex 58 203 9
    endloop
  endfacet
  facet normal 0 -1 0
    outer loop
      vertex 3 197 3
      vertex 77 197 3
      vertex 22 197 9
    endloop
  endfacet
  facet normal -1 0 0
    outer loop
      vertex 0 197 34
      vertex 0 197 66
      vertex 0 203 34
    endloop
  endfacet
  facet normal 0 -1 0
    outer loop
      vertex 0 197 34
      vertex 3 197 34
      vertex 0 197 66
    endloop
  endfacet
  facet normal 0 -1 0
    outer loop
      vertex 3 197 34
      vertex 10 197 66
      vertex 0 197 66
    endloop
  endfacet
  facet normal -1 0 0
    outer loop
      vertex 0 203 34
      vertex 0 197 66
      vertex 0 203 66
    endloop
  endfacet
  facet normal 0 1 0
    outer loop
      vertex 0 203 66
      vertex 10 203 66
      vertex 22 203 9
    endloop
  endfacet
  facet normal 0 1 0
    outer loop
      vertex 10 203 66
      vertex 22 203 62
      vertex 22 203 9
    endloop
  endfacet
  facet normal 0 -1 0
    outer loop
      vertex 3 197 34
      vertex 22 197 62
      vertex 10 197 66
    endloop
  endfacet
  facet normal 0 0 1
    outer loop
      vertex 0 197 66
      vertex 10 197 66
      vertex 0 203 66
    endloop
  endfacet
  facet normal 0 0 1
    outer loop
      vertex 0 203 66
      vertex 10 197 66
      vertex 10 203 66
    endloop
  endfacet
  facet normal 0 -1 0
    outer loop
      vertex 10 197 66
      vertex 22 197 62
      vertex 58 197 62
    endloop
  endfacet
  facet normal 0 1 0
    outer loop
      vertex 10 203 66
      vertex 70 203 66
      vertex 22 203 62
    endloop
  endfacet
  facet normal 0 1 0
    outer loop
      vertex 0 203 3
      vertex 58 203 9
      vertex 76.36363636363636 203 3
    endloop
  endfacet
  facet normal 0 -1 0
    outer loop
      vertex 77 197 3
      vertex 58 197 9
      vertex 22 197 9
    endloop
  endfacet
  facet normal 0 -1 0
    outer loop
      vertex 77 197 3
      vertex 77 197 34
      vertex 58 197 9
    endloop
  endfacet
  facet normal 0 1 0
    outer loop
      vertex 76.36363636363636 203 3
      vertex 80 203 34
      vertex 80 203 0
    endloop
  endfacet
  facet normal 0 1 0
    outer loop
      vertex 76.36363636363636 203 3
      vertex 58 203 9
      vertex 58 203 62
    endloop
  endfacet
  facet normal 0 -1 0
    outer loop
      vertex 77 197 34
      vertex 80 197 66
      vertex 58 197 9
    endloop
  endfacet
  facet normal 0 1 0
    outer loop
      vertex 76.36363636363636 203 3
      vertex 58 203 62
      vertex 80 203 34
    endloop
  endfacet
  facet normal 0 -1 0
    outer loop
      vertex 10 197 66
      vertex 58 197 62
      vertex 70 197 66
    endloop
  endfacet
  facet normal 0 1 0
    outer loop
      vertex 70 203 66
      vertex 58 203 62
      vertex 22 203 62
    endloop
  endfacet
  facet normal 0 -1 0
    outer loop
      vertex 70 197 66
      vertex 58 197 62
      vertex 58 197 9
    endloop
  endfacet
  facet normal 0 -1 0
    outer loop
      vertex 70 197 66
      vertex 58 197 9
      vertex 80 197 66
    endloop
  endfacet
  facet normal 0 1 0
    outer loop
      vertex 80 203 34
      vertex 58 203 62
      vertex 70 203 66
    endloop
  endfacet
  facet normal 0 -1 0
    outer loop
      vertex 77 197 34
      vertex 80 197 34
      vertex 80 197 66
    endloop
  endfacet
  facet normal 1 0 0
    outer loop
      vertex 80 197 34
      vertex 80 203 34
      vertex 80 203 66
    endloop
  endfacet
  facet normal 1 0 0
    outer loop
      vertex 80 197 34
      vertex 80 203 66
      vertex 80 197 66
    endloop
  endfacet
  facet normal 0 1 0
    outer loop
      vertex 80 203 34
      vertex 70 203 66
      vertex 80 203 66
    endloop
  endfacet
  facet normal 0 0 1
    outer loop
      vertex 70 197 66
      vertex 80 197 66
      vertex 70 203 66
    endloop
  endfacet
  facet normal 0 0 1
    outer loop
      vertex 70 203 66
      vertex 80 197 66
      vertex 80 203 66
    endloop
  endfacet
  facet normal 0 1 0
    outer loop
      vertex 20 22 0
      vertex 20 22 3
      vertex 29 22 0
    endloop
  endfacet
  facet normal 0 1 0
    outer loop
      vertex 20 22 3
      vertex 29 22 3
      vertex 29 22 0
    endloop
  endfacet
  facet normal 1 0 0
    outer loop
      vertex 20 22 0
      vertex 20 95 3
      vertex 20 22 3
    endloop
  endfacet
  facet normal 1 0 0
    outer loop
      vertex 20 22 0
      vertex 20 98 3
      vertex 20 95 3
    endloop
  endfacet
  facet normal 1 0 0
    outer loop
      vertex 20 22 0
      vertex 20 178 3
      vertex 20 98 3
    endloop
  endfacet
  facet normal -1 0 0
    outer loop
      vertex 29 22 0
      vertex 29 22 3
      vertex 29 178 0
    endloop
  endfacet
  facet normal -1 0 0
    outer loop
      vertex 29 22 3
      vertex 29 95 3
      vertex 29 178 0
    endloop
  endfacet
  facet normal 1 0 0
    outer loop
      vertex 20 22 0
      vertex 20 178 0
      vertex 20 178 3
    endloop
  endfacet
  facet normal -1 0 0
    outer loop
      vertex 29 95 3
      vertex 29 98 3
      vertex 29 178 0
    endloop
  endfacet
  facet normal -1 0 0
    outer loop
      vertex 29 98 3
      vertex 29 178 3
      vertex 29 178 0
    endloop
  endfacet
  facet normal 0 -1 0
    outer loop
      vertex 20 178 0
      vertex 29 178 3
      vertex 20 178 3
    endloop
  endfacet
  facet normal 0 -1 0
    outer loop
      vertex 20 178 0
      vertex 29 178 0
      vertex 29 178 3
    endloop
  endfacet
  facet normal 0 1 0
    outer loop
      vertex 42 22 0
      vertex 42 22 3
      vertex 51 22 0
    endloop
  endfacet
  facet normal 0 1 0
    outer loop
      vertex 42 22 3
      vertex 51 22 3
      vertex 51 22 0
    endloop
  endfacet
  facet normal 1 0 0
    outer loop
      vertex 42 22 0
      vertex 42 95 3
      vertex 42 22 3
    endloop
  endfacet
  facet normal 1 0 0
    outer loop
      vertex 42 22 0
      vertex 42 98 3
      vertex 42 95 3
    endloop
  endfacet
  facet normal 1 0 0
    outer loop
      vertex 42 22 0
      vertex 42 110.01 3
      vertex 42 98 3
    endloop
  endfacet
  facet normal -1 0 0
    outer loop
      vertex 51 22 0
      vertex 51 22 3
      vertex 51 178 0
    endloop
  endfacet
  facet normal -1 0 0
    outer loop
      vertex 51 22 3
      vertex 51 95 3
      vertex 51 178 0
    endloop
  endfacet
  facet normal 1 0 0
    outer loop
      vertex 42 22 0
      vertex 42 178 3
      vertex 42 110.01 3
    endloop
  endfacet
  facet normal 1 0 0
    outer loop
      vertex 42 22 0
      vertex 42 178 0
      vertex 42 178 3
    endloop
  endfacet
  facet normal -1 0 0
    outer loop
      vertex 51 95 3
      vertex 51 98 3
      vertex 51 178 0
    endloop
  endfacet
  facet normal -1 0 0
    outer loop
      vertex 51 98 3
      vertex 51 178 3
      vertex 51 178 0
    endloop
  endfacet
  facet normal 0 -1 0
    outer loop
      vertex 42 178 0
      vertex 51 178 3
      vertex 42 178 3
    endloop
  endfacet
  facet normal 0 -1 0
    outer loop
      vertex 42 178 0
      vertex 51 178 0
      vertex 51 178 3
    endloop
  endfacet
  facet normal 0 0 1
    outer loop
      vertex 9 98.01 28
      vertex 9 98 28
      vertex 17 98.01 28
    endloop
  endfacet
  facet normal 0 0 1
    outer loop
      vertex 9 98 28
      vertex 17 98 28
      vertex 17 98.01 28
    endloop
  endfacet
  facet normal -1 0 0
    outer loop
      vertex 9 98 3
      vertex 9 110.01 6
      vertex 9 110.01 3
    endloop
  endfacet
  facet normal -1 0 0
    outer loop
      vertex 9 98 3
      vertex 9 98 28
      vertex 9 110.01 6
    endloop
  endfacet
  facet normal -1 0 0
    outer loop
      vertex 9 98.01 28
      vertex 9 110.01 6
      vertex 9 98 28
    endloop
  endfacet
  facet normal 0 1 0
    outer loop
      vertex 9 110.01 3
      vertex 9 110.01 6
      vertex 17 110.01 6
    endloop
  endfacet
  facet normal 0 1 0
    outer loop
      vertex 9 110.01 3
      vertex 17 110.01 6
      vertex 17 110.01 3
    endloop
  endfacet
  facet normal 1 0 0
    outer loop
      vertex 17 98 3
      vertex 17 110.01 3
      vertex 17 110.01 6
    endloop
  endfacet
  facet normal 0 0.8778955729143844 0.4788521306805733
    outer loop
      vertex 17 98.01 28
      vertex 17 110.01 6
      vertex 9 110.01 6
    endloop
  endfacet
  facet normal 0 0.8778955729143844 0.4788521306805733
    outer loop
      vertex 9 98.01 28
      vertex 17 98.01 28
      vertex 9 110.01 6
    endloop
  endfacet
  facet normal 1 0 0
    outer loop
      vertex 17 98 3
      vertex 17 110.01 6
      vertex 17 98 28
    endloop
  endfacet
  facet normal 1 0 0
    outer loop
      vertex 17 98.01 28
      vertex 17 98 28
      vertex 17 110.01 6
    endloop
  endfacet
  facet normal 0 0 1
    outer loop
      vertex 36 98.01 28
      vertex 36 98 28
      vertex 44 98 28
    endloop
  endfacet
  facet normal -1 0 0
    outer loop
      vertex 36 98 3
      vertex 36 110.01 6
      vertex 36 110.01 3
    endloop
  endfacet
  facet normal 0 1 0
    outer loop
      vertex 36 110.01 3
      vertex 36 110.01 6
      vertex 44 110.01 6
    endloop
  endfacet
  facet normal -1 0 0
    outer loop
      vertex 36 98 3
      vertex 36 98 28
      vertex 36 110.01 6
    endloop
  endfacet
  facet normal 0 0.8778955729143844 0.4788521306805733
    outer loop
      vertex 36 98.01 28
      vertex 44 110.01 6
      vertex 36 110.01 6
    endloop
  endfacet
  facet normal -1 0 0
    outer loop
      vertex 36 98.01 28
      vertex 36 110.01 6
      vertex 36 98 28
    endloop
  endfacet
  facet normal 0 0 1
    outer loop
      vertex 36 98.01 28
      vertex 44 98 28
      vertex 44 98.01 28
    endloop
  endfacet
  facet normal 0 1 0
    outer loop
      vertex 36 110.01 3
      vertex 44 110.01 6
      vertex 42 110.01 3
    endloop
  endfacet
  facet normal 0 0 -1
    outer loop
      vertex 42 98 3
      vertex 44 110.01 3
      vertex 44 98 3
    endloop
  endfacet
  facet normal 0 0 -1
    outer loop
      vertex 42 98 3
      vertex 42 110.01 3
      vertex 44 110.01 3
    endloop
  endfacet
  facet normal 1 0 0
    outer loop
      vertex 44 98 3
      vertex 44 110.01 3
      vertex 44 110.01 6
    endloop
  endfacet
  facet normal 0 1 0
    outer loop
      vertex 42 110.01 3
      vertex 44 110.01 6
      vertex 44 110.01 3
    endloop
  endfacet
  facet normal 1 0 0
    outer loop
      vertex 44 98 3
      vertex 44 110.01 6
      vertex 44 98 28
    endloop
  endfacet
  facet normal 0 0.8778955729143844 0.4788521306805733
    outer loop
      vertex 36 98.01 28
      vertex 44 98.01 28
      vertex 44 110.01 6
    endloop
  endfacet
  facet normal 1 0 0
    outer loop
      vertex 44 98.01 28
      vertex 44 98 28
      vertex 44 110.01 6
    endloop
  endfacet
  facet normal 0 0 1
    outer loop
      vertex 63 98.01 28
      vertex 63 98 28
      vertex 71 98.01 28
    endloop
  endfacet
  facet normal 0 0 1
    outer loop
      vertex 63 98 28
      vertex 71 98 28
      vertex 71 98.01 28
    endloop
  endfacet
  facet normal -1 0 0
    outer loop
      vertex 63 98 3
      vertex 63 110.01 6
      vertex 63 110.01 3
    endloop
  endfacet
  facet normal 0 1 0
    outer loop
      vertex 63 110.01 3
      vertex 63 110.01 6
      vertex 71 110.01 6
    endloop
  endfacet
  facet normal 0 1 0
    outer loop
      vertex 63 110.01 3
      vertex 71 110.01 6
      vertex 71 110.01 3
    endloop
  endfacet
  facet normal -1 0 0
    outer loop
      vertex 63 98 3
      vertex 63 98 28
      vertex 63 110.01 6
    endloop
  endfacet
  facet normal -1 0 0
    outer loop
      vertex 63 98.01 28
      vertex 63 110.01 6
      vertex 63 98 28
    endloop
  endfacet
  facet normal 0 0.8778955729143844 0.4788521306805733
    outer loop
      vertex 71 98.01 28
      vertex 71 110.01 6
      vertex 63 110.01 6
    endloop
  endfacet
  facet normal 0 0.8778955729143844 0.4788521306805733
    outer loop
      vertex 63 98.01 28
      vertex 71 98.01 28
      vertex 63 110.01 6
    endloop
  endfacet
  facet normal 1 0 0
    outer loop
      vertex 71 98 3
      vertex 71 110.01 3
      vertex 71 110.01 6
    endloop
  endfacet
  facet normal 1 0 0
    outer loop
      vertex 71 98 3
      vertex 71 110.01 6
      vertex 71 98 28
    endloop
  endfacet
  facet normal 1 0 0
    outer loop
      vertex 71 98.01 28
      vertex 71 98 28
      vertex 71 110.01 6
    endloop
  endfacet
  facet normal 0 1 0
    outer loop
      vertex 3 98 3
      vertex 3 98 8
      vertex 4 98 8
    endloop
  endfacet
  facet normal 0 1 0
    outer loop
      vertex 3 98 3
      vertex 9 98 28
      vertex 9 98 3
    endloop
  endfacet
  facet normal 0 1 0
    outer loop
      vertex 3 98 3
      vertex 4 98 8
      vertex 9 98 28
    endloop
  endfacet
  facet normal 0 1 0
    outer loop
      vertex 3 98 28
      vertex 4 98 27
      vertex 3 98 27
    endloop
  endfacet
  facet normal 0 1 0
    outer loop
      vertex 9 98 28
      vertex 4 98 8
      vertex 4 98 27
    endloop
  endfacet
  facet normal 0 1 0
    outer loop
      vertex 3 98 28
      vertex 9 98 28
      vertex 4 98 27
    endloop
  endfacet
  facet normal 0 0 -1
    outer loop
      vertex 20 95 3
      vertex 20 98 3
      vertex 29 98 3
    endloop
  endfacet
  facet normal 0 0 -1
    outer loop
      vertex 20 95 3
      vertex 29 98 3
      vertex 29 95 3
    endloop
  endfacet
  facet normal 0 1 0
    outer loop
      vertex 17 98 3
      vertex 36 98 28
      vertex 20 98 3
    endloop
  endfacet
  facet normal 0 1 0
    outer loop
      vertex 17 98 3
      vertex 17 98 28
      vertex 36 98 28
    endloop
  endfacet
  facet normal 0 1 0
    outer loop
      vertex 20 98 3
      vertex 36 98 28
      vertex 29 98 3
    endloop
  endfacet
  facet normal 0 -1 0
    outer loop
      vertex 3 95 3
      vertex 77 95 28
      vertex 3 95 28
    endloop
  endfacet
  facet normal 0 -1 0
    outer loop
      vertex 3 95 3
      vertex 20 95 3
      vertex 77 95 28
    endloop
  endfacet
  facet normal 0 1 0
    outer loop
      vertex 29 98 3
      vertex 36 98 28
      vertex 36 98 3
    endloop
  endfacet
  facet normal 0 0 1
    outer loop
      vertex 3 95 28
      vertex 77 95 28
      vertex 3 98 28
    endloop
  endfacet
  facet normal 0 0 1
    outer loop
      vertex 3 98 28
      vertex 77 95 28
      vertex 9 98 28
    endloop
  endfacet
  facet normal 0 0 1
    outer loop
      vertex 9 98 28
      vertex 77 95 28
      vertex 17 98 28
    endloop
  endfacet
  facet normal 0 0 -1
    outer loop
      vertex 42 95 3
      vertex 42 98 3
      vertex 44 98 3
    endloop
  endfacet
  facet normal 0 0 -1
    outer loop
      vertex 42 95 3
      vertex 44 98 3
      vertex 51 98 3
    endloop
  endfacet
  facet normal 0 0 -1
    outer loop
      vertex 42 95 3
      vertex 51 98 3
      vertex 51 95 3
    endloop
  endfacet
  facet normal 0 -1 0
    outer loop
      vertex 20 95 3
      vertex 29 95 3
      vertex 77 95 28
    endloop
  endfacet
  facet normal 0 -1 0
    outer loop
      vertex 29 95 3
      vertex 42 95 3
      vertex 77 95 28
    endloop
  endfacet
  facet normal 0 1 0
    outer loop
      vertex 44 98 3
      vertex 63 98 28
      vertex 51 98 3
    endloop
  endfacet
  facet normal 0 1 0
    outer loop
      vertex 44 98 3
      vertex 44 98 28
      vertex 63 98 28
    endloop
  endfacet
  facet normal 0 -1 0
    outer loop
      vertex 42 95 3
      vertex 51 95 3
      vertex 77 95 28
    endloop
  endfacet
  facet normal 0 1 0
    outer loop
      vertex 51 98 3
      vertex 63 98 28
      vertex 63 98 3
    endloop
  endfacet
  facet normal 0 0 1
    outer loop
      vertex 17 98 28
      vertex 77 95 28
      vertex 36 98 28
    endloop
  endfacet
  facet normal 0 0 1
    outer loop
      vertex 36 98 28
      vertex 77 95 28
      vertex 44 98 28
    endloop
  endfacet
  facet normal 0 -1 0
    outer loop
      vertex 51 95 3
      vertex 77 95 3
      vertex 77 95 28
    endloop
  endfacet
  facet normal 0 1 0
    outer loop
      vertex 71 98 3
      vertex 76 98 8
      vertex 77 98 3
    endloop
  endfacet
  facet normal 0 1 0
    outer loop
      vertex 77 98 3
      vertex 76 98 8
      vertex 77 98 8
    endloop
  endfacet
  facet normal 0 1 0
    outer loop
      vertex 71 98 3
      vertex 71 98 28
      vertex 76 98 8
    endloop
  endfacet
  facet normal 0 0 1
    outer loop
      vertex 44 98 28
      vertex 77 95 28
      vertex 63 98 28
    endloop
  endfacet
  facet normal 0 1 0
    outer loop
      vertex 71 98 28
      vertex 76 98 27
      vertex 76 98 8
    endloop
  endfacet
  facet normal 0 0 1
    outer loop
      vertex 63 98 28
      vertex 77 95 28
      vertex 71 98 28
    endloop
  endfacet
  facet normal 0 1 0
    outer loop
      vertex 71 98 28
      vertex 77 98 28
      vertex 76 98 27
    endloop
  endfacet
  facet normal 0 0 1
    outer loop
      vertex 71 98 28
      vertex 77 95 28
      vertex 77 98 28
    endloop
  endfacet
  facet normal 0 1 0
    outer loop
      vertex 77 98 28
      vertex 77 98 27
      vertex 76 98 27
    endloop
  endfacet
  facet normal 0 1 0
    outer loop
      vertex 3 12 8
      vertex 0 12 8
      vertex 3 12 27
    endloop
  endfacet
  facet normal 0 1 0
    outer loop
      vertex 0 12 8
      vertex 0 12 27
      vertex 3 12 27
    endloop
  endfacet
  facet normal 0 0 1
    outer loop
      vertex 0 28 8
      vertex 0 12 8
      vertex 3 12 8
    endloop
  endfacet
  facet normal 0 0 1
    outer loop
      vertex 3 12 8
      vertex 3 28 8
      vertex 0 28 8
    endloop
  endfacet
  facet normal 0 -1 0
    outer loop
      vertex 3 28 8
      vertex 0 28 27
      vertex 0 28 8
    endloop
  endfacet
  facet normal 0 -1 0
    outer loop
      vertex 0 28 27
      vertex 3 28 8
      vertex 3 28 27
    endloop
  endfacet
  facet normal 0 0 -1
    outer loop
      vertex 3 12 27
      vertex 0 12 27
      vertex 3 28 27
    endloop
  endfacet
  facet normal 0 0 -1
    outer loop
      vertex 0 12 27
      vertex 0 28 27
      vertex 3 28 27
    endloop
  endfacet
  facet normal 0 1 0
    outer loop
      vertex 3 40 27
      vertex 3 40 8
      vertex 0 40 8
    endloop
  endfacet
  facet normal 0 1 0
    outer loop
      vertex 0 40 8
      vertex 0 40 27
      vertex 3 40 27
    endloop
  endfacet
  facet normal 0 0 1
    outer loop
      vertex 0 56 8
      vertex 0 40 8
      vertex 3 40 8
    endloop
  endfacet
  facet normal 0 0 1
    outer loop
      vertex 3 40 8
      vertex 3 56 8
      vertex 0 56 8
    endloop
  endfacet
  facet normal 0 -1 0
    outer loop
      vertex 0 56 27
      vertex 0 56 8
      vertex 3 56 8
    endloop
  endfacet
  facet normal 0 -1 0
    outer loop
      vertex 3 56 8
      vertex 3 56 27
      vertex 0 56 27
    endloop
  endfacet
  facet normal 0 0 -1
    outer loop
      vertex 3 40 27
      vertex 0 40 27
      vertex 3 56 27
    endloop
  endfacet
  facet normal 0 0 -1
    outer loop
      vertex 0 40 27
      vertex 0 56 27
      vertex 3 56 27
    endloop
  endfacet
  facet normal 0 1 0
    outer loop
      vertex 3 68 27
      vertex 3 68 8
      vertex 0 68 8
    endloop
  endfacet
  facet normal 0 1 0
    outer loop
      vertex 0 68 8
      vertex 0 68 27
      vertex 3 68 27
    endloop
  endfacet
  facet normal 0 0 1
    outer loop
      vertex 0 84 8
      vertex 0 68 8
      vertex 3 68 8
    endloop
  endfacet
  facet normal 0 0 1
    outer loop
      vertex 3 68 8
      vertex 3 84 8
      vertex 0 84 8
    endloop
  endfacet
  facet normal 0 -1 0
    outer loop
      vertex 0 84 27
      vertex 0 84 8
      vertex 3 84 8
    endloop
  endfacet
  facet normal 0 -1 0
    outer loop
      vertex 3 84 8
      vertex 3 84 27
      vertex 0 84 27
    endloop
  endfacet
  facet normal 0 0 -1
    outer loop
      vertex 3 68 27
      vertex 0 68 27
      vertex 3 84 27
    endloop
  endfacet
  facet normal 0 0 -1
    outer loop
      vertex 0 68 27
      vertex 0 84 27
      vertex 3 84 27
    endloop
  endfacet
  facet normal 0 0 1
    outer loop
      vertex 4 96 8
      vertex 3 98 8
      vertex 0 96 8
    endloop
  endfacet
  facet normal 0 0 1
    outer loop
      vertex 4 96 8
      vertex 4 98 8
      vertex 3 98 8
    endloop
  endfacet
  facet normal 0 1 0
    outer loop
      vertex 4 96 8
      vertex 0 96 8
      vertex 4 96 27
    endloop
  endfacet
  facet normal -1 0 0
    outer loop
      vertex 4 96 8
      vertex 4 98 27
      vertex 4 98 8
    endloop
  endfacet
  facet normal 0 1 0
    outer loop
      vertex 4 96 27
      vertex 0 96 8
      vertex 0 96 27
    endloop
  endfacet
  facet normal -1 0 0
    outer loop
      vertex 4 96 8
      vertex 4 96 27
      vertex 4 98 27
    endloop
  endfacet
  facet normal 0 0 -1
    outer loop
      vertex 4 96 27
      vertex 0 96 27
      vertex 3 98 27
    endloop
  endfacet
  facet normal 0 0 -1
    outer loop
      vertex 4 96 27
      vertex 3 98 27
      vertex 4 98 27
    endloop
  endfacet
  facet normal 0 0 1
    outer loop
      vertex 3 98 8
      vertex 0 112 8
      vertex 0 96 8
    endloop
  endfacet
  facet normal 0 0 1
    outer loop
      vertex 0 112 8
      vertex 3 98 8
      vertex 3 112 8
    endloop
  endfacet
  facet normal 0 -1 0
    outer loop
      vertex 0 112 27
      vertex 0 112 8
      vertex 3 112 8
    endloop
  endfacet
  facet normal 0 -1 0
    outer loop
      vertex 0 112 27
      vertex 3 112 8
      vertex 3 112 27
    endloop
  endfacet
  facet normal 0 0 -1
    outer loop
      vertex 0 112 27
      vertex 3 112 27
      vertex 0 96 27
    endloop
  endfacet
  facet normal 0 0 -1
    outer loop
      vertex 3 98 27
      vertex 0 96 27
      vertex 3 112 27
    endloop
  endfacet
  facet normal 0 1 0
    outer loop
      vertex 3 124 8
      vertex 0 124 8
      vertex 3 124 27
    endloop
  endfacet
  facet normal 0 1 0
    outer loop
      vertex 0 124 8
      vertex 0 124 27
      vertex 3 124 27
    endloop
  endfacet
  facet normal 0 0 1
    outer loop
      vertex 0 124 8
      vertex 3 124 8
      vertex 0 140 8
    endloop
  endfacet
  facet normal 0 0 1
    outer loop
      vertex 0 140 8
      vertex 3 124 8
      vertex 3 140 8
    endloop
  endfacet
  facet normal 0 -1 0
    outer loop
      vertex 0 140 8
      vertex 3 140 8
      vertex 0 140 27
    endloop
  endfacet
  facet normal 0 -1 0
    outer loop
      vertex 0 140 27
      vertex 3 140 8
      vertex 3 140 27
    endloop
  endfacet
  facet normal 0 0 -1
    outer loop
      vertex 0 140 27
      vertex 3 140 27
      vertex 0 124 27
    endloop
  endfacet
  facet normal 0 0 -1
    outer loop
      vertex 0 124 27
      vertex 3 140 27
      vertex 3 124 27
    endloop
  endfacet
  facet normal 0 1 0
    outer loop
      vertex 3 152 27
      vertex 3 152 8
      vertex 0 152 8
    endloop
  endfacet
  facet normal 0 1 0
    outer loop
      vertex 0 152 8
      vertex 0 152 27
      vertex 3 152 27
    endloop
  endfacet
  facet normal 0 0 1
    outer loop
      vertex 0 168 8
      vertex 0 152 8
      vertex 3 152 8
    endloop
  endfacet
  facet normal 0 0 1
    outer loop
      vertex 0 168 8
      vertex 3 152 8
      vertex 3 168 8
    endloop
  endfacet
  facet normal 0 -1 0
    outer loop
      vertex 0 168 8
      vertex 3 168 8
      vertex 0 168 27
    endloop
  endfacet
  facet normal 0 -1 0
    outer loop
      vertex 3 168 8
      vertex 3 168 27
      vertex 0 168 27
    endloop
  endfacet
  facet normal 0 0 -1
    outer loop
      vertex 0 168 27
      vertex 3 168 27
      vertex 0 152 27
    endloop
  endfacet
  facet normal 0 0 -1
    outer loop
      vertex 0 152 27
      vertex 3 168 27
      vertex 3 152 27
    endloop
  endfacet
  facet normal 0 1 0
    outer loop
      vertex 80 12 8
      vertex 77 12 8
      vertex 80 12 27
    endloop
  endfacet
  facet normal 0 1 0
    outer loop
      vertex 77 12 8
      vertex 77 12 27
      vertex 80 12 27
    endloop
  endfacet
  facet normal 0 0 1
    outer loop
      vertex 77 28 8
      vertex 77 12 8
      vertex 80 12 8
    endloop
  endfacet
  facet normal 0 0 1
    outer loop
      vertex 80 12 8
      vertex 80 28 8
      vertex 77 28 8
    endloop
  endfacet
  facet normal 0 -1 0
    outer loop
      vertex 77 28 8
      vertex 80 28 8
      vertex 77 28 27
    endloop
  endfacet
  facet normal 0 -1 0
    outer loop
      vertex 77 28 27
      vertex 80 28 8
      vertex 80 28 27
    endloop
  endfacet
  facet normal 0 0 -1
    outer loop
      vertex 77 12 27
      vertex 80 28 27
      vertex 80 12 27
    endloop
  endfacet
  facet normal 0 0 -1
    outer loop
      vertex 77 12 27
      vertex 77 28 27
      vertex 80 28 27
    endloop
  endfacet
  facet normal 0 1 0
    outer loop
      vertex 80 40 27
      vertex 80 40 8
      vertex 77 40 8
    endloop
  endfacet
  facet normal 0 1 0
    outer loop
      vertex 77 40 8
      vertex 77 40 27
      vertex 80 40 27
    endloop
  endfacet
  facet normal 0 0 1
    outer loop
      vertex 77 56 8
      vertex 77 40 8
      vertex 80 40 8
    endloop
  endfacet
  facet normal 0 0 1
    outer loop
      vertex 80 40 8
      vertex 80 56 8
      vertex 77 56 8
    endloop
  endfacet
  facet normal 0 -1 0
    outer loop
      vertex 77 56 27
      vertex 77 56 8
      vertex 80 56 8
    endloop
  endfacet
  facet normal 0 -1 0
    outer loop
      vertex 80 56 8
      vertex 80 56 27
      vertex 77 56 27
    endloop
  endfacet
  facet normal 0 0 -1
    outer loop
      vertex 77 40 27
      vertex 80 56 27
      vertex 80 40 27
    endloop
  endfacet
  facet normal 0 0 -1
    outer loop
      vertex 77 40 27
      vertex 77 56 27
      vertex 80 56 27
    endloop
  endfacet
  facet normal 0 1 0
    outer loop
      vertex 80 68 27
      vertex 80 68 8
      vertex 77 68 8
    endloop
  endfacet
  facet normal 0 1 0
    outer loop
      vertex 77 68 8
      vertex 77 68 27
      vertex 80 68 27
    endloop
  endfacet
  facet normal 0 0 1
    outer loop
      vertex 77 84 8
      vertex 77 68 8
      vertex 80 68 8
    endloop
  endfacet
  facet normal 0 0 1
    outer loop
      vertex 80 68 8
      vertex 80 84 8
      vertex 77 84 8
    endloop
  endfacet
  facet normal 0 -1 0
    outer loop
      vertex 77 84 8
      vertex 80 84 8
      vertex 77 84 27
    endloop
  endfacet
  facet normal 0 -1 0
    outer loop
      vertex 80 84 8
      vertex 80 84 27
      vertex 77 84 27
    endloop
  endfacet
  facet normal 0 0 -1
    outer loop
      vertex 77 68 27
      vertex 80 84 27
      vertex 80 68 27
    endloop
  endfacet
  facet normal 0 0 -1
    outer loop
      vertex 77 68 27
      vertex 77 84 27
      vertex 80 84 27
    endloop
  endfacet
  facet normal 0 0 1
    outer loop
      vertex 76 96 8
      vertex 77 98 8
      vertex 76 98 8
    endloop
  endfacet
  facet normal 0 0 1
    outer loop
      vertex 76 96 8
      vertex 80 96 8
      vertex 77 98 8
    endloop
  endfacet
  facet normal 1 0 0
    outer loop
      vertex 76 96 8
      vertex 76 98 8
      vertex 76 96 27
    endloop
  endfacet
  facet normal 0 1 0
    outer loop
      vertex 76 96 8
      vertex 80 96 27
      vertex 80 96 8
    endloop
  endfacet
  facet normal 1 0 0
    outer loop
      vertex 76 96 27
      vertex 76 98 8
      vertex 76 98 27
    endloop
  endfacet
  facet normal 0 1 0
    outer loop
      vertex 76 96 8
      vertex 76 96 27
      vertex 80 96 27
    endloop
  endfacet
  facet normal 0 0 -1
    outer loop
      vertex 76 96 27
      vertex 76 98 27
      vertex 77 98 27
    endloop
  endfacet
  facet normal 0 0 -1
    outer loop
      vertex 76 96 27
      vertex 77 98 27
      vertex 80 96 27
    endloop
  endfacet
  facet normal 0 0 1
    outer loop
      vertex 77 98 8
      vertex 80 96 8
      vertex 77 112 8
    endloop
  endfacet
  facet normal 0 0 1
    outer loop
      vertex 80 112 8
      vertex 77 112 8
      vertex 80 96 8
    endloop
  endfacet
  facet normal 0 -1 0
    outer loop
      vertex 77 112 8
      vertex 80 112 8
      vertex 77 112 27
    endloop
  endfacet
  facet normal 0 -1 0
    outer loop
      vertex 77 112 27
      vertex 80 112 8
      vertex 80 112 27
    endloop
  endfacet
  facet normal 0 0 -1
    outer loop
      vertex 77 98 27
      vertex 80 112 27
      vertex 80 96 27
    endloop
  endfacet
  facet normal 0 0 -1
    outer loop
      vertex 80 112 27
      vertex 77 98 27
      vertex 77 112 27
    endloop
  endfacet
  facet normal 0 1 0
    outer loop
      vertex 80 124 27
      vertex 80 124 8
      vertex 77 124 8
    endloop
  endfacet
  facet normal 0 1 0
    outer loop
      vertex 77 124 8
      vertex 77 124 27
      vertex 80 124 27
    endloop
  endfacet
  facet normal 0 0 1
    outer loop
      vertex 80 124 8
      vertex 77 140 8
      vertex 77 124 8
    endloop
  endfacet
  facet normal 0 0 1
    outer loop
      vertex 80 140 8
      vertex 77 140 8
      vertex 80 124 8
    endloop
  endfacet
  facet normal 0 -1 0
    outer loop
      vertex 80 140 8
      vertex 77 140 27
      vertex 77 140 8
    endloop
  endfacet
  facet normal 0 -1 0
    outer loop
      vertex 80 140 8
      vertex 80 140 27
      vertex 77 140 27
    endloop
  endfacet
  facet normal 0 0 -1
    outer loop
      vertex 80 140 27
      vertex 77 124 27
      vertex 77 140 27
    endloop
  endfacet
  facet normal 0 0 -1
    outer loop
      vertex 80 124 27
      vertex 77 124 27
      vertex 80 140 27
    endloop
  endfacet
  facet normal 0 1 0
    outer loop
      vertex 80 152 27
      vertex 80 152 8
      vertex 77 152 8
    endloop
  endfacet
  facet normal 0 1 0
    outer loop
      vertex 77 152 8
      vertex 77 152 27
      vertex 80 152 27
    endloop
  endfacet
  facet normal 0 0 1
    outer loop
      vertex 80 152 8
      vertex 77 168 8
      vertex 77 152 8
    endloop
  endfacet
  facet normal 0 0 1
    outer loop
      vertex 77 168 8
      vertex 80 152 8
      vertex 80 168 8
    endloop
  endfacet
  facet normal 0 -1 0
    outer loop
      vertex 77 168 27
      vertex 77 168 8
      vertex 80 168 8
    endloop
  endfacet
  facet normal 0 -1 0
    outer loop
      vertex 80 168 8
      vertex 80 168 27
      vertex 77 168 27
    endloop
  endfacet
  facet normal 0 0 -1
    outer loop
      vertex 80 168 27
      vertex 77 152 27
      vertex 77 168 27
    endloop
  endfacet
  facet normal 0 0 -1
    outer loop
      vertex 80 152 27
      vertex 77 152 27
      vertex 80 168 27
    endloop
  endfacet
  facet normal 0 0 1
    outer loop
      vertex 22 3 9
      vertex 22 -3 9
      vertex 58 3 9
    endloop
  endfacet
  facet normal 1 0 0
    outer loop
      vertex 22 -3 62
      vertex 22 -3 9
      vertex 22 3 9
    endloop
  endfacet
  facet normal 1 0 0
    outer loop
      vertex 22 3 9
      vertex 22 3 62
      vertex 22 -3 62
    endloop
  endfacet
  facet normal 0 0 -1
    outer loop
      vertex 22 -3 62
      vertex 22 3 62
      vertex 58 -3 62
    endloop
  endfacet
  facet normal 0 0 1
    outer loop
      vertex 22 -3 9
      vertex 58 -3 9
      vertex 58 3 9
    endloop
  endfacet
  facet normal -1 0 0
    outer loop
      vertex 58 -3 9
      vertex 58 3 62
      vertex 58 3 9
    endloop
  endfacet
  facet normal 0 0 -1
    outer loop
      vertex 58 -3 62
      vertex 22 3 62
      vertex 58 3 62
    endloop
  endfacet
  facet normal -1 0 0
    outer loop
      vertex 58 -3 9
      vertex 58 -3 62
      vertex 58 3 62
    endloop
  endfacet
  facet normal 0 0 1
    outer loop
      vertex 22 203 9
      vertex 22 197 9
      vertex 58 203 9
    endloop
  endfacet
  facet normal 1 0 0
    outer loop
      vertex 22 197 9
      vertex 22 203 9
      vertex 22 197 62
    endloop
  endfacet
  facet normal 1 0 0
    outer loop
      vertex 22 203 9
      vertex 22 203 62
      vertex 22 197 62
    endloop
  endfacet
  facet normal 0 0 -1
    outer loop
      vertex 22 197 62
      vertex 22 203 62
      vertex 58 197 62
    endloop
  endfacet
  facet normal 0 0 1
    outer loop
      vertex 22 197 9
      vertex 58 197 9
      vertex 58 203 9
    endloop
  endfacet
  facet normal -1 0 0
    outer loop
      vertex 58 203 62
      vertex 58 203 9
      vertex 58 197 9
    endloop
  endfacet
  facet normal 0 0 -1
    outer loop
      vertex 58 197 62
      vertex 22 203 62
      vertex 58 203 62
    endloop
  endfacet
  facet normal -1 0 0
    outer loop
      vertex 58 197 9
      vertex 58 197 62
      vertex 58 203 62
    endloop
  endfacet
  facet normal 0 1 0
    outer loop
      vertex 36.25 38 2
      vertex 36.25 38 3
      vertex 39.75 38 2
    endloop
  endfacet
  facet normal 0 1 0
    outer loop
      vertex 39.75 38 2
      vertex 36.25 38 3
      vertex 39.75 38 3
    endloop
  endfacet
  facet normal 1 0 0
    outer loop
      vertex 36.25 38 2
      vertex 36.25 58 3
      vertex 36.25 38 3
    endloop
  endfacet
  facet normal 1 0 0
    outer loop
      vertex 36.25 38 2
      vertex 36.25 58 2
      vertex 36.25 58 3
    endloop
  endfacet
  facet normal 0 0 1
    outer loop
      vertex 36.25 38 2
      vertex 39.75 58 2
      vertex 36.25 58 2
    endloop
  endfacet
  facet normal 0 0 1
    outer loop
      vertex 36.25 38 2
      vertex 39.75 38 2
      vertex 39.75 58 2
    endloop
  endfacet
  facet normal -1 0 0
    outer loop
      vertex 39.75 38 2
      vertex 39.75 38 3
      vertex 39.75 58 2
    endloop
  endfacet
  facet normal -1 0 0
    outer loop
      vertex 39.75 58 2
      vertex 39.75 38 3
      vertex 39.75 58 3
    endloop
  endfacet
  facet normal 0 -1 0
    outer loop
      vertex 36.25 58 2
      vertex 39.75 58 3
      vertex 36.25 58 3
    endloop
  endfacet
  facet normal 0 -1 0
    outer loop
      vertex 36.25 58 2
      vertex 39.75 58 2
      vertex 39.75 58 3
    endloop
  endfacet
endsolid OpenSCAD_Model
