solid OpenSCAD_Model
  facet normal -1 0 0
    outer loop
      vertex -60 116 48.5
      vertex -60 116 48.49
      vertex -60 113 48.5
    endloop
  endfacet
  facet normal -1 0 0
    outer loop
      vertex -60 116 48.49
      vertex -60 110 45.49
      vertex -60 113 48.5
    endloop
  endfacet
  facet normal -1 0 0
    outer loop
      vertex -60 116 48.49
      vertex -60 113 45.49
      vertex -60 110 45.49
    endloop
  endfacet
  facet normal -1 0 0
    outer loop
      vertex -60 113 48.5
      vertex -60 110 45.49
      vertex -60 110 45.5
    endloop
  endfacet
  facet normal 0 1 0
    outer loop
      vertex -60 116 48.5
      vertex 60 116 48.5
      vertex -60 116 48.49
    endloop
  endfacet
  facet normal 0 0 1
    outer loop
      vertex -60 116 48.5
      vertex -60 113 48.5
      vertex 60 116 48.5
    endloop
  endfacet
  facet normal 0 -0.7071067811865475 0.7071067811865475
    outer loop
      vertex -60 113 48.5
      vertex -60 110 45.5
      vertex 60 110 45.5
    endloop
  endfacet
  facet normal 0 0 -1
    outer loop
      vertex -60 113 45.49
      vertex 60 113 45.49
      vertex -60 110 45.49
    endloop
  endfacet
  facet normal 0 -1 0
    outer loop
      vertex -60 110 45.5
      vertex -60 110 45.49
      vertex 60 110 45.5
    endloop
  endfacet
  facet normal 0 1 0
    outer loop
      vertex -60 116 48.49
      vertex 60 116 48.5
      vertex 60 116 48.49
    endloop
  endfacet
  facet normal 0 0 1
    outer loop
      vertex -60 113 48.5
      vertex 60 113 48.5
      vertex 60 116 48.5
    endloop
  endfacet
  facet normal 0 -0.7071067811865475 0.7071067811865475
    outer loop
      vertex -60 113 48.5
      vertex 60 110 45.5
      vertex 60 113 48.5
    endloop
  endfacet
  facet normal 0 0 -1
    outer loop
      vertex -60 110 45.49
      vertex 60 113 45.49
      vertex 60 110 45.49
    endloop
  endfacet
  facet normal 0 -1 0
    outer loop
      vertex -60 110 45.49
      vertex 60 110 45.49
      vertex 60 110 45.5
    endloop
  endfacet
  facet normal 1 0 0
    outer loop
      vertex 60 116 48.5
      vertex 60 113 45.49
      vertex 60 116 48.49
    endloop
  endfacet
  facet normal 1 0 0
    outer loop
      vertex 60 116 48.5
      vertex 60 113 48.5
      vertex 60 110 45.49
    endloop
  endfacet
  facet normal 1 0 0
    outer loop
      vertex 60 116 48.5
      vertex 60 110 45.49
      vertex 60 113 45.49
    endloop
  endfacet
  facet normal 1 0 0
    outer loop
      vertex 60 113 48.5
      vertex 60 110 45.5
      vertex 60 110 45.49
    endloop
  endfacet
  facet normal -1 0 0
    outer loop
      vertex -60 116 48.49
      vertex -60 113 3.5
      vertex -60 113 45.49
    endloop
  endfacet
  facet normal 0 1 0
    outer loop
      vertex -60 116 48.49
      vertex 60 116 48.49
      vertex -60 116 10.5
    endloop
  endfacet
  facet normal -1 0 0
    outer loop
      vertex -60 116 48.49
      vertex -60 116 10.5
      vertex -60 114 10.5
    endloop
  endfacet
  facet normal -1 0 0
    outer loop
      vertex -60 116 48.49
      vertex -60 114 10.5
      vertex -60 113 3.5
    endloop
  endfacet
  facet normal -1 0 0
    outer loop
      vertex -60 114 10.5
      vertex -60 114 3.5
      vertex -60 113 3.5
    endloop
  endfacet
  facet normal 0 -1 0
    outer loop
      vertex -60 113 45.49
      vertex -60 113 3.5
      vertex 60 113 3.5
    endloop
  endfacet
  facet normal 0 -1 0
    outer loop
      vertex -60 113 45.49
      vertex 60 113 3.5
      vertex 60 113 45.49
    endloop
  endfacet
  facet normal 1 0 0
    outer loop
      vertex 60 116 48.49
      vertex 60 113 45.49
      vertex 60 116 10.5
    endloop
  endfacet
  facet normal 0 1 0
    outer loop
      vertex -60 116 10.5
      vertex 60 116 48.49
      vertex 60 116 10.5
    endloop
  endfacet
  facet normal 1 0 0
    outer loop
      vertex 60 113 45.49
      vertex 60 116 7.134506635891526
      vertex 60 116 10.5
    endloop
  endfacet
  facet normal 1 0 0
    outer loop
      vertex 60 113 45.49
      vertex 60 115.71868720696584 7.437441393168115
      vertex 60 116 7.134506635891526
    endloop
  endfacet
  facet normal 1 0 0
    outer loop
      vertex 60 113 45.49
      vertex 60 113 3.5
      vertex 60 115.71868720696584 7.437441393168115
    endloop
  endfacet
  facet normal 1 0 0
    outer loop
      vertex 60 115.71868720696584 7.437441393168115
      vertex 60 113 3.5
      vertex 60 116 3.5
    endloop
  endfacet
  facet normal -1 0 0
    outer loop
      vertex -60 54 45.5
      vertex -60 54 45.49
      vertex -60 51 48.5
    endloop
  endfacet
  facet normal -1 0 0
    outer loop
      vertex -60 54 45.49
      vertex -60 48 48.5
      vertex -60 51 48.5
    endloop
  endfacet
  facet normal -1 0 0
    outer loop
      vertex -60 54 45.49
      vertex -60 51 45.49
      vertex -60 48 48.5
    endloop
  endfacet
  facet normal -1 0 0
    outer loop
      vertex -60 51 45.49
      vertex -60 48 48.49
      vertex -60 48 48.5
    endloop
  endfacet
  facet normal 0 0.7071067811865475 0.7071067811865475
    outer loop
      vertex -60 54 45.5
      vertex -60 51 48.5
      vertex 60 51 48.5
    endloop
  endfacet
  facet normal 0 1 0
    outer loop
      vertex -60 54 45.5
      vertex 60 54 45.49
      vertex -60 54 45.49
    endloop
  endfacet
  facet normal 0 0 -1
    outer loop
      vertex -60 54 45.49
      vertex 60 54 45.49
      vertex -60 51 45.49
    endloop
  endfacet
  facet normal 0 0 1
    outer loop
      vertex -60 51 48.5
      vertex -60 48 48.5
      vertex 60 51 48.5
    endloop
  endfacet
  facet normal 0 -1 0
    outer loop
      vertex -60 48 48.5
      vertex -60 48 48.49
      vertex 60 48 48.49
    endloop
  endfacet
  facet normal 0 1 0
    outer loop
      vertex -60 54 45.5
      vertex 60 54 45.5
      vertex 60 54 45.49
    endloop
  endfacet
  facet normal 0 0.7071067811865475 0.7071067811865475
    outer loop
      vertex -60 54 45.5
      vertex 60 51 48.5
      vertex 60 54 45.5
    endloop
  endfacet
  facet normal 0 0 -1
    outer loop
      vertex -60 51 45.49
      vertex 60 54 45.49
      vertex 60 51 45.49
    endloop
  endfacet
  facet normal 0 0 1
    outer loop
      vertex -60 48 48.5
      vertex 60 48 48.5
      vertex 60 51 48.5
    endloop
  endfacet
  facet normal 0 -1 0
    outer loop
      vertex -60 48 48.5
      vertex 60 48 48.49
      vertex 60 48 48.5
    endloop
  endfacet
  facet normal 1 0 0
    outer loop
      vertex 60 54 45.5
      vertex 60 51 48.5
      vertex 60 54 45.49
    endloop
  endfacet
  facet normal 1 0 0
    outer loop
      vertex 60 54 45.49
      vertex 60 51 48.5
      vertex 60 48 48.49
    endloop
  endfacet
  facet normal 1 0 0
    outer loop
      vertex 60 54 45.49
      vertex 60 48 48.49
      vertex 60 51 45.49
    endloop
  endfacet
  facet normal 1 0 0
    outer loop
      vertex 60 51 48.5
      vertex 60 48 48.5
      vertex 60 48 48.49
    endloop
  endfacet
  facet normal -1 0 0
    outer loop
      vertex -60 51 45.49
      vertex -60 48 10.5
      vertex -60 48 48.49
    endloop
  endfacet
  facet normal 0 1 0
    outer loop
      vertex -60 51 45.49
      vertex 60 51 45.49
      vertex -60 51 3.5
    endloop
  endfacet
  facet normal -1 0 0
    outer loop
      vertex -60 51 45.49
      vertex -60 50 10.5
      vertex -60 48 10.5
    endloop
  endfacet
  facet normal -1 0 0
    outer loop
      vertex -60 51 45.49
      vertex -60 51 3.5
      vertex -60 50 10.5
    endloop
  endfacet
  facet normal -1 0 0
    outer loop
      vertex -60 50 10.5
      vertex -60 51 3.5
      vertex -60 50 3.5
    endloop
  endfacet
  facet normal 0 -1 0
    outer loop
      vertex -60 48 48.49
      vertex -60 48 10.5
      vertex 60 48 10.5
    endloop
  endfacet
  facet normal 0 -1 0
    outer loop
      vertex -60 48 48.49
      vertex 60 48 10.5
      vertex 60 48 48.49
    endloop
  endfacet
  facet normal 1 0 0
    outer loop
      vertex 60 51 45.49
      vertex 60 48 48.49
      vertex 60 51 3.5
    endloop
  endfacet
  facet normal 0 1 0
    outer loop
      vertex -60 51 3.5
      vertex 60 51 45.49
      vertex 60 51 3.5
    endloop
  endfacet
  facet normal 1 0 0
    outer loop
      vertex 60 48 48.49
      vertex 60 50 10.5
      vertex 60 51 3.5
    endloop
  endfacet
  facet normal 1 0 0
    outer loop
      vertex 60 48 48.49
      vertex 60 48.63330740164481 10.5
      vertex 60 50 10.5
    endloop
  endfacet
  facet normal 1 0 0
    outer loop
      vertex 60 48 48.49
      vertex 60 48 10.5
      vertex 60 48.63330740164481 10.5
    endloop
  endfacet
  facet normal 1 0 0
    outer loop
      vertex 60 50 10.5
      vertex 60 50 5.5191703532730685
      vertex 60 51 3.5
    endloop
  endfacet
  facet normal 1 0 0
    outer loop
      vertex 60 48.63330740164481 10.5
      vertex 60 48 10.5
      vertex 60 48 5.923004423927679
    endloop
  endfacet
  facet normal 1 0 0
    outer loop
      vertex 60 48.63330740164481 10.5
      vertex 60 48 5.923004423927679
      vertex 60 50 5.5191703532730685
    endloop
  endfacet
  facet normal 1 0 0
    outer loop
      vertex 60 50 5.5191703532730685
      vertex 60 50 3.5
      vertex 60 51 3.5
    endloop
  endfacet
  facet normal 1 0 0
    outer loop
      vertex 60 50 5.5191703532730685
      vertex 60 48 5.923004423927679
      vertex 60 50 3.5
    endloop
  endfacet
  facet normal 0 0 -1
    outer loop
      vertex -60 119 0
      vertex -48.62916512787342 85.25 0
      vertex -49.00521696358919 84.4874423071742 0
    endloop
  endfacet
  facet normal 0 0 1
    outer loop
      vertex -60 113 3.5
      vertex -49.00521696358919 84.4874423071742 3.5
      vertex -48.62916512787342 85.25 3.5
    endloop
  endfacet
  facet normal 0 0 1
    outer loop
      vertex -60 113 3.5
      vertex -49.27851787209511 83.68232379108667 3.5
      vertex -49.00521696358919 84.4874423071742 3.5
    endloop
  endfacet
  facet normal 0 0 1
    outer loop
      vertex -60 113 3.5
      vertex -49.44439160078764 82.84842024743557 3.5
      vertex -49.27851787209511 83.68232379108667 3.5
    endloop
  endfacet
  facet normal 0 0 1
    outer loop
      vertex -60 113 3.5
      vertex -49.5 82 3.5
      vertex -49.44439160078764 82.84842024743557 3.5
    endloop
  endfacet
  facet normal -1 0 0
    outer loop
      vertex -60 119 3.5
      vertex -60 119 0
      vertex -60 45 0
    endloop
  endfacet
  facet normal -1 0 0
    outer loop
      vertex -60 119 3.5
      vertex -60 45 0
      vertex -60 114 3.5
    endloop
  endfacet
  facet normal 0 0 -1
    outer loop
      vertex -60 119 0
      vertex -49.00521696358919 84.4874423071742 0
      vertex -49.27851787209511 83.68232379108667 0
    endloop
  endfacet
  facet normal 0 0 -1
    outer loop
      vertex -60 119 0
      vertex -49.27851787209511 83.68232379108667 0
      vertex -49.44439160078764 82.84842024743557 0
    endloop
  endfacet
  facet normal 0 0 -1
    outer loop
      vertex -60 119 0
      vertex -49.44439160078764 82.84842024743557 0
      vertex -49.5 82 0
    endloop
  endfacet
  facet normal 0 0 -1
    outer loop
      vertex -60 119 0
      vertex -49.5 82 0
      vertex -49.44439160078764 81.15157975256443 0
    endloop
  endfacet
  facet normal 0 0 -1
    outer loop
      vertex -60 119 0
      vertex -49.44439160078764 81.15157975256443 0
      vertex -49.27851787209511 80.31767620891333 0
    endloop
  endfacet
  facet normal 0 0 1
    outer loop
      vertex -60 113 3.5
      vertex -46.95694928616285 87.15679670870304 3.5
      vertex -46.25 87.62916512787342 3.5
    endloop
  endfacet
  facet normal 0 0 1
    outer loop
      vertex -60 113 3.5
      vertex -46.25 87.62916512787342 3.5
      vertex -45.487442307174206 88.00521696358919 3.5
    endloop
  endfacet
  facet normal 0 0 1
    outer loop
      vertex -60 113 3.5
      vertex -45.487442307174206 88.00521696358919 3.5
      vertex -44.682323791086674 88.27851787209511 3.5
    endloop
  endfacet
  facet normal 0 0 1
    outer loop
      vertex -60 113 3.5
      vertex -44.682323791086674 88.27851787209511 3.5
      vertex -43.84842024743557 88.44439160078764 3.5
    endloop
  endfacet
  facet normal 0 0 -1
    outer loop
      vertex -60 119 0
      vertex -45.487442307174206 88.00521696358919 0
      vertex -46.25 87.62916512787342 0
    endloop
  endfacet
  facet normal 0 0 -1
    outer loop
      vertex -60 119 0
      vertex -44.682323791086674 88.27851787209511 0
      vertex -45.487442307174206 88.00521696358919 0
    endloop
  endfacet
  facet normal 0 0 -1
    outer loop
      vertex -60 119 0
      vertex -43.84842024743557 88.44439160078764 0
      vertex -44.682323791086674 88.27851787209511 0
    endloop
  endfacet
  facet normal 0 0 -1
    outer loop
      vertex -60 119 0
      vertex -43 88.5 0
      vertex -43.84842024743557 88.44439160078764 0
    endloop
  endfacet
  facet normal 0 0 -1
    outer loop
      vertex -60 119 0
      vertex -47.596194081008434 86.59619408100843 0
      vertex -48.15679670870304 85.95694928616285 0
    endloop
  endfacet
  facet normal 0 0 -1
    outer loop
      vertex -60 119 0
      vertex -46.25 87.62916512787342 0
      vertex -46.95694928616285 87.15679670870304 0
    endloop
  endfacet
  facet normal 0 0 -1
    outer loop
      vertex -60 119 0
      vertex -46.95694928616285 87.15679670870304 0
      vertex -47.596194081008434 86.59619408100843 0
    endloop
  endfacet
  facet normal 0 0 -1
    outer loop
      vertex -60 119 0
      vertex -48.15679670870304 85.95694928616285 0
      vertex -48.62916512787342 85.25 0
    endloop
  endfacet
  facet normal 0 0 -1
    outer loop
      vertex -60 119 0
      vertex -42.15157975256443 88.44439160078764 0
      vertex -43 88.5 0
    endloop
  endfacet
  facet normal 0 0 -1
    outer loop
      vertex -60 119 0
      vertex -41.317676208913326 88.27851787209511 0
      vertex -42.15157975256443 88.44439160078764 0
    endloop
  endfacet
  facet normal 0 0 -1
    outer loop
      vertex -60 119 0
      vertex -40.512557692825794 88.00521696358919 0
      vertex -41.317676208913326 88.27851787209511 0
    endloop
  endfacet
  facet normal 0 0 -1
    outer loop
      vertex -60 119 0
      vertex -39.75 87.62916512787342 0
      vertex -40.512557692825794 88.00521696358919 0
    endloop
  endfacet
  facet normal 0 0 -1
    outer loop
      vertex -60 119 0
      vertex -39.04305071383715 87.15679670870304 0
      vertex -39.75 87.62916512787342 0
    endloop
  endfacet
  facet normal 0 0 -1
    outer loop
      vertex -60 119 0
      vertex -38.403805918991566 86.59619408100843 0
      vertex -39.04305071383715 87.15679670870304 0
    endloop
  endfacet
  facet normal 0 0 -1
    outer loop
      vertex -60 119 0
      vertex -37.84320329129696 85.95694928616285 0
      vertex -38.403805918991566 86.59619408100843 0
    endloop
  endfacet
  facet normal 0 0 1
    outer loop
      vertex -60 113 3.5
      vertex -48.62916512787342 85.25 3.5
      vertex -48.15679670870304 85.95694928616285 3.5
    endloop
  endfacet
  facet normal 0 0 1
    outer loop
      vertex -60 113 3.5
      vertex -48.15679670870304 85.95694928616285 3.5
      vertex -47.596194081008434 86.59619408100843 3.5
    endloop
  endfacet
  facet normal 0 0 1
    outer loop
      vertex -60 113 3.5
      vertex -47.596194081008434 86.59619408100843 3.5
      vertex -46.95694928616285 87.15679670870304 3.5
    endloop
  endfacet
  facet normal -1 0 0
    outer loop
      vertex -60 114 3.5
      vertex -60 45 0
      vertex -60 113 3.5
    endloop
  endfacet
  facet normal 0 0 -1
    outer loop
      vertex -60 119 0
      vertex -27 85.75 0
      vertex -37.84320329129696 85.95694928616285 0
    endloop
  endfacet
  facet normal 0 0 -1
    outer loop
      vertex -37.84320329129696 85.95694928616285 0
      vertex -27 85.75 0
      vertex -37.70492419600487 85.75 0
    endloop
  endfacet
  facet normal 0 1 0
    outer loop
      vertex -60 119 3.5
      vertex 60 119 0
      vertex -60 119 0
    endloop
  endfacet
  facet normal 0 0 -1
    outer loop
      vertex -60 119 0
      vertex 60 119 0
      vertex -27 85.75 0
    endloop
  endfacet
  facet normal 0 0 1
    outer loop
      vertex -60 113 3.5
      vertex -43.84842024743557 88.44439160078764 3.5
      vertex 60 113 3.5
    endloop
  endfacet
  facet normal 0 0 1
    outer loop
      vertex 60 113 3.5
      vertex -43.84842024743557 88.44439160078764 3.5
      vertex -43 88.5 3.5
    endloop
  endfacet
  facet normal 0 0 1
    outer loop
      vertex 60 113 3.5
      vertex -43 88.5 3.5
      vertex -42.15157975256443 88.44439160078764 3.5
    endloop
  endfacet
  facet normal 0 0 1
    outer loop
      vertex 60 113 3.5
      vertex -42.15157975256443 88.44439160078764 3.5
      vertex -41.317676208913326 88.27851787209511 3.5
    endloop
  endfacet
  facet normal 0 0 1
    outer loop
      vertex 60 113 3.5
      vertex -41.317676208913326 88.27851787209511 3.5
      vertex -40.512557692825794 88.00521696358919 3.5
    endloop
  endfacet
  facet normal 0 0 1
    outer loop
      vertex 60 113 3.5
      vertex -40.512557692825794 88.00521696358919 3.5
      vertex -39.75 87.62916512787342 3.5
    endloop
  endfacet
  facet normal 0 0 1
    outer loop
      vertex 60 113 3.5
      vertex -39.75 87.62916512787342 3.5
      vertex -39.04305071383715 87.15679670870304 3.5
    endloop
  endfacet
  facet normal 0 0 1
    outer loop
      vertex 60 113 3.5
      vertex -39.04305071383715 87.15679670870304 3.5
      vertex -38.403805918991566 86.59619408100843 3.5
    endloop
  endfacet
  facet normal 0 0 1
    outer loop
      vertex 60 113 3.5
      vertex -38.403805918991566 86.59619408100843 3.5
      vertex -37.84320329129696 85.95694928616285 3.5
    endloop
  endfacet
  facet normal 0 0 1
    outer loop
      vertex 60 113 3.5
      vertex -37.84320329129696 85.95694928616285 3.5
      vertex -37.70492419600487 85.75 3.5
    endloop
  endfacet
  facet normal 0 0 1
    outer loop
      vertex 60 113 3.5
      vertex -37.70492419600487 85.75 3.5
      vertex -27 85.75 3.5
    endloop
  endfacet
  facet normal 0 0 1
    outer loop
      vertex -60 113 3.5
      vertex -60 51 3.5
      vertex -49.5 82 3.5
    endloop
  endfacet
  facet normal 0 0 -1
    outer loop
      vertex -60 119 0
      vertex -49.27851787209511 80.31767620891333 0
      vertex -60 45 0
    endloop
  endfacet
  facet normal 0 0 1
    outer loop
      vertex -60 51 3.5
      vertex -49.44439160078764 81.15157975256443 3.5
      vertex -49.5 82 3.5
    endloop
  endfacet
  facet normal 0 0 1
    outer loop
      vertex -60 51 3.5
      vertex -49.27851787209511 80.31767620891333 3.5
      vertex -49.44439160078764 81.15157975256443 3.5
    endloop
  endfacet
  facet normal 0 0 1
    outer loop
      vertex -60 51 3.5
      vertex -49.00521696358919 79.5125576928258 3.5
      vertex -49.27851787209511 80.31767620891333 3.5
    endloop
  endfacet
  facet normal 0 0 1
    outer loop
      vertex -60 51 3.5
      vertex -48.62916512787342 78.75 3.5
      vertex -49.00521696358919 79.5125576928258 3.5
    endloop
  endfacet
  facet normal -1 0 0
    outer loop
      vertex -60 113 3.5
      vertex -60 45 0
      vertex -60 51 3.5
    endloop
  endfacet
  facet normal 0 0 -1
    outer loop
      vertex -60 45 0
      vertex -49.27851787209511 80.31767620891333 0
      vertex -49.00521696358919 79.5125576928258 0
    endloop
  endfacet
  facet normal 0 0 -1
    outer loop
      vertex -60 45 0
      vertex -49.00521696358919 79.5125576928258 0
      vertex -48.62916512787342 78.75 0
    endloop
  endfacet
  facet normal 0 0 1
    outer loop
      vertex -60 51 3.5
      vertex -48.15679670870304 78.04305071383715 3.5
      vertex -48.62916512787342 78.75 3.5
    endloop
  endfacet
  facet normal 0 0 1
    outer loop
      vertex -60 51 3.5
      vertex -47.596194081008434 77.40380591899157 3.5
      vertex -48.15679670870304 78.04305071383715 3.5
    endloop
  endfacet
  facet normal 0 0 1
    outer loop
      vertex -60 51 3.5
      vertex -46.95694928616285 76.84320329129696 3.5
      vertex -47.596194081008434 77.40380591899157 3.5
    endloop
  endfacet
  facet normal 0 0 1
    outer loop
      vertex -60 51 3.5
      vertex -37.84320329129696 78.04305071383715 3.5
      vertex -38.403805918991566 77.40380591899157 3.5
    endloop
  endfacet
  facet normal 0 0 1
    outer loop
      vertex -60 51 3.5
      vertex -38.403805918991566 77.40380591899157 3.5
      vertex -39.04305071383715 76.84320329129696 3.5
    endloop
  endfacet
  facet normal 0 0 1
    outer loop
      vertex -60 51 3.5
      vertex -46.25 76.37083487212658 3.5
      vertex -46.95694928616285 76.84320329129696 3.5
    endloop
  endfacet
  facet normal 0 0 1
    outer loop
      vertex -60 51 3.5
      vertex -45.487442307174206 75.99478303641081 3.5
      vertex -46.25 76.37083487212658 3.5
    endloop
  endfacet
  facet normal 0 0 1
    outer loop
      vertex -60 51 3.5
      vertex -44.682323791086674 75.72148212790489 3.5
      vertex -45.487442307174206 75.99478303641081 3.5
    endloop
  endfacet
  facet normal 0 0 1
    outer loop
      vertex -60 51 3.5
      vertex -43.84842024743557 75.55560839921236 3.5
      vertex -44.682323791086674 75.72148212790489 3.5
    endloop
  endfacet
  facet normal 0 0 1
    outer loop
      vertex -60 51 3.5
      vertex -43 75.5 3.5
      vertex -43.84842024743557 75.55560839921236 3.5
    endloop
  endfacet
  facet normal 0 0 1
    outer loop
      vertex -60 51 3.5
      vertex -42.15157975256443 75.55560839921236 3.5
      vertex -43 75.5 3.5
    endloop
  endfacet
  facet normal 0 0 1
    outer loop
      vertex -60 51 3.5
      vertex -41.317676208913326 75.72148212790489 3.5
      vertex -42.15157975256443 75.55560839921236 3.5
    endloop
  endfacet
  facet normal 0 0 1
    outer loop
      vertex -60 51 3.5
      vertex -40.512557692825794 75.99478303641081 3.5
      vertex -41.317676208913326 75.72148212790489 3.5
    endloop
  endfacet
  facet normal 0 0 1
    outer loop
      vertex -60 51 3.5
      vertex -39.75 76.37083487212658 3.5
      vertex -40.512557692825794 75.99478303641081 3.5
    endloop
  endfacet
  facet normal 0 0 1
    outer loop
      vertex -60 51 3.5
      vertex -39.04305071383715 76.84320329129696 3.5
      vertex -39.75 76.37083487212658 3.5
    endloop
  endfacet
  facet normal 0 0 -1
    outer loop
      vertex -60 45 0
      vertex -48.62916512787342 78.75 0
      vertex -48.15679670870304 78.04305071383715 0
    endloop
  endfacet
  facet normal 0 0 -1
    outer loop
      vertex -60 45 0
      vertex -48.15679670870304 78.04305071383715 0
      vertex -47.596194081008434 77.40380591899157 0
    endloop
  endfacet
  facet normal 0 0 -1
    outer loop
      vertex -60 45 0
      vertex -47.596194081008434 77.40380591899157 0
      vertex -46.95694928616285 76.84320329129696 0
    endloop
  endfacet
  facet normal 0 0 -1
    outer loop
      vertex -60 45 0
      vertex -46.95694928616285 76.84320329129696 0
      vertex -46.25 76.37083487212658 0
    endloop
  endfacet
  facet normal 0 0 -1
    outer loop
      vertex -60 45 0
      vertex -46.25 76.37083487212658 0
      vertex -45.487442307174206 75.99478303641081 0
    endloop
  endfacet
  facet normal 0 0 -1
    outer loop
      vertex -60 45 0
      vertex -45.487442307174206 75.99478303641081 0
      vertex -44.682323791086674 75.72148212790489 0
    endloop
  endfacet
  facet normal 0 0 -1
    outer loop
      vertex -60 45 0
      vertex -44.682323791086674 75.72148212790489 0
      vertex -43.84842024743557 75.55560839921236 0
    endloop
  endfacet
  facet normal 0 0 -1
    outer loop
      vertex -60 45 0
      vertex -43.84842024743557 75.55560839921236 0
      vertex -43 75.5 0
    endloop
  endfacet
  facet normal 0 0 -1
    outer loop
      vertex -60 45 0
      vertex -39.75 76.37083487212658 0
      vertex -39.04305071383715 76.84320329129696 0
    endloop
  endfacet
  facet normal 0 0 -1
    outer loop
      vertex -60 45 0
      vertex -39.04305071383715 76.84320329129696 0
      vertex -38.403805918991566 77.40380591899157 0
    endloop
  endfacet
  facet normal 0 0 -1
    outer loop
      vertex -60 45 0
      vertex -38.403805918991566 77.40380591899157 0
      vertex -37.84320329129696 78.04305071383715 0
    endloop
  endfacet
  facet normal 0 0 -1
    outer loop
      vertex -60 45 0
      vertex -43 75.5 0
      vertex -42.15157975256443 75.55560839921236 0
    endloop
  endfacet
  facet normal 0 0 -1
    outer loop
      vertex -60 45 0
      vertex -42.15157975256443 75.55560839921236 0
      vertex -41.317676208913326 75.72148212790489 0
    endloop
  endfacet
  facet normal 0 0 -1
    outer loop
      vertex -60 45 0
      vertex -41.317676208913326 75.72148212790489 0
      vertex -40.512557692825794 75.99478303641081 0
    endloop
  endfacet
  facet normal 0 0 -1
    outer loop
      vertex -60 45 0
      vertex -40.512557692825794 75.99478303641081 0
      vertex -39.75 76.37083487212658 0
    endloop
  endfacet
  facet normal 0 0 1
    outer loop
      vertex -37.84320329129696 78.04305071383715 3.5
      vertex -27 78.25 3.5
      vertex -37.70492419600487 78.25 3.5
    endloop
  endfacet
  facet normal 0 0 -1
    outer loop
      vertex -37.70492419600487 78.25 0
      vertex -27 78.25 0
      vertex -37.84320329129696 78.04305071383715 0
    endloop
  endfacet
  facet normal 0 0 1
    outer loop
      vertex -60 51 3.5
      vertex -27 78.25 3.5
      vertex -37.84320329129696 78.04305071383715 3.5
    endloop
  endfacet
  facet normal 0 0 -1
    outer loop
      vertex -60 45 0
      vertex -37.84320329129696 78.04305071383715 0
      vertex -27 78.25 0
    endloop
  endfacet
  facet normal -1 0 0
    outer loop
      vertex -60 51 3.5
      vertex -60 45 0
      vertex -60 50 3.5
    endloop
  endfacet
  facet normal -1 0 0
    outer loop
      vertex -60 50 3.5
      vertex -60 45 0
      vertex -60 45 3.5
    endloop
  endfacet
  facet normal 0 0 1
    outer loop
      vertex -60 51 3.5
      vertex 60 113 3.5
      vertex -27 78.25 3.5
    endloop
  endfacet
  facet normal 0 0 -1
    outer loop
      vertex -60 45 0
      vertex -27 78.25 0
      vertex 60 119 0
    endloop
  endfacet
  facet normal 0 0 1
    outer loop
      vertex -60 51 3.5
      vertex 20.99478303641081 84.4874423071742 3.5
      vertex 21.37083487212658 85.25 3.5
    endloop
  endfacet
  facet normal 0 0 1
    outer loop
      vertex -60 51 3.5
      vertex 20.721482127904892 83.68232379108667 3.5
      vertex 20.99478303641081 84.4874423071742 3.5
    endloop
  endfacet
  facet normal 0 0 1
    outer loop
      vertex -60 51 3.5
      vertex 21.84320329129696 85.95694928616285 3.5
      vertex 22.403805918991566 86.59619408100843 3.5
    endloop
  endfacet
  facet normal 0 0 1
    outer loop
      vertex -60 51 3.5
      vertex 22.403805918991566 86.59619408100843 3.5
      vertex 23.043050713837147 87.15679670870304 3.5
    endloop
  endfacet
  facet normal 0 0 1
    outer loop
      vertex -60 51 3.5
      vertex 21.37083487212658 85.25 3.5
      vertex 21.84320329129696 85.95694928616285 3.5
    endloop
  endfacet
  facet normal 0 0 -1
    outer loop
      vertex -60 45 0
      vertex 23.043050713837147 87.15679670870304 0
      vertex 22.403805918991566 86.59619408100843 0
    endloop
  endfacet
  facet normal 0 0 -1
    outer loop
      vertex -60 45 0
      vertex 23.75 87.62916512787342 0
      vertex 23.043050713837147 87.15679670870304 0
    endloop
  endfacet
  facet normal 0 0 1
    outer loop
      vertex -60 51 3.5
      vertex 20.55560839921236 82.84842024743557 3.5
      vertex 20.721482127904892 83.68232379108667 3.5
    endloop
  endfacet
  facet normal 0 0 1
    outer loop
      vertex -60 51 3.5
      vertex 20.5 82 3.5
      vertex 20.55560839921236 82.84842024743557 3.5
    endloop
  endfacet
  facet normal 0 0 1
    outer loop
      vertex -60 51 3.5
      vertex 20.55560839921236 81.15157975256443 3.5
      vertex 20.5 82 3.5
    endloop
  endfacet
  facet normal 0 0 1
    outer loop
      vertex -60 51 3.5
      vertex 20.721482127904892 80.31767620891333 3.5
      vertex 20.55560839921236 81.15157975256443 3.5
    endloop
  endfacet
  facet normal 0 0 1
    outer loop
      vertex -60 51 3.5
      vertex 20.99478303641081 79.5125576928258 3.5
      vertex 20.721482127904892 80.31767620891333 3.5
    endloop
  endfacet
  facet normal 0 0 1
    outer loop
      vertex -60 51 3.5
      vertex 21.37083487212658 78.75 3.5
      vertex 20.99478303641081 79.5125576928258 3.5
    endloop
  endfacet
  facet normal 0 0 1
    outer loop
      vertex -60 51 3.5
      vertex 21.84320329129696 78.04305071383715 3.5
      vertex 21.37083487212658 78.75 3.5
    endloop
  endfacet
  facet normal 0 0 1
    outer loop
      vertex -60 51 3.5
      vertex 22.403805918991566 77.40380591899157 3.5
      vertex 21.84320329129696 78.04305071383715 3.5
    endloop
  endfacet
  facet normal 0 0 1
    outer loop
      vertex -60 51 3.5
      vertex 23.043050713837147 76.84320329129696 3.5
      vertex 22.403805918991566 77.40380591899157 3.5
    endloop
  endfacet
  facet normal 0 0 -1
    outer loop
      vertex -60 45 0
      vertex 20.99478303641081 84.4874423071742 0
      vertex 20.721482127904892 83.68232379108667 0
    endloop
  endfacet
  facet normal 0 0 -1
    outer loop
      vertex -60 45 0
      vertex 21.37083487212658 85.25 0
      vertex 20.99478303641081 84.4874423071742 0
    endloop
  endfacet
  facet normal 0 0 -1
    outer loop
      vertex -60 45 0
      vertex 20.721482127904892 83.68232379108667 0
      vertex 20.55560839921236 82.84842024743557 0
    endloop
  endfacet
  facet normal 0 0 -1
    outer loop
      vertex -60 45 0
      vertex 22.403805918991566 86.59619408100843 0
      vertex 21.84320329129696 85.95694928616285 0
    endloop
  endfacet
  facet normal 0 0 -1
    outer loop
      vertex -60 45 0
      vertex 21.84320329129696 85.95694928616285 0
      vertex 21.37083487212658 85.25 0
    endloop
  endfacet
  facet normal 0 0 -1
    outer loop
      vertex -60 45 0
      vertex 20.55560839921236 82.84842024743557 0
      vertex 20.5 82 0
    endloop
  endfacet
  facet normal 0 0 -1
    outer loop
      vertex -60 45 0
      vertex 20.5 82 0
      vertex 20.55560839921236 81.15157975256443 0
    endloop
  endfacet
  facet normal 0 0 -1
    outer loop
      vertex -60 45 0
      vertex 20.55560839921236 81.15157975256443 0
      vertex 20.721482127904892 80.31767620891333 0
    endloop
  endfacet
  facet normal 0 0 -1
    outer loop
      vertex -60 45 0
      vertex 20.721482127904892 80.31767620891333 0
      vertex 20.99478303641081 79.5125576928258 0
    endloop
  endfacet
  facet normal 0 0 -1
    outer loop
      vertex -60 45 0
      vertex 20.99478303641081 79.5125576928258 0
      vertex 21.37083487212658 78.75 0
    endloop
  endfacet
  facet normal 0 0 -1
    outer loop
      vertex -60 45 0
      vertex 21.37083487212658 78.75 0
      vertex 21.84320329129696 78.04305071383715 0
    endloop
  endfacet
  facet normal 0 0 -1
    outer loop
      vertex -60 45 0
      vertex 21.84320329129696 78.04305071383715 0
      vertex 22.403805918991566 77.40380591899157 0
    endloop
  endfacet
  facet normal 0 0 -1
    outer loop
      vertex -60 45 0
      vertex 22.403805918991566 77.40380591899157 0
      vertex 23.043050713837147 76.84320329129696 0
    endloop
  endfacet
  facet normal 0 0 -1
    outer loop
      vertex -60 45 0
      vertex 23.043050713837147 76.84320329129696 0
      vertex 23.75 76.37083487212658 0
    endloop
  endfacet
  facet normal 0 0 -1
    outer loop
      vertex -60 45 0
      vertex 23.75 76.37083487212658 0
      vertex 24.512557692825794 75.99478303641081 0
    endloop
  endfacet
  facet normal 0 0 -1
    outer loop
      vertex -60 45 0
      vertex 24.512557692825794 75.99478303641081 0
      vertex 25.317676208913326 75.72148212790489 0
    endloop
  endfacet
  facet normal 0 0 -1
    outer loop
      vertex -60 45 0
      vertex 25.317676208913326 75.72148212790489 0
      vertex 26.15157975256443 75.55560839921236 0
    endloop
  endfacet
  facet normal 0 0 -1
    outer loop
      vertex -60 45 0
      vertex 26.15157975256443 75.55560839921236 0
      vertex 27 75.5 0
    endloop
  endfacet
  facet normal 0 0 -1
    outer loop
      vertex -60 45 0
      vertex 27 75.5 0
      vertex 27.84842024743557 75.55560839921236 0
    endloop
  endfacet
  facet normal 0 0 -1
    outer loop
      vertex -60 45 0
      vertex 27.84842024743557 75.55560839921236 0
      vertex 28.682323791086674 75.72148212790489 0
    endloop
  endfacet
  facet normal 0 0 -1
    outer loop
      vertex -60 45 0
      vertex 28.682323791086674 75.72148212790489 0
      vertex 29.487442307174206 75.99478303641081 0
    endloop
  endfacet
  facet normal 0 -1 0
    outer loop
      vertex -60 45 3.5
      vertex -60 45 0
      vertex 60 45 3.5
    endloop
  endfacet
  facet normal 0 1 0
    outer loop
      vertex -60 119 3.5
      vertex 60 119 3.5
      vertex 60 119 0
    endloop
  endfacet
  facet normal 0 0 1
    outer loop
      vertex 60 113 3.5
      vertex -27 85.75 3.5
      vertex -27 78.25 3.5
    endloop
  endfacet
  facet normal 0 0 -1
    outer loop
      vertex 60 119 0
      vertex -27 78.25 0
      vertex -27 85.75 0
    endloop
  endfacet
  facet normal 0 0 1
    outer loop
      vertex -60 51 3.5
      vertex 23.043050713837147 87.15679670870304 3.5
      vertex 60 113 3.5
    endloop
  endfacet
  facet normal 0 0 -1
    outer loop
      vertex -60 45 0
      vertex 60 119 0
      vertex 23.75 87.62916512787342 0
    endloop
  endfacet
  facet normal 1 0 0
    outer loop
      vertex 60 119 3.5
      vertex 60 116 3.5
      vertex 60 119 0
    endloop
  endfacet
  facet normal 1 0 0
    outer loop
      vertex 60 116 3.5
      vertex 60 113 3.5
      vertex 60 119 0
    endloop
  endfacet
  facet normal 0 0 1
    outer loop
      vertex 60 113 3.5
      vertex 23.043050713837147 87.15679670870304 3.5
      vertex 23.75 87.62916512787342 3.5
    endloop
  endfacet
  facet normal 0 0 1
    outer loop
      vertex 60 113 3.5
      vertex 23.75 87.62916512787342 3.5
      vertex 24.512557692825794 88.00521696358919 3.5
    endloop
  endfacet
  facet normal 0 0 1
    outer loop
      vertex 60 113 3.5
      vertex 25.317676208913326 88.27851787209511 3.5
      vertex 26.15157975256443 88.44439160078764 3.5
    endloop
  endfacet
  facet normal 0 0 1
    outer loop
      vertex 60 113 3.5
      vertex 24.512557692825794 88.00521696358919 3.5
      vertex 25.317676208913326 88.27851787209511 3.5
    endloop
  endfacet
  facet normal 0 0 -1
    outer loop
      vertex 60 119 0
      vertex 24.512557692825794 88.00521696358919 0
      vertex 23.75 87.62916512787342 0
    endloop
  endfacet
  facet normal 0 0 -1
    outer loop
      vertex 60 119 0
      vertex 25.317676208913326 88.27851787209511 0
      vertex 24.512557692825794 88.00521696358919 0
    endloop
  endfacet
  facet normal 0 0 -1
    outer loop
      vertex 60 119 0
      vertex 26.15157975256443 88.44439160078764 0
      vertex 25.317676208913326 88.27851787209511 0
    endloop
  endfacet
  facet normal 0 0 1
    outer loop
      vertex 60 113 3.5
      vertex 26.15157975256443 88.44439160078764 3.5
      vertex 27 88.5 3.5
    endloop
  endfacet
  facet normal 0 0 1
    outer loop
      vertex 60 113 3.5
      vertex 27 88.5 3.5
      vertex 27.84842024743557 88.44439160078764 3.5
    endloop
  endfacet
  facet normal 0 0 1
    outer loop
      vertex 60 113 3.5
      vertex 27.84842024743557 88.44439160078764 3.5
      vertex 28.682323791086674 88.27851787209511 3.5
    endloop
  endfacet
  facet normal 0 0 1
    outer loop
      vertex 60 113 3.5
      vertex 28.682323791086674 88.27851787209511 3.5
      vertex 29.487442307174206 88.00521696358919 3.5
    endloop
  endfacet
  facet normal 0 0 1
    outer loop
      vertex 60 113 3.5
      vertex 29.487442307174206 88.00521696358919 3.5
      vertex 30.25 87.62916512787342 3.5
    endloop
  endfacet
  facet normal 0 0 1
    outer loop
      vertex 60 113 3.5
      vertex 30.25 87.62916512787342 3.5
      vertex 30.956949286162853 87.15679670870304 3.5
    endloop
  endfacet
  facet normal 0 0 -1
    outer loop
      vertex 60 119 0
      vertex 27 88.5 0
      vertex 26.15157975256443 88.44439160078764 0
    endloop
  endfacet
  facet normal 0 0 -1
    outer loop
      vertex 60 119 0
      vertex 27.84842024743557 88.44439160078764 0
      vertex 27 88.5 0
    endloop
  endfacet
  facet normal 0 0 -1
    outer loop
      vertex 60 119 0
      vertex 28.682323791086674 88.27851787209511 0
      vertex 27.84842024743557 88.44439160078764 0
    endloop
  endfacet
  facet normal 0 0 -1
    outer loop
      vertex 60 119 0
      vertex 29.487442307174206 88.00521696358919 0
      vertex 28.682323791086674 88.27851787209511 0
    endloop
  endfacet
  facet normal 0 0 -1
    outer loop
      vertex 60 119 0
      vertex 30.25 87.62916512787342 0
      vertex 29.487442307174206 88.00521696358919 0
    endloop
  endfacet
  facet normal 0 0 -1
    outer loop
      vertex 60 119 0
      vertex 30.956949286162853 87.15679670870304 0
      vertex 30.25 87.62916512787342 0
    endloop
  endfacet
  facet normal 0 0 -1
    outer loop
      vertex 60 119 0
      vertex 31.596194081008434 86.59619408100843 0
      vertex 30.956949286162853 87.15679670870304 0
    endloop
  endfacet
  facet normal 0 0 -1
    outer loop
      vertex 60 119 0
      vertex 32.15679670870304 85.95694928616285 0
      vertex 31.596194081008434 86.59619408100843 0
    endloop
  endfacet
  facet normal 0 0 -1
    outer loop
      vertex 60 119 0
      vertex 32.29507580399513 85.75 0
      vertex 32.15679670870304 85.95694928616285 0
    endloop
  endfacet
  facet normal 0 0 1
    outer loop
      vertex 60 113 3.5
      vertex 30.956949286162853 87.15679670870304 3.5
      vertex 31.596194081008434 86.59619408100843 3.5
    endloop
  endfacet
  facet normal 0 0 1
    outer loop
      vertex 60 113 3.5
      vertex 31.596194081008434 86.59619408100843 3.5
      vertex 32.15679670870304 85.95694928616285 3.5
    endloop
  endfacet
  facet normal 0 0 1
    outer loop
      vertex 32.15679670870304 85.95694928616285 3.5
      vertex 32.29507580399513 85.75 3.5
      vertex 43 85.75 3.5
    endloop
  endfacet
  facet normal 0 0 -1
    outer loop
      vertex 60 119 0
      vertex 43 85.75 0
      vertex 32.29507580399513 85.75 0
    endloop
  endfacet
  facet normal 0 0 1
    outer loop
      vertex 60 113 3.5
      vertex 32.15679670870304 85.95694928616285 3.5
      vertex 43 85.75 3.5
    endloop
  endfacet
  facet normal 0 0 1
    outer loop
      vertex 60 113 3.5
      vertex 43 85.75 3.5
      vertex 43 78.25 3.5
    endloop
  endfacet
  facet normal 0 0 -1
    outer loop
      vertex 60 119 0
      vertex 43 78.25 0
      vertex 43 85.75 0
    endloop
  endfacet
  facet normal 1 0 0
    outer loop
      vertex 60 119 0
      vertex 60 113 3.5
      vertex 60 51 3.5
    endloop
  endfacet
  facet normal 0 0 1
    outer loop
      vertex -60 51 3.5
      vertex 60 51 3.5
      vertex 23.043050713837147 76.84320329129696 3.5
    endloop
  endfacet
  facet normal 0 0 -1
    outer loop
      vertex -60 45 0
      vertex 29.487442307174206 75.99478303641081 0
      vertex 60 45 0
    endloop
  endfacet
  facet normal 0 -1 0
    outer loop
      vertex -60 45 0
      vertex 60 45 0
      vertex 60 45 3.5
    endloop
  endfacet
  facet normal 0 0 1
    outer loop
      vertex 60 51 3.5
      vertex 23.75 76.37083487212658 3.5
      vertex 23.043050713837147 76.84320329129696 3.5
    endloop
  endfacet
  facet normal 0 0 1
    outer loop
      vertex 60 51 3.5
      vertex 24.512557692825794 75.99478303641081 3.5
      vertex 23.75 76.37083487212658 3.5
    endloop
  endfacet
  facet normal 0 0 1
    outer loop
      vertex 60 51 3.5
      vertex 25.317676208913326 75.72148212790489 3.5
      vertex 24.512557692825794 75.99478303641081 3.5
    endloop
  endfacet
  facet normal 0 0 1
    outer loop
      vertex 60 51 3.5
      vertex 26.15157975256443 75.55560839921236 3.5
      vertex 25.317676208913326 75.72148212790489 3.5
    endloop
  endfacet
  facet normal 0 0 1
    outer loop
      vertex 60 51 3.5
      vertex 31.596194081008434 77.40380591899157 3.5
      vertex 30.956949286162853 76.84320329129696 3.5
    endloop
  endfacet
  facet normal 0 0 1
    outer loop
      vertex 60 51 3.5
      vertex 32.29507580399513 78.25 3.5
      vertex 32.15679670870304 78.04305071383715 3.5
    endloop
  endfacet
  facet normal 0 0 1
    outer loop
      vertex 60 51 3.5
      vertex 32.15679670870304 78.04305071383715 3.5
      vertex 31.596194081008434 77.40380591899157 3.5
    endloop
  endfacet
  facet normal 0 0 1
    outer loop
      vertex 60 51 3.5
      vertex 27 75.5 3.5
      vertex 26.15157975256443 75.55560839921236 3.5
    endloop
  endfacet
  facet normal 0 0 1
    outer loop
      vertex 60 51 3.5
      vertex 27.84842024743557 75.55560839921236 3.5
      vertex 27 75.5 3.5
    endloop
  endfacet
  facet normal 0 0 1
    outer loop
      vertex 60 51 3.5
      vertex 28.682323791086674 75.72148212790489 3.5
      vertex 27.84842024743557 75.55560839921236 3.5
    endloop
  endfacet
  facet normal 0 0 1
    outer loop
      vertex 60 51 3.5
      vertex 29.487442307174206 75.99478303641081 3.5
      vertex 28.682323791086674 75.72148212790489 3.5
    endloop
  endfacet
  facet normal 0 0 1
    outer loop
      vertex 60 51 3.5
      vertex 30.25 76.37083487212658 3.5
      vertex 29.487442307174206 75.99478303641081 3.5
    endloop
  endfacet
  facet normal 0 0 1
    outer loop
      vertex 60 51 3.5
      vertex 30.956949286162853 76.84320329129696 3.5
      vertex 30.25 76.37083487212658 3.5
    endloop
  endfacet
  facet normal 0 0 -1
    outer loop
      vertex 60 45 0
      vertex 30.956949286162853 76.84320329129696 0
      vertex 31.596194081008434 77.40380591899157 0
    endloop
  endfacet
  facet normal 0 0 -1
    outer loop
      vertex 60 45 0
      vertex 30.25 76.37083487212658 0
      vertex 30.956949286162853 76.84320329129696 0
    endloop
  endfacet
  facet normal 0 0 -1
    outer loop
      vertex 60 45 0
      vertex 29.487442307174206 75.99478303641081 0
      vertex 30.25 76.37083487212658 0
    endloop
  endfacet
  facet normal 0 0 -1
    outer loop
      vertex 60 45 0
      vertex 32.15679670870304 78.04305071383715 0
      vertex 32.29507580399513 78.25 0
    endloop
  endfacet
  facet normal 0 0 -1
    outer loop
      vertex 60 45 0
      vertex 31.596194081008434 77.40380591899157 0
      vertex 32.15679670870304 78.04305071383715 0
    endloop
  endfacet
  facet normal 0 0 1
    outer loop
      vertex 60 113 3.5
      vertex 43 78.25 3.5
      vertex 60 51 3.5
    endloop
  endfacet
  facet normal 0 0 -1
    outer loop
      vertex 60 119 0
      vertex 60 45 0
      vertex 43 78.25 0
    endloop
  endfacet
  facet normal 1 0 0
    outer loop
      vertex 60 119 0
      vertex 60 51 3.5
      vertex 60 50 3.5
    endloop
  endfacet
  facet normal 0 0 1
    outer loop
      vertex 60 51 3.5
      vertex 43 78.25 3.5
      vertex 32.29507580399513 78.25 3.5
    endloop
  endfacet
  facet normal 0 0 -1
    outer loop
      vertex 60 45 0
      vertex 32.29507580399513 78.25 0
      vertex 43 78.25 0
    endloop
  endfacet
  facet normal 1 0 0
    outer loop
      vertex 60 119 0
      vertex 60 50 3.5
      vertex 60 45 3.5
    endloop
  endfacet
  facet normal 1 0 0
    outer loop
      vertex 60 119 0
      vertex 60 45 3.5
      vertex 60 45 0
    endloop
  endfacet
  facet normal -1 0 0
    outer loop
      vertex -60 119 10.5
      vertex -60 114 3.5
      vertex -60 116 10.5
    endloop
  endfacet
  facet normal -1 0 0
    outer loop
      vertex -60 116 10.5
      vertex -60 114 3.5
      vertex -60 114 10.5
    endloop
  endfacet
  facet normal -1 0 0
    outer loop
      vertex -60 119 10.5
      vertex -60 119 3.5
      vertex -60 114 3.5
    endloop
  endfacet
  facet normal 0 0 1
    outer loop
      vertex -60 119 10.5
      vertex -60 116 10.5
      vertex 60 119 10.5
    endloop
  endfacet
  facet normal 0 1 0
    outer loop
      vertex -60 119 10.5
      vertex 60 119 3.5
      vertex -60 119 3.5
    endloop
  endfacet
  facet normal 0 0 1
    outer loop
      vertex -60 116 10.5
      vertex 60 116 10.5
      vertex 60 119 10.5
    endloop
  endfacet
  facet normal 0 1 0
    outer loop
      vertex -60 119 10.5
      vertex 60 119 10.5
      vertex 60 119 3.5
    endloop
  endfacet
  facet normal 1 0 0
    outer loop
      vertex 60 119 10.5
      vertex 60 116 10.5
      vertex 60 119 3.5
    endloop
  endfacet
  facet normal 1 0 0
    outer loop
      vertex 60 116 10.5
      vertex 60 116 7.134506635891526
      vertex 60 119 3.5
    endloop
  endfacet
  facet normal 1 0 0
    outer loop
      vertex 60 116 7.134506635891526
      vertex 60 116 3.5
      vertex 60 119 3.5
    endloop
  endfacet
  facet normal 1 0 0
    outer loop
      vertex 60 115.71868720696584 7.437441393168115
      vertex 60 116 3.5
      vertex 60 116 7.134506635891526
    endloop
  endfacet
  facet normal -1 0 0
    outer loop
      vertex -60 50 10.5
      vertex -60 45 3.5
      vertex -60 48 10.5
    endloop
  endfacet
  facet normal -1 0 0
    outer loop
      vertex -60 48 10.5
      vertex -60 45 3.5
      vertex -60 45 10.5
    endloop
  endfacet
  facet normal -1 0 0
    outer loop
      vertex -60 50 10.5
      vertex -60 50 3.5
      vertex -60 45 3.5
    endloop
  endfacet
  facet normal 0 0 1
    outer loop
      vertex -60 48 10.5
      vertex -60 45 10.5
      vertex 60 48 10.5
    endloop
  endfacet
  facet normal 0 -1 0
    outer loop
      vertex -60 45 10.5
      vertex -60 45 3.5
      vertex 60 45 10.5
    endloop
  endfacet
  facet normal 0 0 1
    outer loop
      vertex -60 45 10.5
      vertex 60 45 10.5
      vertex 60 48 10.5
    endloop
  endfacet
  facet normal 0 -1 0
    outer loop
      vertex -60 45 3.5
      vertex 60 45 3.5
      vertex 60 45 10.5
    endloop
  endfacet
  facet normal 1 0 0
    outer loop
      vertex 60 50 10.5
      vertex 60 48.63330740164481 10.5
      vertex 60 50 5.5191703532730685
    endloop
  endfacet
  facet normal 1 0 0
    outer loop
      vertex 60 48 10.5
      vertex 60 45 10.5
      vertex 60 48 5.923004423927679
    endloop
  endfacet
  facet normal 1 0 0
    outer loop
      vertex 60 45 10.5
      vertex 60 45 3.5
      vertex 60 48 5.923004423927679
    endloop
  endfacet
  facet normal 1 0 0
    outer loop
      vertex 60 50 3.5
      vertex 60 48 5.923004423927679
      vertex 60 45 3.5
    endloop
  endfacet
  facet normal 0.6593458074707774 -0.7518398141696865 0
    outer loop
      vertex -46.95694928616285 87.15679670870304 3.5
      vertex -47.596194081008434 86.59619408100843 3.5
      vertex -47.596194081008434 86.59619408100843 0
    endloop
  endfacet
  facet normal 0.3214394645968252 -0.9469301297348746 0
    outer loop
      vertex -44.682323791086674 88.27851787209511 3.5
      vertex -45.487442307174206 88.00521696358919 3.5
      vertex -45.487442307174206 88.00521696358919 0
    endloop
  endfacet
  facet normal 0.5555702395765969 -0.8314696079213014 0
    outer loop
      vertex -46.25 87.62916512787342 3.5
      vertex -46.95694928616285 87.15679670870304 3.5
      vertex -46.95694928616285 87.15679670870304 0
    endloop
  endfacet
  facet normal 0.4422886877722437 -0.8968727427392954 0
    outer loop
      vertex -45.487442307174206 88.00521696358919 3.5
      vertex -46.25 87.62916512787342 3.5
      vertex -46.25 87.62916512787342 0
    endloop
  endfacet
  facet normal 0.6593458074707774 -0.7518398141696865 0
    outer loop
      vertex -46.95694928616285 87.15679670870304 0
      vertex -46.95694928616285 87.15679670870304 3.5
      vertex -47.596194081008434 86.59619408100843 0
    endloop
  endfacet
  facet normal 0.4422886877722437 -0.8968727427392954 0
    outer loop
      vertex -45.487442307174206 88.00521696358919 3.5
      vertex -46.25 87.62916512787342 0
      vertex -45.487442307174206 88.00521696358919 0
    endloop
  endfacet
  facet normal 0.5555702395765969 -0.8314696079213014 0
    outer loop
      vertex -46.25 87.62916512787342 3.5
      vertex -46.95694928616285 87.15679670870304 0
      vertex -46.25 87.62916512787342 0
    endloop
  endfacet
  facet normal 0.8968727427392954 -0.4422886877722437 0
    outer loop
      vertex -48.62916512787342 85.25 3.5
      vertex -49.00521696358919 84.4874423071742 3.5
      vertex -49.00521696358919 84.4874423071742 0
    endloop
  endfacet
  facet normal 0.8968727427392954 -0.4422886877722437 0
    outer loop
      vertex -48.62916512787342 85.25 0
      vertex -48.62916512787342 85.25 3.5
      vertex -49.00521696358919 84.4874423071742 0
    endloop
  endfacet
  facet normal 0.9469301297348746 -0.3214394645968252 0
    outer loop
      vertex -49.00521696358919 84.4874423071742 3.5
      vertex -49.27851787209511 83.68232379108667 3.5
      vertex -49.27851787209511 83.68232379108667 0
    endloop
  endfacet
  facet normal 0.9807852802550153 -0.19509032276125596 0
    outer loop
      vertex -49.27851787209511 83.68232379108667 3.5
      vertex -49.44439160078764 82.84842024743557 3.5
      vertex -49.44439160078764 82.84842024743557 0
    endloop
  endfacet
  facet normal 0.997858923371175 -0.06540312720749202 0
    outer loop
      vertex -49.44439160078764 82.84842024743557 3.5
      vertex -49.5 82 3.5
      vertex -49.5 82 0
    endloop
  endfacet
  facet normal 0.9469301297348746 -0.3214394645968252 0
    outer loop
      vertex -49.00521696358919 84.4874423071742 0
      vertex -49.00521696358919 84.4874423071742 3.5
      vertex -49.27851787209511 83.68232379108667 0
    endloop
  endfacet
  facet normal 0.9807852802550153 -0.19509032276125596 0
    outer loop
      vertex -49.27851787209511 83.68232379108667 0
      vertex -49.27851787209511 83.68232379108667 3.5
      vertex -49.44439160078764 82.84842024743557 0
    endloop
  endfacet
  facet normal 0.997858923371175 -0.06540312720749202 0
    outer loop
      vertex -49.44439160078764 82.84842024743557 0
      vertex -49.44439160078764 82.84842024743557 3.5
      vertex -49.5 82 0
    endloop
  endfacet
  facet normal 0.7518398141696865 -0.6593458074707774 0
    outer loop
      vertex -47.596194081008434 86.59619408100843 3.5
      vertex -48.15679670870304 85.95694928616285 3.5
      vertex -48.15679670870304 85.95694928616285 0
    endloop
  endfacet
  facet normal 0.8314696079213014 -0.5555702395765969 0
    outer loop
      vertex -48.15679670870304 85.95694928616285 3.5
      vertex -48.62916512787342 85.25 3.5
      vertex -48.62916512787342 85.25 0
    endloop
  endfacet
  facet normal 0.8314696079213014 -0.5555702395765969 0
    outer loop
      vertex -48.15679670870304 85.95694928616285 0
      vertex -48.15679670870304 85.95694928616285 3.5
      vertex -48.62916512787342 85.25 0
    endloop
  endfacet
  facet normal 0.7518398141696865 -0.6593458074707774 0
    outer loop
      vertex -47.596194081008434 86.59619408100843 3.5
      vertex -48.15679670870304 85.95694928616285 0
      vertex -47.596194081008434 86.59619408100843 0
    endloop
  endfacet
  facet normal 0.19509032276125596 -0.9807852802550153 0
    outer loop
      vertex -43.84842024743557 88.44439160078764 3.5
      vertex -44.682323791086674 88.27851787209511 3.5
      vertex -44.682323791086674 88.27851787209511 0
    endloop
  endfacet
  facet normal 0.06540312720749202 -0.997858923371175 0
    outer loop
      vertex -43.84842024743557 88.44439160078764 3.5
      vertex -43.84842024743557 88.44439160078764 0
      vertex -43 88.5 3.5
    endloop
  endfacet
  facet normal -0.06540312720749202 -0.997858923371175 0
    outer loop
      vertex -42.15157975256443 88.44439160078764 3.5
      vertex -43 88.5 3.5
      vertex -43 88.5 0
    endloop
  endfacet
  facet normal -0.19509032276125596 -0.9807852802550153 0
    outer loop
      vertex -41.317676208913326 88.27851787209511 3.5
      vertex -42.15157975256443 88.44439160078764 3.5
      vertex -42.15157975256443 88.44439160078764 0
    endloop
  endfacet
  facet normal 0.19509032276125596 -0.9807852802550153 0
    outer loop
      vertex -43.84842024743557 88.44439160078764 3.5
      vertex -44.682323791086674 88.27851787209511 0
      vertex -43.84842024743557 88.44439160078764 0
    endloop
  endfacet
  facet normal 0.3214394645968252 -0.9469301297348746 0
    outer loop
      vertex -44.682323791086674 88.27851787209511 3.5
      vertex -45.487442307174206 88.00521696358919 0
      vertex -44.682323791086674 88.27851787209511 0
    endloop
  endfacet
  facet normal 0.06540312720749202 -0.997858923371175 0
    outer loop
      vertex -43 88.5 0
      vertex -43 88.5 3.5
      vertex -43.84842024743557 88.44439160078764 0
    endloop
  endfacet
  facet normal -0.06540312720749202 -0.997858923371175 0
    outer loop
      vertex -42.15157975256443 88.44439160078764 3.5
      vertex -43 88.5 0
      vertex -42.15157975256443 88.44439160078764 0
    endloop
  endfacet
  facet normal -0.19509032276125596 -0.9807852802550153 0
    outer loop
      vertex -41.317676208913326 88.27851787209511 3.5
      vertex -42.15157975256443 88.44439160078764 0
      vertex -41.317676208913326 88.27851787209511 0
    endloop
  endfacet
  facet normal -0.3214394645968252 -0.9469301297348746 0
    outer loop
      vertex -40.512557692825794 88.00521696358919 3.5
      vertex -41.317676208913326 88.27851787209511 3.5
      vertex -41.317676208913326 88.27851787209511 0
    endloop
  endfacet
  facet normal -0.4422886877722437 -0.8968727427392954 0
    outer loop
      vertex -40.512557692825794 88.00521696358919 3.5
      vertex -40.512557692825794 88.00521696358919 0
      vertex -39.75 87.62916512787342 3.5
    endloop
  endfacet
  facet normal -0.5555702395765969 -0.8314696079213014 0
    outer loop
      vertex -39.75 87.62916512787342 3.5
      vertex -39.75 87.62916512787342 0
      vertex -39.04305071383715 87.15679670870304 3.5
    endloop
  endfacet
  facet normal -0.6593458074707774 -0.7518398141696865 0
    outer loop
      vertex -39.04305071383715 87.15679670870304 3.5
      vertex -39.04305071383715 87.15679670870304 0
      vertex -38.403805918991566 86.59619408100843 3.5
    endloop
  endfacet
  facet normal -0.3214394645968252 -0.9469301297348746 0
    outer loop
      vertex -40.512557692825794 88.00521696358919 3.5
      vertex -41.317676208913326 88.27851787209511 0
      vertex -40.512557692825794 88.00521696358919 0
    endloop
  endfacet
  facet normal -0.4422886877722437 -0.8968727427392954 0
    outer loop
      vertex -39.75 87.62916512787342 0
      vertex -39.75 87.62916512787342 3.5
      vertex -40.512557692825794 88.00521696358919 0
    endloop
  endfacet
  facet normal -0.5555702395765969 -0.8314696079213014 0
    outer loop
      vertex -39.04305071383715 87.15679670870304 3.5
      vertex -39.75 87.62916512787342 0
      vertex -39.04305071383715 87.15679670870304 0
    endloop
  endfacet
  facet normal -0.6593458074707774 -0.7518398141696865 0
    outer loop
      vertex -38.403805918991566 86.59619408100843 0
      vertex -38.403805918991566 86.59619408100843 3.5
      vertex -39.04305071383715 87.15679670870304 0
    endloop
  endfacet
  facet normal -0.7518398141696865 -0.6593458074707774 0
    outer loop
      vertex -38.403805918991566 86.59619408100843 3.5
      vertex -38.403805918991566 86.59619408100843 0
      vertex -37.84320329129696 85.95694928616285 3.5
    endloop
  endfacet
  facet normal -0.8314696064647734 -0.5555702417564451 0
    outer loop
      vertex -37.84320329129696 85.95694928616285 3.5
      vertex -37.84320329129696 85.95694928616285 0
      vertex -37.70492419600487 85.75 3.5
    endloop
  endfacet
  facet normal -0.7518398141696865 -0.6593458074707774 0
    outer loop
      vertex -37.84320329129696 85.95694928616285 0
      vertex -37.84320329129696 85.95694928616285 3.5
      vertex -38.403805918991566 86.59619408100843 0
    endloop
  endfacet
  facet normal -0.8314696064647734 -0.5555702417564451 0
    outer loop
      vertex -37.70492419600487 85.75 3.5
      vertex -37.84320329129696 85.95694928616285 0
      vertex -37.70492419600487 85.75 0
    endloop
  endfacet
  facet normal 0 -1 0
    outer loop
      vertex -37.70492419600487 85.75 3.5
      vertex -37.70492419600487 85.75 0
      vertex -27 85.75 0
    endloop
  endfacet
  facet normal 0 -1 0
    outer loop
      vertex -37.70492419600487 85.75 3.5
      vertex -27 85.75 0
      vertex -27 85.75 3.5
    endloop
  endfacet
  facet normal -1 0 0
    outer loop
      vertex -27 85.75 3.5
      vertex -27 85.75 0
      vertex -27 78.25 3.5
    endloop
  endfacet
  facet normal 0.997858923371175 0.06540312720749202 0
    outer loop
      vertex -49.5 82 3.5
      vertex -49.44439160078764 81.15157975256443 3.5
      vertex -49.44439160078764 81.15157975256443 0
    endloop
  endfacet
  facet normal 0.9807852802550153 0.19509032276125596 0
    outer loop
      vertex -49.44439160078764 81.15157975256443 3.5
      vertex -49.27851787209511 80.31767620891333 3.5
      vertex -49.27851787209511 80.31767620891333 0
    endloop
  endfacet
  facet normal 0.9469301297348746 0.3214394645968252 0
    outer loop
      vertex -49.27851787209511 80.31767620891333 3.5
      vertex -49.00521696358919 79.5125576928258 3.5
      vertex -49.00521696358919 79.5125576928258 0
    endloop
  endfacet
  facet normal 0.997858923371175 0.06540312720749202 0
    outer loop
      vertex -49.5 82 0
      vertex -49.5 82 3.5
      vertex -49.44439160078764 81.15157975256443 0
    endloop
  endfacet
  facet normal 0.9807852802550153 0.19509032276125596 0
    outer loop
      vertex -49.44439160078764 81.15157975256443 0
      vertex -49.44439160078764 81.15157975256443 3.5
      vertex -49.27851787209511 80.31767620891333 0
    endloop
  endfacet
  facet normal 0.9469301297348746 0.3214394645968252 0
    outer loop
      vertex -49.27851787209511 80.31767620891333 0
      vertex -49.27851787209511 80.31767620891333 3.5
      vertex -49.00521696358919 79.5125576928258 0
    endloop
  endfacet
  facet normal 0.8968727427392954 0.4422886877722437 0
    outer loop
      vertex -49.00521696358919 79.5125576928258 3.5
      vertex -48.62916512787342 78.75 3.5
      vertex -48.62916512787342 78.75 0
    endloop
  endfacet
  facet normal 0.8968727427392954 0.4422886877722437 0
    outer loop
      vertex -49.00521696358919 79.5125576928258 0
      vertex -49.00521696358919 79.5125576928258 3.5
      vertex -48.62916512787342 78.75 0
    endloop
  endfacet
  facet normal 0.8314696079213014 0.5555702395765969 0
    outer loop
      vertex -48.62916512787342 78.75 3.5
      vertex -48.15679670870304 78.04305071383715 3.5
      vertex -48.15679670870304 78.04305071383715 0
    endloop
  endfacet
  facet normal 0.7518398141696865 0.6593458074707774 0
    outer loop
      vertex -48.15679670870304 78.04305071383715 3.5
      vertex -47.596194081008434 77.40380591899157 3.5
      vertex -47.596194081008434 77.40380591899157 0
    endloop
  endfacet
  facet normal 0.8314696079213014 0.5555702395765969 0
    outer loop
      vertex -48.62916512787342 78.75 0
      vertex -48.62916512787342 78.75 3.5
      vertex -48.15679670870304 78.04305071383715 0
    endloop
  endfacet
  facet normal 0.7518398141696865 0.6593458074707774 0
    outer loop
      vertex -48.15679670870304 78.04305071383715 3.5
      vertex -47.596194081008434 77.40380591899157 0
      vertex -48.15679670870304 78.04305071383715 0
    endloop
  endfacet
  facet normal 0.6593458074707774 0.7518398141696865 0
    outer loop
      vertex -47.596194081008434 77.40380591899157 3.5
      vertex -46.95694928616285 76.84320329129696 3.5
      vertex -46.95694928616285 76.84320329129696 0
    endloop
  endfacet
  facet normal 0.5555702395765969 0.8314696079213014 0
    outer loop
      vertex -46.95694928616285 76.84320329129696 3.5
      vertex -46.25 76.37083487212658 3.5
      vertex -46.25 76.37083487212658 0
    endloop
  endfacet
  facet normal 0.4422886877722437 0.8968727427392954 0
    outer loop
      vertex -46.25 76.37083487212658 3.5
      vertex -45.487442307174206 75.99478303641081 3.5
      vertex -45.487442307174206 75.99478303641081 0
    endloop
  endfacet
  facet normal 0.6593458074707774 0.7518398141696865 0
    outer loop
      vertex -47.596194081008434 77.40380591899157 0
      vertex -47.596194081008434 77.40380591899157 3.5
      vertex -46.95694928616285 76.84320329129696 0
    endloop
  endfacet
  facet normal 0.5555702395765969 0.8314696079213014 0
    outer loop
      vertex -46.95694928616285 76.84320329129696 0
      vertex -46.95694928616285 76.84320329129696 3.5
      vertex -46.25 76.37083487212658 0
    endloop
  endfacet
  facet normal 0.4422886877722437 0.8968727427392954 0
    outer loop
      vertex -46.25 76.37083487212658 3.5
      vertex -45.487442307174206 75.99478303641081 0
      vertex -46.25 76.37083487212658 0
    endloop
  endfacet
  facet normal 0.3214394645968252 0.9469301297348746 0
    outer loop
      vertex -45.487442307174206 75.99478303641081 3.5
      vertex -44.682323791086674 75.72148212790489 0
      vertex -45.487442307174206 75.99478303641081 0
    endloop
  endfacet
  facet normal -0.8314696064647734 0.5555702417564451 0
    outer loop
      vertex -37.84320329129696 78.04305071383715 3.5
      vertex -37.70492419600487 78.25 3.5
      vertex -37.70492419600487 78.25 0
    endloop
  endfacet
  facet normal -0.7518398141696865 0.6593458074707774 0
    outer loop
      vertex -38.403805918991566 77.40380591899157 3.5
      vertex -37.84320329129696 78.04305071383715 3.5
      vertex -37.84320329129696 78.04305071383715 0
    endloop
  endfacet
  facet normal -0.8314696064647734 0.5555702417564451 0
    outer loop
      vertex -37.84320329129696 78.04305071383715 3.5
      vertex -37.70492419600487 78.25 0
      vertex -37.84320329129696 78.04305071383715 0
    endloop
  endfacet
  facet normal -0.7518398141696865 0.6593458074707774 0
    outer loop
      vertex -38.403805918991566 77.40380591899157 3.5
      vertex -37.84320329129696 78.04305071383715 0
      vertex -38.403805918991566 77.40380591899157 0
    endloop
  endfacet
  facet normal 0.3214394645968252 0.9469301297348746 0
    outer loop
      vertex -45.487442307174206 75.99478303641081 3.5
      vertex -44.682323791086674 75.72148212790489 3.5
      vertex -44.682323791086674 75.72148212790489 0
    endloop
  endfacet
  facet normal 0.19509032276125596 0.9807852802550153 0
    outer loop
      vertex -44.682323791086674 75.72148212790489 3.5
      vertex -43.84842024743557 75.55560839921236 3.5
      vertex -43.84842024743557 75.55560839921236 0
    endloop
  endfacet
  facet normal 0.06540312720749202 0.997858923371175 0
    outer loop
      vertex -43.84842024743557 75.55560839921236 3.5
      vertex -43 75.5 3.5
      vertex -43 75.5 0
    endloop
  endfacet
  facet normal -0.06540312720749202 0.997858923371175 0
    outer loop
      vertex -43 75.5 3.5
      vertex -42.15157975256443 75.55560839921236 3.5
      vertex -42.15157975256443 75.55560839921236 0
    endloop
  endfacet
  facet normal -0.19509032276125596 0.9807852802550153 0
    outer loop
      vertex -42.15157975256443 75.55560839921236 3.5
      vertex -41.317676208913326 75.72148212790489 3.5
      vertex -41.317676208913326 75.72148212790489 0
    endloop
  endfacet
  facet normal 0.19509032276125596 0.9807852802550153 0
    outer loop
      vertex -44.682323791086674 75.72148212790489 3.5
      vertex -43.84842024743557 75.55560839921236 0
      vertex -44.682323791086674 75.72148212790489 0
    endloop
  endfacet
  facet normal 0.06540312720749202 0.997858923371175 0
    outer loop
      vertex -43.84842024743557 75.55560839921236 3.5
      vertex -43 75.5 0
      vertex -43.84842024743557 75.55560839921236 0
    endloop
  endfacet
  facet normal -0.06540312720749202 0.997858923371175 0
    outer loop
      vertex -43 75.5 3.5
      vertex -42.15157975256443 75.55560839921236 0
      vertex -43 75.5 0
    endloop
  endfacet
  facet normal -0.19509032276125596 0.9807852802550153 0
    outer loop
      vertex -42.15157975256443 75.55560839921236 3.5
      vertex -41.317676208913326 75.72148212790489 0
      vertex -42.15157975256443 75.55560839921236 0
    endloop
  endfacet
  facet normal -0.4422886877722437 0.8968727427392954 0
    outer loop
      vertex -39.75 76.37083487212658 3.5
      vertex -39.75 76.37083487212658 0
      vertex -40.512557692825794 75.99478303641081 3.5
    endloop
  endfacet
  facet normal -0.3214394645968252 0.9469301297348746 0
    outer loop
      vertex -40.512557692825794 75.99478303641081 3.5
      vertex -40.512557692825794 75.99478303641081 0
      vertex -41.317676208913326 75.72148212790489 3.5
    endloop
  endfacet
  facet normal -0.6593458074707774 0.7518398141696865 0
    outer loop
      vertex -38.403805918991566 77.40380591899157 3.5
      vertex -38.403805918991566 77.40380591899157 0
      vertex -39.04305071383715 76.84320329129696 3.5
    endloop
  endfacet
  facet normal -0.5555702395765969 0.8314696079213014 0
    outer loop
      vertex -39.04305071383715 76.84320329129696 3.5
      vertex -39.04305071383715 76.84320329129696 0
      vertex -39.75 76.37083487212658 3.5
    endloop
  endfacet
  facet normal -0.5555702395765969 0.8314696079213014 0
    outer loop
      vertex -39.75 76.37083487212658 3.5
      vertex -39.04305071383715 76.84320329129696 0
      vertex -39.75 76.37083487212658 0
    endloop
  endfacet
  facet normal -0.3214394645968252 0.9469301297348746 0
    outer loop
      vertex -41.317676208913326 75.72148212790489 0
      vertex -41.317676208913326 75.72148212790489 3.5
      vertex -40.512557692825794 75.99478303641081 0
    endloop
  endfacet
  facet normal -0.4422886877722437 0.8968727427392954 0
    outer loop
      vertex -40.512557692825794 75.99478303641081 0
      vertex -40.512557692825794 75.99478303641081 3.5
      vertex -39.75 76.37083487212658 0
    endloop
  endfacet
  facet normal -0.6593458074707774 0.7518398141696865 0
    outer loop
      vertex -39.04305071383715 76.84320329129696 0
      vertex -39.04305071383715 76.84320329129696 3.5
      vertex -38.403805918991566 77.40380591899157 0
    endloop
  endfacet
  facet normal 0 1 0
    outer loop
      vertex -37.70492419600487 78.25 3.5
      vertex -27 78.25 3.5
      vertex -37.70492419600487 78.25 0
    endloop
  endfacet
  facet normal 0 1 0
    outer loop
      vertex -37.70492419600487 78.25 0
      vertex -27 78.25 3.5
      vertex -27 78.25 0
    endloop
  endfacet
  facet normal -1 0 0
    outer loop
      vertex -27 78.25 0
      vertex -27 78.25 3.5
      vertex -27 85.75 0
    endloop
  endfacet
  facet normal 0.8314696079213014 -0.5555702395765969 0
    outer loop
      vertex 21.84320329129696 85.95694928616285 3.5
      vertex 21.37083487212658 85.25 3.5
      vertex 21.37083487212658 85.25 0
    endloop
  endfacet
  facet normal 0.7518398141696865 -0.6593458074707774 0
    outer loop
      vertex 22.403805918991566 86.59619408100843 3.5
      vertex 21.84320329129696 85.95694928616285 3.5
      vertex 21.84320329129696 85.95694928616285 0
    endloop
  endfacet
  facet normal 0.8968727427392954 -0.4422886877722437 0
    outer loop
      vertex 21.37083487212658 85.25 3.5
      vertex 20.99478303641081 84.4874423071742 3.5
      vertex 20.99478303641081 84.4874423071742 0
    endloop
  endfacet
  facet normal 0.7518398141696865 -0.6593458074707774 0
    outer loop
      vertex 22.403805918991566 86.59619408100843 3.5
      vertex 21.84320329129696 85.95694928616285 0
      vertex 22.403805918991566 86.59619408100843 0
    endloop
  endfacet
  facet normal 0.8314696079213014 -0.5555702395765969 0
    outer loop
      vertex 21.84320329129696 85.95694928616285 0
      vertex 21.84320329129696 85.95694928616285 3.5
      vertex 21.37083487212658 85.25 0
    endloop
  endfacet
  facet normal 0.8968727427392954 -0.4422886877722437 0
    outer loop
      vertex 21.37083487212658 85.25 0
      vertex 21.37083487212658 85.25 3.5
      vertex 20.99478303641081 84.4874423071742 0
    endloop
  endfacet
  facet normal 0.9807852802550153 -0.19509032276125596 0
    outer loop
      vertex 20.721482127904892 83.68232379108667 3.5
      vertex 20.55560839921236 82.84842024743557 3.5
      vertex 20.55560839921236 82.84842024743557 0
    endloop
  endfacet
  facet normal 0.997858923371175 -0.06540312720749202 0
    outer loop
      vertex 20.55560839921236 82.84842024743557 3.5
      vertex 20.5 82 3.5
      vertex 20.5 82 0
    endloop
  endfacet
  facet normal 0.9469301297348746 -0.3214394645968252 0
    outer loop
      vertex 20.99478303641081 84.4874423071742 3.5
      vertex 20.721482127904892 83.68232379108667 3.5
      vertex 20.721482127904892 83.68232379108667 0
    endloop
  endfacet
  facet normal 0.997858923371175 -0.06540312720749202 0
    outer loop
      vertex 20.55560839921236 82.84842024743557 0
      vertex 20.55560839921236 82.84842024743557 3.5
      vertex 20.5 82 0
    endloop
  endfacet
  facet normal 0.9469301297348746 -0.3214394645968252 0
    outer loop
      vertex 20.99478303641081 84.4874423071742 0
      vertex 20.99478303641081 84.4874423071742 3.5
      vertex 20.721482127904892 83.68232379108667 0
    endloop
  endfacet
  facet normal 0.9807852802550153 -0.19509032276125596 0
    outer loop
      vertex 20.721482127904892 83.68232379108667 0
      vertex 20.721482127904892 83.68232379108667 3.5
      vertex 20.55560839921236 82.84842024743557 0
    endloop
  endfacet
  facet normal 0.5555702395765969 -0.8314696079213014 0
    outer loop
      vertex 23.75 87.62916512787342 3.5
      vertex 23.043050713837147 87.15679670870304 3.5
      vertex 23.043050713837147 87.15679670870304 0
    endloop
  endfacet
  facet normal 0.6593458074707774 -0.7518398141696865 0
    outer loop
      vertex 23.043050713837147 87.15679670870304 3.5
      vertex 22.403805918991566 86.59619408100843 3.5
      vertex 22.403805918991566 86.59619408100843 0
    endloop
  endfacet
  facet normal 0.4422886877722437 -0.8968727427392954 0
    outer loop
      vertex 24.512557692825794 88.00521696358919 3.5
      vertex 23.75 87.62916512787342 3.5
      vertex 23.75 87.62916512787342 0
    endloop
  endfacet
  facet normal 0.3214394645968252 -0.9469301297348746 0
    outer loop
      vertex 25.317676208913326 88.27851787209511 3.5
      vertex 24.512557692825794 88.00521696358919 3.5
      vertex 24.512557692825794 88.00521696358919 0
    endloop
  endfacet
  facet normal 0.19509032276125596 -0.9807852802550153 0
    outer loop
      vertex 25.317676208913326 88.27851787209511 3.5
      vertex 25.317676208913326 88.27851787209511 0
      vertex 26.15157975256443 88.44439160078764 3.5
    endloop
  endfacet
  facet normal 0.4422886877722437 -0.8968727427392954 0
    outer loop
      vertex 24.512557692825794 88.00521696358919 3.5
      vertex 23.75 87.62916512787342 0
      vertex 24.512557692825794 88.00521696358919 0
    endloop
  endfacet
  facet normal 0.6593458074707774 -0.7518398141696865 0
    outer loop
      vertex 23.043050713837147 87.15679670870304 0
      vertex 23.043050713837147 87.15679670870304 3.5
      vertex 22.403805918991566 86.59619408100843 0
    endloop
  endfacet
  facet normal 0.5555702395765969 -0.8314696079213014 0
    outer loop
      vertex 23.75 87.62916512787342 3.5
      vertex 23.043050713837147 87.15679670870304 0
      vertex 23.75 87.62916512787342 0
    endloop
  endfacet
  facet normal 0.3214394645968252 -0.9469301297348746 0
    outer loop
      vertex 25.317676208913326 88.27851787209511 3.5
      vertex 24.512557692825794 88.00521696358919 0
      vertex 25.317676208913326 88.27851787209511 0
    endloop
  endfacet
  facet normal 0.19509032276125596 -0.9807852802550153 0
    outer loop
      vertex 26.15157975256443 88.44439160078764 0
      vertex 26.15157975256443 88.44439160078764 3.5
      vertex 25.317676208913326 88.27851787209511 0
    endloop
  endfacet
  facet normal 0.06540312720749202 -0.997858923371175 0
    outer loop
      vertex 27 88.5 3.5
      vertex 26.15157975256443 88.44439160078764 3.5
      vertex 26.15157975256443 88.44439160078764 0
    endloop
  endfacet
  facet normal -0.06540312720749202 -0.997858923371175 0
    outer loop
      vertex 27.84842024743557 88.44439160078764 3.5
      vertex 27 88.5 3.5
      vertex 27 88.5 0
    endloop
  endfacet
  facet normal -0.19509032276125596 -0.9807852802550153 0
    outer loop
      vertex 28.682323791086674 88.27851787209511 3.5
      vertex 27.84842024743557 88.44439160078764 3.5
      vertex 27.84842024743557 88.44439160078764 0
    endloop
  endfacet
  facet normal -0.3214394645968252 -0.9469301297348746 0
    outer loop
      vertex 28.682323791086674 88.27851787209511 3.5
      vertex 28.682323791086674 88.27851787209511 0
      vertex 29.487442307174206 88.00521696358919 3.5
    endloop
  endfacet
  facet normal -0.4422886877722437 -0.8968727427392954 0
    outer loop
      vertex 29.487442307174206 88.00521696358919 3.5
      vertex 29.487442307174206 88.00521696358919 0
      vertex 30.25 87.62916512787342 3.5
    endloop
  endfacet
  facet normal 0.06540312720749202 -0.997858923371175 0
    outer loop
      vertex 27 88.5 3.5
      vertex 26.15157975256443 88.44439160078764 0
      vertex 27 88.5 0
    endloop
  endfacet
  facet normal -0.06540312720749202 -0.997858923371175 0
    outer loop
      vertex 27.84842024743557 88.44439160078764 3.5
      vertex 27 88.5 0
      vertex 27.84842024743557 88.44439160078764 0
    endloop
  endfacet
  facet normal -0.19509032276125596 -0.9807852802550153 0
    outer loop
      vertex 28.682323791086674 88.27851787209511 3.5
      vertex 27.84842024743557 88.44439160078764 0
      vertex 28.682323791086674 88.27851787209511 0
    endloop
  endfacet
  facet normal -0.3214394645968252 -0.9469301297348746 0
    outer loop
      vertex 29.487442307174206 88.00521696358919 3.5
      vertex 28.682323791086674 88.27851787209511 0
      vertex 29.487442307174206 88.00521696358919 0
    endloop
  endfacet
  facet normal -0.4422886877722437 -0.8968727427392954 0
    outer loop
      vertex 30.25 87.62916512787342 0
      vertex 30.25 87.62916512787342 3.5
      vertex 29.487442307174206 88.00521696358919 0
    endloop
  endfacet
  facet normal -0.5555702395765969 -0.8314696079213014 0
    outer loop
      vertex 30.25 87.62916512787342 3.5
      vertex 30.25 87.62916512787342 0
      vertex 30.956949286162853 87.15679670870304 3.5
    endloop
  endfacet
  facet normal -0.6593458074707774 -0.7518398141696865 0
    outer loop
      vertex 30.956949286162853 87.15679670870304 3.5
      vertex 30.956949286162853 87.15679670870304 0
      vertex 31.596194081008434 86.59619408100843 3.5
    endloop
  endfacet
  facet normal -0.5555702395765969 -0.8314696079213014 0
    outer loop
      vertex 30.956949286162853 87.15679670870304 3.5
      vertex 30.25 87.62916512787342 0
      vertex 30.956949286162853 87.15679670870304 0
    endloop
  endfacet
  facet normal -0.6593458074707774 -0.7518398141696865 0
    outer loop
      vertex 31.596194081008434 86.59619408100843 0
      vertex 31.596194081008434 86.59619408100843 3.5
      vertex 30.956949286162853 87.15679670870304 0
    endloop
  endfacet
  facet normal -0.7518398141696865 -0.6593458074707774 0
    outer loop
      vertex 31.596194081008434 86.59619408100843 3.5
      vertex 31.596194081008434 86.59619408100843 0
      vertex 32.15679670870304 85.95694928616285 3.5
    endloop
  endfacet
  facet normal -0.8314696064647734 -0.5555702417564451 0
    outer loop
      vertex 32.15679670870304 85.95694928616285 3.5
      vertex 32.15679670870304 85.95694928616285 0
      vertex 32.29507580399513 85.75 3.5
    endloop
  endfacet
  facet normal -0.7518398141696865 -0.6593458074707774 0
    outer loop
      vertex 32.15679670870304 85.95694928616285 0
      vertex 32.15679670870304 85.95694928616285 3.5
      vertex 31.596194081008434 86.59619408100843 0
    endloop
  endfacet
  facet normal -0.8314696064647734 -0.5555702417564451 0
    outer loop
      vertex 32.29507580399513 85.75 3.5
      vertex 32.15679670870304 85.95694928616285 0
      vertex 32.29507580399513 85.75 0
    endloop
  endfacet
  facet normal 0 -1 0
    outer loop
      vertex 32.29507580399513 85.75 3.5
      vertex 32.29507580399513 85.75 0
      vertex 43 85.75 3.5
    endloop
  endfacet
  facet normal 0 -1 0
    outer loop
      vertex 43 85.75 0
      vertex 43 85.75 3.5
      vertex 32.29507580399513 85.75 0
    endloop
  endfacet
  facet normal -1 0 0
    outer loop
      vertex 43 85.75 3.5
      vertex 43 85.75 0
      vertex 43 78.25 3.5
    endloop
  endfacet
  facet normal 0.997858923371175 0.06540312720749202 0
    outer loop
      vertex 20.5 82 3.5
      vertex 20.55560839921236 81.15157975256443 3.5
      vertex 20.55560839921236 81.15157975256443 0
    endloop
  endfacet
  facet normal 0.9807852802550153 0.19509032276125596 0
    outer loop
      vertex 20.55560839921236 81.15157975256443 3.5
      vertex 20.721482127904892 80.31767620891333 3.5
      vertex 20.721482127904892 80.31767620891333 0
    endloop
  endfacet
  facet normal 0.9469301297348746 0.3214394645968252 0
    outer loop
      vertex 20.721482127904892 80.31767620891333 3.5
      vertex 20.99478303641081 79.5125576928258 3.5
      vertex 20.99478303641081 79.5125576928258 0
    endloop
  endfacet
  facet normal 0.997858923371175 0.06540312720749202 0
    outer loop
      vertex 20.5 82 0
      vertex 20.5 82 3.5
      vertex 20.55560839921236 81.15157975256443 0
    endloop
  endfacet
  facet normal 0.9807852802550153 0.19509032276125596 0
    outer loop
      vertex 20.55560839921236 81.15157975256443 0
      vertex 20.55560839921236 81.15157975256443 3.5
      vertex 20.721482127904892 80.31767620891333 0
    endloop
  endfacet
  facet normal 0.9469301297348746 0.3214394645968252 0
    outer loop
      vertex 20.721482127904892 80.31767620891333 0
      vertex 20.721482127904892 80.31767620891333 3.5
      vertex 20.99478303641081 79.5125576928258 0
    endloop
  endfacet
  facet normal 0.8968727427392954 0.4422886877722437 0
    outer loop
      vertex 20.99478303641081 79.5125576928258 3.5
      vertex 21.37083487212658 78.75 3.5
      vertex 21.37083487212658 78.75 0
    endloop
  endfacet
  facet normal 0.8314696079213014 0.5555702395765969 0
    outer loop
      vertex 21.37083487212658 78.75 3.5
      vertex 21.84320329129696 78.04305071383715 3.5
      vertex 21.84320329129696 78.04305071383715 0
    endloop
  endfacet
  facet normal 0.7518398141696865 0.6593458074707774 0
    outer loop
      vertex 21.84320329129696 78.04305071383715 3.5
      vertex 22.403805918991566 77.40380591899157 3.5
      vertex 22.403805918991566 77.40380591899157 0
    endloop
  endfacet
  facet normal 0.8968727427392954 0.4422886877722437 0
    outer loop
      vertex 20.99478303641081 79.5125576928258 0
      vertex 20.99478303641081 79.5125576928258 3.5
      vertex 21.37083487212658 78.75 0
    endloop
  endfacet
  facet normal 0.8314696079213014 0.5555702395765969 0
    outer loop
      vertex 21.37083487212658 78.75 0
      vertex 21.37083487212658 78.75 3.5
      vertex 21.84320329129696 78.04305071383715 0
    endloop
  endfacet
  facet normal 0.7518398141696865 0.6593458074707774 0
    outer loop
      vertex 21.84320329129696 78.04305071383715 3.5
      vertex 22.403805918991566 77.40380591899157 0
      vertex 21.84320329129696 78.04305071383715 0
    endloop
  endfacet
  facet normal 0.6593458074707774 0.7518398141696865 0
    outer loop
      vertex 22.403805918991566 77.40380591899157 3.5
      vertex 23.043050713837147 76.84320329129696 3.5
      vertex 23.043050713837147 76.84320329129696 0
    endloop
  endfacet
  facet normal 0.5555702395765969 0.8314696079213014 0
    outer loop
      vertex 23.043050713837147 76.84320329129696 3.5
      vertex 23.75 76.37083487212658 3.5
      vertex 23.75 76.37083487212658 0
    endloop
  endfacet
  facet normal 0.4422886877722437 0.8968727427392954 0
    outer loop
      vertex 23.75 76.37083487212658 3.5
      vertex 24.512557692825794 75.99478303641081 3.5
      vertex 24.512557692825794 75.99478303641081 0
    endloop
  endfacet
  facet normal 0.3214394645968252 0.9469301297348746 0
    outer loop
      vertex 24.512557692825794 75.99478303641081 3.5
      vertex 25.317676208913326 75.72148212790489 3.5
      vertex 25.317676208913326 75.72148212790489 0
    endloop
  endfacet
  facet normal 0.19509032276125596 0.9807852802550153 0
    outer loop
      vertex 25.317676208913326 75.72148212790489 3.5
      vertex 26.15157975256443 75.55560839921236 3.5
      vertex 26.15157975256443 75.55560839921236 0
    endloop
  endfacet
  facet normal 0.6593458074707774 0.7518398141696865 0
    outer loop
      vertex 22.403805918991566 77.40380591899157 0
      vertex 22.403805918991566 77.40380591899157 3.5
      vertex 23.043050713837147 76.84320329129696 0
    endloop
  endfacet
  facet normal 0.5555702395765969 0.8314696079213014 0
    outer loop
      vertex 23.043050713837147 76.84320329129696 3.5
      vertex 23.75 76.37083487212658 0
      vertex 23.043050713837147 76.84320329129696 0
    endloop
  endfacet
  facet normal 0.4422886877722437 0.8968727427392954 0
    outer loop
      vertex 23.75 76.37083487212658 3.5
      vertex 24.512557692825794 75.99478303641081 0
      vertex 23.75 76.37083487212658 0
    endloop
  endfacet
  facet normal 0.3214394645968252 0.9469301297348746 0
    outer loop
      vertex 24.512557692825794 75.99478303641081 3.5
      vertex 25.317676208913326 75.72148212790489 0
      vertex 24.512557692825794 75.99478303641081 0
    endloop
  endfacet
  facet normal 0.19509032276125596 0.9807852802550153 0
    outer loop
      vertex 25.317676208913326 75.72148212790489 0
      vertex 25.317676208913326 75.72148212790489 3.5
      vertex 26.15157975256443 75.55560839921236 0
    endloop
  endfacet
  facet normal 0.06540312720749202 0.997858923371175 0
    outer loop
      vertex 26.15157975256443 75.55560839921236 3.5
      vertex 27 75.5 3.5
      vertex 27 75.5 0
    endloop
  endfacet
  facet normal -0.06540312720749202 0.997858923371175 0
    outer loop
      vertex 27 75.5 3.5
      vertex 27.84842024743557 75.55560839921236 3.5
      vertex 27.84842024743557 75.55560839921236 0
    endloop
  endfacet
  facet normal -0.4422886877722437 0.8968727427392954 0
    outer loop
      vertex 30.25 76.37083487212658 3.5
      vertex 30.25 76.37083487212658 0
      vertex 29.487442307174206 75.99478303641081 3.5
    endloop
  endfacet
  facet normal -0.19509032276125596 0.9807852802550153 0
    outer loop
      vertex 27.84842024743557 75.55560839921236 3.5
      vertex 28.682323791086674 75.72148212790489 3.5
      vertex 28.682323791086674 75.72148212790489 0
    endloop
  endfacet
  facet normal -0.3214394645968252 0.9469301297348746 0
    outer loop
      vertex 29.487442307174206 75.99478303641081 3.5
      vertex 29.487442307174206 75.99478303641081 0
      vertex 28.682323791086674 75.72148212790489 3.5
    endloop
  endfacet
  facet normal 0.06540312720749202 0.997858923371175 0
    outer loop
      vertex 26.15157975256443 75.55560839921236 3.5
      vertex 27 75.5 0
      vertex 26.15157975256443 75.55560839921236 0
    endloop
  endfacet
  facet normal -0.06540312720749202 0.997858923371175 0
    outer loop
      vertex 27 75.5 3.5
      vertex 27.84842024743557 75.55560839921236 0
      vertex 27 75.5 0
    endloop
  endfacet
  facet normal -0.3214394645968252 0.9469301297348746 0
    outer loop
      vertex 28.682323791086674 75.72148212790489 3.5
      vertex 29.487442307174206 75.99478303641081 0
      vertex 28.682323791086674 75.72148212790489 0
    endloop
  endfacet
  facet normal -0.19509032276125596 0.9807852802550153 0
    outer loop
      vertex 27.84842024743557 75.55560839921236 3.5
      vertex 28.682323791086674 75.72148212790489 0
      vertex 27.84842024743557 75.55560839921236 0
    endloop
  endfacet
  facet normal -0.4422886877722437 0.8968727427392954 0
    outer loop
      vertex 29.487442307174206 75.99478303641081 0
      vertex 29.487442307174206 75.99478303641081 3.5
      vertex 30.25 76.37083487212658 0
    endloop
  endfacet
  facet normal -0.8314696064647734 0.5555702417564451 0
    outer loop
      vertex 32.15679670870304 78.04305071383715 3.5
      vertex 32.29507580399513 78.25 3.5
      vertex 32.29507580399513 78.25 0
    endloop
  endfacet
  facet normal -0.7518398141696865 0.6593458074707774 0
    outer loop
      vertex 32.15679670870304 78.04305071383715 3.5
      vertex 32.15679670870304 78.04305071383715 0
      vertex 31.596194081008434 77.40380591899157 3.5
    endloop
  endfacet
  facet normal -0.7518398141696865 0.6593458074707774 0
    outer loop
      vertex 31.596194081008434 77.40380591899157 0
      vertex 31.596194081008434 77.40380591899157 3.5
      vertex 32.15679670870304 78.04305071383715 0
    endloop
  endfacet
  facet normal -0.8314696064647734 0.5555702417564451 0
    outer loop
      vertex 32.15679670870304 78.04305071383715 3.5
      vertex 32.29507580399513 78.25 0
      vertex 32.15679670870304 78.04305071383715 0
    endloop
  endfacet
  facet normal 0 1 0
    outer loop
      vertex 32.29507580399513 78.25 0
      vertex 32.29507580399513 78.25 3.5
      vertex 43 78.25 0
    endloop
  endfacet
  facet normal -0.5555702395765969 0.8314696079213014 0
    outer loop
      vertex 30.956949286162853 76.84320329129696 3.5
      vertex 30.956949286162853 76.84320329129696 0
      vertex 30.25 76.37083487212658 3.5
    endloop
  endfacet
  facet normal -0.6593458074707774 0.7518398141696865 0
    outer loop
      vertex 30.956949286162853 76.84320329129696 3.5
      vertex 31.596194081008434 77.40380591899157 3.5
      vertex 31.596194081008434 77.40380591899157 0
    endloop
  endfacet
  facet normal -0.5555702395765969 0.8314696079213014 0
    outer loop
      vertex 30.25 76.37083487212658 3.5
      vertex 30.956949286162853 76.84320329129696 0
      vertex 30.25 76.37083487212658 0
    endloop
  endfacet
  facet normal -0.6593458074707774 0.7518398141696865 0
    outer loop
      vertex 30.956949286162853 76.84320329129696 3.5
      vertex 31.596194081008434 77.40380591899157 0
      vertex 30.956949286162853 76.84320329129696 0
    endloop
  endfacet
  facet normal 0 1 0
    outer loop
      vertex 43 78.25 3.5
      vertex 43 78.25 0
      vertex 32.29507580399513 78.25 3.5
    endloop
  endfacet
  facet normal -1 0 0
    outer loop
      vertex 43 78.25 0
      vertex 43 78.25 3.5
      vertex 43 85.75 0
    endloop
  endfacet
endsolid OpenSCAD_Model
