solid OpenSCAD_Model
  facet normal 0 -1 0
    outer loop
      vertex 0.01 -14.65 0
      vertex 0 -14.65 7.2
      vertex 0 -14.65 0
    endloop
  endfacet
  facet normal 0 0 -1
    outer loop
      vertex 0.01 -14.65 0
      vertex 0 -14.65 0
      vertex 0 14.65 0
    endloop
  endfacet
  facet normal -1 0 0
    outer loop
      vertex 0 -14.65 0
      vertex 0 -14.65 7.2
      vertex 0 14.65 0
    endloop
  endfacet
  facet normal 0 -1 0
    outer loop
      vertex 0.01 -14.65 0
      vertex 14 -14.65 8.6
      vertex 0 -14.65 7.2
    endloop
  endfacet
  facet normal -0.0995037190209989 0 0.9950371902099892
    outer loop
      vertex 0 -14.65 7.2
      vertex 14 -14.65 8.6
      vertex 0 14.65 7.2
    endloop
  endfacet
  facet normal 0 0 -1
    outer loop
      vertex 0.01 -14.65 0
      vertex 0 14.65 0
      vertex 14 14.629071428571429 0
    endloop
  endfacet
  facet normal 0 1 0
    outer loop
      vertex 0 14.65 0
      vertex 0 14.65 7.2
      vertex 14 14.65 0
    endloop
  endfacet
  facet normal -1 0 0
    outer loop
      vertex 0 -14.65 7.2
      vertex 0 14.65 7.2
      vertex 0 14.65 0
    endloop
  endfacet
  facet normal 0 -1 0
    outer loop
      vertex 0.01 -14.65 0
      vertex 14 -14.65 0
      vertex 14 -14.65 8.6
    endloop
  endfacet
  facet normal 0 0 -1
    outer loop
      vertex 0.01 -14.65 0
      vertex 14 14.629071428571429 0
      vertex 14 -14.65 0
    endloop
  endfacet
  facet normal 0 0 -1
    outer loop
      vertex 0 14.65 0
      vertex 14 14.65 0
      vertex 14 14.629071428571429 0
    endloop
  endfacet
  facet normal -0.0995037190209989 0 0.9950371902099892
    outer loop
      vertex 0 14.65 7.2
      vertex 14 -14.65 8.6
      vertex 14 14.65 8.6
    endloop
  endfacet
  facet normal 0 1 0
    outer loop
      vertex 0 14.65 7.2
      vertex 14 14.65 8.6
      vertex 14 14.65 0
    endloop
  endfacet
  facet normal -1 0 0
    outer loop
      vertex 14 -20 0
      vertex 14 -14.65 8.6
      vertex 14 -14.65 0
    endloop
  endfacet
  facet normal 0 -1 0
    outer loop
      vertex 14 -20 0
      vertex 17 -20 0
      vertex 17 -20 8.6
    endloop
  endfacet
  facet normal 0 0 -1
    outer loop
      vertex 14 -20 0
      vertex 17 20 0
      vertex 17 -20 0
    endloop
  endfacet
  facet normal 1 0 0
    outer loop
      vertex 17 -20 0
      vertex 17 -1.2175228580174413 2.7132933194175295
      vertex 17 -1.4142135623730951 2.885786437626905
    endloop
  endfacet
  facet normal 1 0 0
    outer loop
      vertex 17 -20 0
      vertex 17 -1.4142135623730951 2.885786437626905
      vertex 17 -1.5867066805824703 3.0824771419825585
    endloop
  endfacet
  facet normal 1 0 0
    outer loop
      vertex 17 -20 0
      vertex 17 -1.5867066805824703 3.0824771419825585
      vertex 17 -1.7320508075688772 3.3
    endloop
  endfacet
  facet normal 1 0 0
    outer loop
      vertex 17 -20 0
      vertex 17 -0.5176380902050415 2.3681483474218634
      vertex 17 -0.7653668647301796 2.4522409349774263
    endloop
  endfacet
  facet normal 1 0 0
    outer loop
      vertex 17 -20 0
      vertex 17 -0.26105238444010315 2.317110277252379
      vertex 17 -0.5176380902050415 2.3681483474218634
    endloop
  endfacet
  facet normal 1 0 0
    outer loop
      vertex 17 -20 0
      vertex 17 0 2.3
      vertex 17 -0.26105238444010315 2.317110277252379
    endloop
  endfacet
  facet normal 1 0 0
    outer loop
      vertex 17 -20 0
      vertex 17 0.26105238444010315 2.317110277252379
      vertex 17 0 2.3
    endloop
  endfacet
  facet normal 1 0 0
    outer loop
      vertex 17 -20 0
      vertex 17 -0.7653668647301796 2.4522409349774263
      vertex 17 -1 2.5679491924311226
    endloop
  endfacet
  facet normal 1 0 0
    outer loop
      vertex 17 -20 0
      vertex 17 -1 2.5679491924311226
      vertex 17 -1.2175228580174413 2.7132933194175295
    endloop
  endfacet
  facet normal 0 0 -1
    outer loop
      vertex 14 -20 0
      vertex 14 -14.65 0
      vertex 17 20 0
    endloop
  endfacet
  facet normal 1 0 0
    outer loop
      vertex 17 -20 0
      vertex 17 -1.7320508075688772 3.3
      vertex 17 -1.8477590650225735 3.53463313526982
    endloop
  endfacet
  facet normal 1 0 0
    outer loop
      vertex 17 -20 0
      vertex 17 -1.8477590650225735 3.53463313526982
      vertex 17 -1.9318516525781366 3.7823619097949583
    endloop
  endfacet
  facet normal 1 0 0
    outer loop
      vertex 17 -20 0
      vertex 17 -1.9318516525781366 3.7823619097949583
      vertex 17 -1.9828897227476208 4.038947615559897
    endloop
  endfacet
  facet normal 1 0 0
    outer loop
      vertex 17 -20 0
      vertex 17 -1.9828897227476208 4.038947615559897
      vertex 17 -2 4.3
    endloop
  endfacet
  facet normal 1 0 0
    outer loop
      vertex 17 -20 0
      vertex 17 -2 4.3
      vertex 17 -1.9828897227476208 4.561052384440103
    endloop
  endfacet
  facet normal -1 0 0
    outer loop
      vertex 14 -20 0
      vertex 14 -20 8.6
      vertex 14 -14.65 8.6
    endloop
  endfacet
  facet normal 0 -1 0
    outer loop
      vertex 14 -20 0
      vertex 17 -20 8.6
      vertex 14 -20 8.6
    endloop
  endfacet
  facet normal 1 0 0
    outer loop
      vertex 17 -20 0
      vertex 17 -1.9828897227476208 4.561052384440103
      vertex 17 -20 8.6
    endloop
  endfacet
  facet normal 0 0 1
    outer loop
      vertex 14 -20 8.6
      vertex 17 -20 8.6
      vertex 14 -14.65 8.6
    endloop
  endfacet
  facet normal 1 0 0
    outer loop
      vertex 17 -20 8.6
      vertex 17 -1.9828897227476208 4.561052384440103
      vertex 17 -1.9318516525781366 4.817638090205041
    endloop
  endfacet
  facet normal 1 0 0
    outer loop
      vertex 17 -20 8.6
      vertex 17 -1.9318516525781366 4.817638090205041
      vertex 17 -1.8477590650225735 5.065366864730179
    endloop
  endfacet
  facet normal 1 0 0
    outer loop
      vertex 17 -20 8.6
      vertex 17 -1.8477590650225735 5.065366864730179
      vertex 17 -1.7320508075688772 5.3
    endloop
  endfacet
  facet normal 1 0 0
    outer loop
      vertex 17 -20 8.6
      vertex 17 -1.7320508075688772 5.3
      vertex 17 -1.5867066805824703 5.517522858017442
    endloop
  endfacet
  facet normal 1 0 0
    outer loop
      vertex 17 -20 8.6
      vertex 17 -1.5867066805824703 5.517522858017442
      vertex 17 -1.4142135623730951 5.714213562373095
    endloop
  endfacet
  facet normal 1 0 0
    outer loop
      vertex 17 -20 8.6
      vertex 17 -1.4142135623730951 5.714213562373095
      vertex 17 -1.2175228580174413 5.886706680582471
    endloop
  endfacet
  facet normal 1 0 0
    outer loop
      vertex 17 -20 8.6
      vertex 17 -1.2175228580174413 5.886706680582471
      vertex 17 -1 6.0320508075688775
    endloop
  endfacet
  facet normal 1 0 0
    outer loop
      vertex 17 -20 8.6
      vertex 17 -1 6.0320508075688775
      vertex 17 -0.7653668647301796 6.147759065022573
    endloop
  endfacet
  facet normal 1 0 0
    outer loop
      vertex 17 -20 8.6
      vertex 17 -0.7653668647301796 6.147759065022573
      vertex 17 -0.5176380902050415 6.231851652578136
    endloop
  endfacet
  facet normal 1 0 0
    outer loop
      vertex 17 -20 8.6
      vertex 17 -0.5176380902050415 6.231851652578136
      vertex 17 -0.26105238444010315 6.282889722747621
    endloop
  endfacet
  facet normal 0 0 1
    outer loop
      vertex 14 -14.65 8.6
      vertex 17 -20 8.6
      vertex 14 14.65 8.6
    endloop
  endfacet
  facet normal 1 0 0
    outer loop
      vertex 17 -20 8.6
      vertex 17 -0.26105238444010315 6.282889722747621
      vertex 17 20 8.6
    endloop
  endfacet
  facet normal 1 0 0
    outer loop
      vertex 17 -20 0
      vertex 17 20 0
      vertex 17 0.26105238444010315 2.317110277252379
    endloop
  endfacet
  facet normal 0 0 -1
    outer loop
      vertex 14 -14.65 0
      vertex 14 14.629071428571429 0
      vertex 17 20 0
    endloop
  endfacet
  facet normal 1 0 0
    outer loop
      vertex 17 20 0
      vertex 17 0.5176380902050415 2.3681483474218634
      vertex 17 0.26105238444010315 2.317110277252379
    endloop
  endfacet
  facet normal 1 0 0
    outer loop
      vertex 17 20 0
      vertex 17 0.7653668647301796 2.4522409349774263
      vertex 17 0.5176380902050415 2.3681483474218634
    endloop
  endfacet
  facet normal 1 0 0
    outer loop
      vertex 17 20 0
      vertex 17 1 2.5679491924311226
      vertex 17 0.7653668647301796 2.4522409349774263
    endloop
  endfacet
  facet normal 1 0 0
    outer loop
      vertex 17 20 0
      vertex 17 1.2175228580174413 2.7132933194175295
      vertex 17 1 2.5679491924311226
    endloop
  endfacet
  facet normal 1 0 0
    outer loop
      vertex 17 20 0
      vertex 17 1.4142135623730951 2.885786437626905
      vertex 17 1.2175228580174413 2.7132933194175295
    endloop
  endfacet
  facet normal 1 0 0
    outer loop
      vertex 17 20 0
      vertex 17 1.5867066805824703 3.0824771419825585
      vertex 17 1.4142135623730951 2.885786437626905
    endloop
  endfacet
  facet normal 1 0 0
    outer loop
      vertex 17 20 0
      vertex 17 1.7320508075688772 3.3
      vertex 17 1.5867066805824703 3.0824771419825585
    endloop
  endfacet
  facet normal 1 0 0
    outer loop
      vertex 17 20 0
      vertex 17 1.8477590650225735 3.53463313526982
      vertex 17 1.7320508075688772 3.3
    endloop
  endfacet
  facet normal 1 0 0
    outer loop
      vertex 17 20 0
      vertex 17 1.9318516525781366 3.7823619097949583
      vertex 17 1.8477590650225735 3.53463313526982
    endloop
  endfacet
  facet normal 1 0 0
    outer loop
      vertex 17 20 0
      vertex 17 1.9828897227476208 4.038947615559897
      vertex 17 1.9318516525781366 3.7823619097949583
    endloop
  endfacet
  facet normal 0 0 -1
    outer loop
      vertex 14 14.629071428571429 0
      vertex 14 14.65 0
      vertex 17 20 0
    endloop
  endfacet
  facet normal 0 0 -1
    outer loop
      vertex 14 14.65 0
      vertex 14 20 0
      vertex 17 20 0
    endloop
  endfacet
  facet normal -1 0 0
    outer loop
      vertex 14 14.65 0
      vertex 14 20 8.6
      vertex 14 20 0
    endloop
  endfacet
  facet normal 1 0 0
    outer loop
      vertex 17 20 0
      vertex 17 20 8.6
      vertex 17 1.9828897227476208 4.038947615559897
    endloop
  endfacet
  facet normal 0 1 0
    outer loop
      vertex 14 20 0
      vertex 14 20 8.6
      vertex 17 20 0
    endloop
  endfacet
  facet normal 1 0 0
    outer loop
      vertex 17 20 8.6
      vertex 17 2 4.3
      vertex 17 1.9828897227476208 4.038947615559897
    endloop
  endfacet
  facet normal 1 0 0
    outer loop
      vertex 17 20 8.6
      vertex 17 1.9828897227476208 4.561052384440103
      vertex 17 2 4.3
    endloop
  endfacet
  facet normal 1 0 0
    outer loop
      vertex 17 20 8.6
      vertex 17 1.9318516525781366 4.817638090205041
      vertex 17 1.9828897227476208 4.561052384440103
    endloop
  endfacet
  facet normal 1 0 0
    outer loop
      vertex 17 20 8.6
      vertex 17 1.8477590650225735 5.065366864730179
      vertex 17 1.9318516525781366 4.817638090205041
    endloop
  endfacet
  facet normal 1 0 0
    outer loop
      vertex 17 20 8.6
      vertex 17 1.7320508075688772 5.3
      vertex 17 1.8477590650225735 5.065366864730179
    endloop
  endfacet
  facet normal 0 0 1
    outer loop
      vertex 17 -20 8.6
      vertex 14 20 8.6
      vertex 14 14.65 8.6
    endloop
  endfacet
  facet normal 1 0 0
    outer loop
      vertex 17 20 8.6
      vertex 17 1 6.0320508075688775
      vertex 17 1.2175228580174413 5.886706680582471
    endloop
  endfacet
  facet normal 1 0 0
    outer loop
      vertex 17 20 8.6
      vertex 17 0.7653668647301796 6.147759065022573
      vertex 17 1 6.0320508075688775
    endloop
  endfacet
  facet normal 1 0 0
    outer loop
      vertex 17 20 8.6
      vertex 17 -0.26105238444010315 6.282889722747621
      vertex 17 0 6.3
    endloop
  endfacet
  facet normal 1 0 0
    outer loop
      vertex 17 20 8.6
      vertex 17 0 6.3
      vertex 17 0.26105238444010315 6.282889722747621
    endloop
  endfacet
  facet normal 1 0 0
    outer loop
      vertex 17 20 8.6
      vertex 17 0.26105238444010315 6.282889722747621
      vertex 17 0.5176380902050415 6.231851652578136
    endloop
  endfacet
  facet normal 1 0 0
    outer loop
      vertex 17 20 8.6
      vertex 17 0.5176380902050415 6.231851652578136
      vertex 17 0.7653668647301796 6.147759065022573
    endloop
  endfacet
  facet normal 1 0 0
    outer loop
      vertex 17 20 8.6
      vertex 17 1.5867066805824703 5.517522858017442
      vertex 17 1.7320508075688772 5.3
    endloop
  endfacet
  facet normal 1 0 0
    outer loop
      vertex 17 20 8.6
      vertex 17 1.4142135623730951 5.714213562373095
      vertex 17 1.5867066805824703 5.517522858017442
    endloop
  endfacet
  facet normal 1 0 0
    outer loop
      vertex 17 20 8.6
      vertex 17 1.2175228580174413 5.886706680582471
      vertex 17 1.4142135623730951 5.714213562373095
    endloop
  endfacet
  facet normal 0 0 1
    outer loop
      vertex 17 -20 8.6
      vertex 17 20 8.6
      vertex 14 20 8.6
    endloop
  endfacet
  facet normal -1 0 0
    outer loop
      vertex 14 14.65 0
      vertex 14 14.65 8.6
      vertex 14 20 8.6
    endloop
  endfacet
  facet normal 0 1 0
    outer loop
      vertex 17 20 0
      vertex 14 20 8.6
      vertex 17 20 8.6
    endloop
  endfacet
  facet normal 1 0 0
    outer loop
      vertex 5.100000000000001 -0.7653668647301796 2.4522409349774263
      vertex 5.100000000000001 -0.7653668647301796 6.147759065022573
      vertex 5.100000000000001 -1 2.5679491924311226
    endloop
  endfacet
  facet normal 1 0 0
    outer loop
      vertex 5.100000000000001 -0.7653668647301796 2.4522409349774263
      vertex 5.100000000000001 -0.5176380902050415 2.3681483474218634
      vertex 5.100000000000001 -0.5176380902050415 6.231851652578136
    endloop
  endfacet
  facet normal 1 0 0
    outer loop
      vertex 5.100000000000001 -0.5176380902050415 2.3681483474218634
      vertex 5.100000000000001 -0.26105238444010315 2.317110277252379
      vertex 5.100000000000001 -0.26105238444010315 6.282889722747621
    endloop
  endfacet
  facet normal 1 0 0
    outer loop
      vertex 5.100000000000001 -0.26105238444010315 2.317110277252379
      vertex 5.100000000000001 0 2.3
      vertex 5.100000000000001 0 6.3
    endloop
  endfacet
  facet normal 1 0 0
    outer loop
      vertex 5.100000000000001 -1.2175228580174413 2.7132933194175295
      vertex 5.100000000000001 -1.2175228580174413 5.886706680582471
      vertex 5.100000000000001 -1.4142135623730951 2.885786437626905
    endloop
  endfacet
  facet normal 1 0 0
    outer loop
      vertex 5.100000000000001 -1.5867066805824703 3.0824771419825585
      vertex 5.100000000000001 -1.4142135623730951 2.885786437626905
      vertex 5.100000000000001 -1.4142135623730951 5.714213562373095
    endloop
  endfacet
  facet normal 1 0 0
    outer loop
      vertex 5.100000000000001 -1.5867066805824703 3.0824771419825585
      vertex 5.100000000000001 -1.5867066805824703 5.517522858017442
      vertex 5.100000000000001 -1.7320508075688772 3.3
    endloop
  endfacet
  facet normal 1 0 0
    outer loop
      vertex 5.100000000000001 -1.8477590650225735 3.53463313526982
      vertex 5.100000000000001 -1.8477590650225735 5.065366864730179
      vertex 5.100000000000001 -1.9318516525781366 3.7823619097949583
    endloop
  endfacet
  facet normal 1 0 0
    outer loop
      vertex 5.100000000000001 -1.9318516525781366 3.7823619097949583
      vertex 5.100000000000001 -1.9318516525781366 4.817638090205041
      vertex 5.100000000000001 -1.9828897227476208 4.038947615559897
    endloop
  endfacet
  facet normal 1 0 0
    outer loop
      vertex 5.100000000000001 -1.8477590650225735 3.53463313526982
      vertex 5.100000000000001 -1.7320508075688772 3.3
      vertex 5.100000000000001 -1.7320508075688772 5.3
    endloop
  endfacet
  facet normal 1 0 0
    outer loop
      vertex 5.100000000000001 -1.2175228580174413 2.7132933194175295
      vertex 5.100000000000001 -1 2.5679491924311226
      vertex 5.100000000000001 -1 6.0320508075688775
    endloop
  endfacet
  facet normal 1 0 0
    outer loop
      vertex 5.100000000000001 -1.9828897227476208 4.038947615559897
      vertex 5.100000000000001 -1.9828897227476208 4.561052384440103
      vertex 5.100000000000001 -2 4.3
    endloop
  endfacet
  facet normal 1 0 0
    outer loop
      vertex 5.100000000000001 -1.9828897227476208 4.038947615559897
      vertex 5.100000000000001 -1.9318516525781366 4.817638090205041
      vertex 5.100000000000001 -1.9828897227476208 4.561052384440103
    endloop
  endfacet
  facet normal 1 0 0
    outer loop
      vertex 5.100000000000001 -1.9318516525781366 3.7823619097949583
      vertex 5.100000000000001 -1.8477590650225735 5.065366864730179
      vertex 5.100000000000001 -1.9318516525781366 4.817638090205041
    endloop
  endfacet
  facet normal 1 0 0
    outer loop
      vertex 5.100000000000001 -1.8477590650225735 3.53463313526982
      vertex 5.100000000000001 -1.7320508075688772 5.3
      vertex 5.100000000000001 -1.8477590650225735 5.065366864730179
    endloop
  endfacet
  facet normal 1 0 0
    outer loop
      vertex 5.100000000000001 -1.7320508075688772 3.3
      vertex 5.100000000000001 -1.5867066805824703 5.517522858017442
      vertex 5.100000000000001 -1.7320508075688772 5.3
    endloop
  endfacet
  facet normal 1 0 0
    outer loop
      vertex 5.100000000000001 -1.5867066805824703 3.0824771419825585
      vertex 5.100000000000001 -1.4142135623730951 5.714213562373095
      vertex 5.100000000000001 -1.5867066805824703 5.517522858017442
    endloop
  endfacet
  facet normal 1 0 0
    outer loop
      vertex 5.100000000000001 -1.4142135623730951 2.885786437626905
      vertex 5.100000000000001 -1.2175228580174413 5.886706680582471
      vertex 5.100000000000001 -1.4142135623730951 5.714213562373095
    endloop
  endfacet
  facet normal 1 0 0
    outer loop
      vertex 5.100000000000001 -1.2175228580174413 2.7132933194175295
      vertex 5.100000000000001 -1 6.0320508075688775
      vertex 5.100000000000001 -1.2175228580174413 5.886706680582471
    endloop
  endfacet
  facet normal 1 0 0
    outer loop
      vertex 5.100000000000001 -1 2.5679491924311226
      vertex 5.100000000000001 -0.7653668647301796 6.147759065022573
      vertex 5.100000000000001 -1 6.0320508075688775
    endloop
  endfacet
  facet normal 1 0 0
    outer loop
      vertex 5.100000000000001 -0.7653668647301796 2.4522409349774263
      vertex 5.100000000000001 -0.5176380902050415 6.231851652578136
      vertex 5.100000000000001 -0.7653668647301796 6.147759065022573
    endloop
  endfacet
  facet normal 1 0 0
    outer loop
      vertex 5.100000000000001 -0.5176380902050415 2.3681483474218634
      vertex 5.100000000000001 -0.26105238444010315 6.282889722747621
      vertex 5.100000000000001 -0.5176380902050415 6.231851652578136
    endloop
  endfacet
  facet normal 1 0 0
    outer loop
      vertex 5.100000000000001 -0.26105238444010315 2.317110277252379
      vertex 5.100000000000001 0 6.3
      vertex 5.100000000000001 -0.26105238444010315 6.282889722747621
    endloop
  endfacet
  facet normal 1 0 0
    outer loop
      vertex 5.100000000000001 0 2.3
      vertex 5.100000000000001 0.26105238444010315 2.317110277252379
      vertex 5.100000000000001 0.26105238444010315 6.282889722747621
    endloop
  endfacet
  facet normal 1 0 0
    outer loop
      vertex 5.100000000000001 0.26105238444010315 2.317110277252379
      vertex 5.100000000000001 0.5176380902050415 2.3681483474218634
      vertex 5.100000000000001 0.5176380902050415 6.231851652578136
    endloop
  endfacet
  facet normal 1 0 0
    outer loop
      vertex 5.100000000000001 0.5176380902050415 2.3681483474218634
      vertex 5.100000000000001 0.7653668647301796 2.4522409349774263
      vertex 5.100000000000001 0.7653668647301796 6.147759065022573
    endloop
  endfacet
  facet normal 1 0 0
    outer loop
      vertex 5.100000000000001 0.7653668647301796 2.4522409349774263
      vertex 5.100000000000001 1 2.5679491924311226
      vertex 5.100000000000001 1 6.0320508075688775
    endloop
  endfacet
  facet normal 1 0 0
    outer loop
      vertex 5.100000000000001 1 2.5679491924311226
      vertex 5.100000000000001 1.2175228580174413 2.7132933194175295
      vertex 5.100000000000001 1.2175228580174413 5.886706680582471
    endloop
  endfacet
  facet normal 1 0 0
    outer loop
      vertex 5.100000000000001 1.2175228580174413 2.7132933194175295
      vertex 5.100000000000001 1.4142135623730951 2.885786437626905
      vertex 5.100000000000001 1.4142135623730951 5.714213562373095
    endloop
  endfacet
  facet normal 1 0 0
    outer loop
      vertex 5.100000000000001 1.4142135623730951 2.885786437626905
      vertex 5.100000000000001 1.5867066805824703 3.0824771419825585
      vertex 5.100000000000001 1.5867066805824703 5.517522858017442
    endloop
  endfacet
  facet normal 1 0 0
    outer loop
      vertex 5.100000000000001 1.5867066805824703 3.0824771419825585
      vertex 5.100000000000001 1.7320508075688772 3.3
      vertex 5.100000000000001 1.7320508075688772 5.3
    endloop
  endfacet
  facet normal 1 0 0
    outer loop
      vertex 5.100000000000001 1.7320508075688772 3.3
      vertex 5.100000000000001 1.8477590650225735 3.53463313526982
      vertex 5.100000000000001 1.8477590650225735 5.065366864730179
    endloop
  endfacet
  facet normal 1 0 0
    outer loop
      vertex 5.100000000000001 1.8477590650225735 3.53463313526982
      vertex 5.100000000000001 1.9318516525781366 3.7823619097949583
      vertex 5.100000000000001 1.9318516525781366 4.817638090205041
    endloop
  endfacet
  facet normal 1 0 0
    outer loop
      vertex 5.100000000000001 1.9318516525781366 3.7823619097949583
      vertex 5.100000000000001 1.9828897227476208 4.038947615559897
      vertex 5.100000000000001 1.9828897227476208 4.561052384440103
    endloop
  endfacet
  facet normal 1 0 0
    outer loop
      vertex 5.100000000000001 1 2.5679491924311226
      vertex 5.100000000000001 1.2175228580174413 5.886706680582471
      vertex 5.100000000000001 1 6.0320508075688775
    endloop
  endfacet
  facet normal 1 0 0
    outer loop
      vertex 5.100000000000001 1.7320508075688772 3.3
      vertex 5.100000000000001 1.8477590650225735 5.065366864730179
      vertex 5.100000000000001 1.7320508075688772 5.3
    endloop
  endfacet
  facet normal 1 0 0
    outer loop
      vertex 5.100000000000001 1.9828897227476208 4.038947615559897
      vertex 5.100000000000001 2 4.3
      vertex 5.100000000000001 1.9828897227476208 4.561052384440103
    endloop
  endfacet
  facet normal 1 0 0
    outer loop
      vertex 5.100000000000001 1.9318516525781366 3.7823619097949583
      vertex 5.100000000000001 1.9828897227476208 4.561052384440103
      vertex 5.100000000000001 1.9318516525781366 4.817638090205041
    endloop
  endfacet
  facet normal 1 0 0
    outer loop
      vertex 5.100000000000001 1.8477590650225735 3.53463313526982
      vertex 5.100000000000001 1.9318516525781366 4.817638090205041
      vertex 5.100000000000001 1.8477590650225735 5.065366864730179
    endloop
  endfacet
  facet normal 1 0 0
    outer loop
      vertex 5.100000000000001 1.5867066805824703 3.0824771419825585
      vertex 5.100000000000001 1.7320508075688772 5.3
      vertex 5.100000000000001 1.5867066805824703 5.517522858017442
    endloop
  endfacet
  facet normal 1 0 0
    outer loop
      vertex 5.100000000000001 1.4142135623730951 2.885786437626905
      vertex 5.100000000000001 1.5867066805824703 5.517522858017442
      vertex 5.100000000000001 1.4142135623730951 5.714213562373095
    endloop
  endfacet
  facet normal 1 0 0
    outer loop
      vertex 5.100000000000001 1.2175228580174413 2.7132933194175295
      vertex 5.100000000000001 1.4142135623730951 5.714213562373095
      vertex 5.100000000000001 1.2175228580174413 5.886706680582471
    endloop
  endfacet
  facet normal 1 0 0
    outer loop
      vertex 5.100000000000001 0 2.3
      vertex 5.100000000000001 0.26105238444010315 6.282889722747621
      vertex 5.100000000000001 0 6.3
    endloop
  endfacet
  facet normal 1 0 0
    outer loop
      vertex 5.100000000000001 0.26105238444010315 2.317110277252379
      vertex 5.100000000000001 0.5176380902050415 6.231851652578136
      vertex 5.100000000000001 0.26105238444010315 6.282889722747621
    endloop
  endfacet
  facet normal 1 0 0
    outer loop
      vertex 5.100000000000001 0.5176380902050415 2.3681483474218634
      vertex 5.100000000000001 0.7653668647301796 6.147759065022573
      vertex 5.100000000000001 0.5176380902050415 6.231851652578136
    endloop
  endfacet
  facet normal 1 0 0
    outer loop
      vertex 5.100000000000001 0.7653668647301796 2.4522409349774263
      vertex 5.100000000000001 1 6.0320508075688775
      vertex 5.100000000000001 0.7653668647301796 6.147759065022573
    endloop
  endfacet
  facet normal 0 0.19509032201612947 0.9807852804032302
    outer loop
      vertex 5.100000000000001 -0.5176380902050415 2.3681483474218634
      vertex 17 -0.5176380902050415 2.3681483474218634
      vertex 5.100000000000001 -0.26105238444010315 2.317110277252379
    endloop
  endfacet
  facet normal 0 0.06540312923014245 0.9978589232386035
    outer loop
      vertex 5.100000000000001 -0.26105238444010315 2.317110277252379
      vertex 17 -0.26105238444010315 2.317110277252379
      vertex 5.100000000000001 0 2.3
    endloop
  endfacet
  facet normal 0 0.32143946530316103 0.9469301294951059
    outer loop
      vertex 5.100000000000001 -0.7653668647301796 2.4522409349774263
      vertex 17 -0.7653668647301796 2.4522409349774263
      vertex 5.100000000000001 -0.5176380902050415 2.3681483474218634
    endloop
  endfacet
  facet normal 0 0.4422886902190015 0.8968727415326883
    outer loop
      vertex 5.100000000000001 -0.7653668647301796 2.4522409349774263
      vertex 5.100000000000001 -1 2.5679491924311226
      vertex 17 -1 2.5679491924311226
    endloop
  endfacet
  facet normal 0 0.555570233019602 0.8314696123025456
    outer loop
      vertex 5.100000000000001 -1.2175228580174413 2.7132933194175295
      vertex 17 -1.2175228580174413 2.7132933194175295
      vertex 5.100000000000001 -1 2.5679491924311226
    endloop
  endfacet
  facet normal 0 0.6593458151000691 0.7518398074789772
    outer loop
      vertex 5.100000000000001 -1.2175228580174413 2.7132933194175295
      vertex 5.100000000000001 -1.4142135623730951 2.885786437626905
      vertex 17 -1.4142135623730951 2.885786437626905
    endloop
  endfacet
  facet normal 0 0.7518398074789773 0.6593458151000691
    outer loop
      vertex 5.100000000000001 -1.5867066805824703 3.0824771419825585
      vertex 17 -1.5867066805824703 3.0824771419825585
      vertex 5.100000000000001 -1.4142135623730951 2.885786437626905
    endloop
  endfacet
  facet normal 0 0.8314696123025456 0.555570233019602
    outer loop
      vertex 5.100000000000001 -1.5867066805824703 3.0824771419825585
      vertex 5.100000000000001 -1.7320508075688772 3.3
      vertex 17 -1.7320508075688772 3.3
    endloop
  endfacet
  facet normal 0 0.8968727415326881 0.4422886902190017
    outer loop
      vertex 5.100000000000001 -1.8477590650225735 3.53463313526982
      vertex 17 -1.8477590650225735 3.53463313526982
      vertex 5.100000000000001 -1.7320508075688772 3.3
    endloop
  endfacet
  facet normal 0 0.9469301294951057 0.3214394653031617
    outer loop
      vertex 5.100000000000001 -1.8477590650225735 3.53463313526982
      vertex 5.100000000000001 -1.9318516525781366 3.7823619097949583
      vertex 17 -1.9318516525781366 3.7823619097949583
    endloop
  endfacet
  facet normal 0 0.9807852804032304 0.19509032201612786
    outer loop
      vertex 5.100000000000001 -1.9318516525781366 3.7823619097949583
      vertex 5.100000000000001 -1.9828897227476208 4.038947615559897
      vertex 17 -1.9828897227476208 4.038947615559897
    endloop
  endfacet
  facet normal 0 0.9978589232386035 0.0654031292301433
    outer loop
      vertex 5.100000000000001 -1.9828897227476208 4.038947615559897
      vertex 5.100000000000001 -2 4.3
      vertex 17 -2 4.3
    endloop
  endfacet
  facet normal 0 0.19509032201612947 0.9807852804032302
    outer loop
      vertex 5.100000000000001 -0.26105238444010315 2.317110277252379
      vertex 17 -0.5176380902050415 2.3681483474218634
      vertex 17 -0.26105238444010315 2.317110277252379
    endloop
  endfacet
  facet normal 0 0.32143946530316103 0.9469301294951059
    outer loop
      vertex 5.100000000000001 -0.5176380902050415 2.3681483474218634
      vertex 17 -0.7653668647301796 2.4522409349774263
      vertex 17 -0.5176380902050415 2.3681483474218634
    endloop
  endfacet
  facet normal 0 0.06540312923014245 0.9978589232386035
    outer loop
      vertex 5.100000000000001 0 2.3
      vertex 17 -0.26105238444010315 2.317110277252379
      vertex 17 0 2.3
    endloop
  endfacet
  facet normal 0 0.4422886902190015 0.8968727415326883
    outer loop
      vertex 5.100000000000001 -0.7653668647301796 2.4522409349774263
      vertex 17 -1 2.5679491924311226
      vertex 17 -0.7653668647301796 2.4522409349774263
    endloop
  endfacet
  facet normal 0 0.555570233019602 0.8314696123025456
    outer loop
      vertex 5.100000000000001 -1 2.5679491924311226
      vertex 17 -1.2175228580174413 2.7132933194175295
      vertex 17 -1 2.5679491924311226
    endloop
  endfacet
  facet normal 0 0.6593458151000691 0.7518398074789772
    outer loop
      vertex 5.100000000000001 -1.2175228580174413 2.7132933194175295
      vertex 17 -1.4142135623730951 2.885786437626905
      vertex 17 -1.2175228580174413 2.7132933194175295
    endloop
  endfacet
  facet normal 0 0.7518398074789773 0.6593458151000691
    outer loop
      vertex 5.100000000000001 -1.4142135623730951 2.885786437626905
      vertex 17 -1.5867066805824703 3.0824771419825585
      vertex 17 -1.4142135623730951 2.885786437626905
    endloop
  endfacet
  facet normal 0 0.8314696123025456 0.555570233019602
    outer loop
      vertex 5.100000000000001 -1.5867066805824703 3.0824771419825585
      vertex 17 -1.7320508075688772 3.3
      vertex 17 -1.5867066805824703 3.0824771419825585
    endloop
  endfacet
  facet normal 0 0.8968727415326881 0.4422886902190017
    outer loop
      vertex 5.100000000000001 -1.7320508075688772 3.3
      vertex 17 -1.8477590650225735 3.53463313526982
      vertex 17 -1.7320508075688772 3.3
    endloop
  endfacet
  facet normal 0 0.9469301294951057 0.3214394653031617
    outer loop
      vertex 5.100000000000001 -1.8477590650225735 3.53463313526982
      vertex 17 -1.9318516525781366 3.7823619097949583
      vertex 17 -1.8477590650225735 3.53463313526982
    endloop
  endfacet
  facet normal 0 0.9807852804032304 0.19509032201612786
    outer loop
      vertex 5.100000000000001 -1.9318516525781366 3.7823619097949583
      vertex 17 -1.9828897227476208 4.038947615559897
      vertex 17 -1.9318516525781366 3.7823619097949583
    endloop
  endfacet
  facet normal 0 0.9978589232386035 0.0654031292301433
    outer loop
      vertex 5.100000000000001 -1.9828897227476208 4.038947615559897
      vertex 17 -2 4.3
      vertex 17 -1.9828897227476208 4.038947615559897
    endloop
  endfacet
  facet normal 0 0.9978589232386035 -0.0654031292301433
    outer loop
      vertex 5.100000000000001 -2 4.3
      vertex 5.100000000000001 -1.9828897227476208 4.561052384440103
      vertex 17 -1.9828897227476208 4.561052384440103
    endloop
  endfacet
  facet normal 0 0.9807852804032304 -0.19509032201612786
    outer loop
      vertex 5.100000000000001 -1.9828897227476208 4.561052384440103
      vertex 5.100000000000001 -1.9318516525781366 4.817638090205041
      vertex 17 -1.9318516525781366 4.817638090205041
    endloop
  endfacet
  facet normal 0 0.9469301294951056 -0.32143946530316225
    outer loop
      vertex 5.100000000000001 -1.9318516525781366 4.817638090205041
      vertex 5.100000000000001 -1.8477590650225735 5.065366864730179
      vertex 17 -1.8477590650225735 5.065366864730179
    endloop
  endfacet
  facet normal 0 0.8968727415326884 -0.442288690219001
    outer loop
      vertex 5.100000000000001 -1.8477590650225735 5.065366864730179
      vertex 5.100000000000001 -1.7320508075688772 5.3
      vertex 17 -1.7320508075688772 5.3
    endloop
  endfacet
  facet normal 0 0.831469612302546 -0.5555702330196012
    outer loop
      vertex 5.100000000000001 -1.7320508075688772 5.3
      vertex 5.100000000000001 -1.5867066805824703 5.517522858017442
      vertex 17 -1.5867066805824703 5.517522858017442
    endloop
  endfacet
  facet normal 0 0.7518398074789765 -0.6593458151000698
    outer loop
      vertex 5.100000000000001 -1.5867066805824703 5.517522858017442
      vertex 5.100000000000001 -1.4142135623730951 5.714213562373095
      vertex 17 -1.4142135623730951 5.714213562373095
    endloop
  endfacet
  facet normal 0 0.65934581510007 -0.7518398074789764
    outer loop
      vertex 5.100000000000001 -1.4142135623730951 5.714213562373095
      vertex 5.100000000000001 -1.2175228580174413 5.886706680582471
      vertex 17 -1.2175228580174413 5.886706680582471
    endloop
  endfacet
  facet normal 0 0.555570233019602 -0.8314696123025456
    outer loop
      vertex 5.100000000000001 -1.2175228580174413 5.886706680582471
      vertex 5.100000000000001 -1 6.0320508075688775
      vertex 17 -1 6.0320508075688775
    endloop
  endfacet
  facet normal 0 0.44228869021899875 -0.8968727415326896
    outer loop
      vertex 5.100000000000001 -1 6.0320508075688775
      vertex 5.100000000000001 -0.7653668647301796 6.147759065022573
      vertex 17 -0.7653668647301796 6.147759065022573
    endloop
  endfacet
  facet normal 0 0.3214394653031626 -0.9469301294951054
    outer loop
      vertex 5.100000000000001 -0.7653668647301796 6.147759065022573
      vertex 5.100000000000001 -0.5176380902050415 6.231851652578136
      vertex 17 -0.5176380902050415 6.231851652578136
    endloop
  endfacet
  facet normal 0 0.19509032201612947 -0.9807852804032302
    outer loop
      vertex 5.100000000000001 -0.5176380902050415 6.231851652578136
      vertex 5.100000000000001 -0.26105238444010315 6.282889722747621
      vertex 17 -0.26105238444010315 6.282889722747621
    endloop
  endfacet
  facet normal 0 0.06540312923014245 -0.9978589232386035
    outer loop
      vertex 5.100000000000001 -0.26105238444010315 6.282889722747621
      vertex 5.100000000000001 0 6.3
      vertex 17 0 6.3
    endloop
  endfacet
  facet normal 0 0.9978589232386035 -0.0654031292301433
    outer loop
      vertex 5.100000000000001 -2 4.3
      vertex 17 -1.9828897227476208 4.561052384440103
      vertex 17 -2 4.3
    endloop
  endfacet
  facet normal 0 0.9807852804032304 -0.19509032201612786
    outer loop
      vertex 5.100000000000001 -1.9828897227476208 4.561052384440103
      vertex 17 -1.9318516525781366 4.817638090205041
      vertex 17 -1.9828897227476208 4.561052384440103
    endloop
  endfacet
  facet normal 0 0.9469301294951056 -0.32143946530316225
    outer loop
      vertex 5.100000000000001 -1.9318516525781366 4.817638090205041
      vertex 17 -1.8477590650225735 5.065366864730179
      vertex 17 -1.9318516525781366 4.817638090205041
    endloop
  endfacet
  facet normal 0 0.8968727415326884 -0.442288690219001
    outer loop
      vertex 5.100000000000001 -1.8477590650225735 5.065366864730179
      vertex 17 -1.7320508075688772 5.3
      vertex 17 -1.8477590650225735 5.065366864730179
    endloop
  endfacet
  facet normal 0 0.831469612302546 -0.5555702330196012
    outer loop
      vertex 5.100000000000001 -1.7320508075688772 5.3
      vertex 17 -1.5867066805824703 5.517522858017442
      vertex 17 -1.7320508075688772 5.3
    endloop
  endfacet
  facet normal 0 0.7518398074789765 -0.6593458151000698
    outer loop
      vertex 5.100000000000001 -1.5867066805824703 5.517522858017442
      vertex 17 -1.4142135623730951 5.714213562373095
      vertex 17 -1.5867066805824703 5.517522858017442
    endloop
  endfacet
  facet normal 0 0.65934581510007 -0.7518398074789764
    outer loop
      vertex 5.100000000000001 -1.4142135623730951 5.714213562373095
      vertex 17 -1.2175228580174413 5.886706680582471
      vertex 17 -1.4142135623730951 5.714213562373095
    endloop
  endfacet
  facet normal 0 0.555570233019602 -0.8314696123025456
    outer loop
      vertex 5.100000000000001 -1.2175228580174413 5.886706680582471
      vertex 17 -1 6.0320508075688775
      vertex 17 -1.2175228580174413 5.886706680582471
    endloop
  endfacet
  facet normal 0 0.44228869021899875 -0.8968727415326896
    outer loop
      vertex 5.100000000000001 -1 6.0320508075688775
      vertex 17 -0.7653668647301796 6.147759065022573
      vertex 17 -1 6.0320508075688775
    endloop
  endfacet
  facet normal 0 0.3214394653031626 -0.9469301294951054
    outer loop
      vertex 5.100000000000001 -0.7653668647301796 6.147759065022573
      vertex 17 -0.5176380902050415 6.231851652578136
      vertex 17 -0.7653668647301796 6.147759065022573
    endloop
  endfacet
  facet normal 0 0.19509032201612947 -0.9807852804032302
    outer loop
      vertex 5.100000000000001 -0.5176380902050415 6.231851652578136
      vertex 17 -0.26105238444010315 6.282889722747621
      vertex 17 -0.5176380902050415 6.231851652578136
    endloop
  endfacet
  facet normal 0 0.06540312923014245 -0.9978589232386035
    outer loop
      vertex 5.100000000000001 -0.26105238444010315 6.282889722747621
      vertex 17 0 6.3
      vertex 17 -0.26105238444010315 6.282889722747621
    endloop
  endfacet
  facet normal 0 -0.06540312923014245 0.9978589232386035
    outer loop
      vertex 5.100000000000001 0 2.3
      vertex 17 0 2.3
      vertex 5.100000000000001 0.26105238444010315 2.317110277252379
    endloop
  endfacet
  facet normal 0 -0.19509032201612947 0.9807852804032302
    outer loop
      vertex 5.100000000000001 0.26105238444010315 2.317110277252379
      vertex 17 0.26105238444010315 2.317110277252379
      vertex 5.100000000000001 0.5176380902050415 2.3681483474218634
    endloop
  endfacet
  facet normal 0 -0.32143946530316103 0.9469301294951059
    outer loop
      vertex 5.100000000000001 0.5176380902050415 2.3681483474218634
      vertex 17 0.5176380902050415 2.3681483474218634
      vertex 5.100000000000001 0.7653668647301796 2.4522409349774263
    endloop
  endfacet
  facet normal 0 -0.4422886902190015 0.8968727415326883
    outer loop
      vertex 5.100000000000001 0.7653668647301796 2.4522409349774263
      vertex 17 0.7653668647301796 2.4522409349774263
      vertex 5.100000000000001 1 2.5679491924311226
    endloop
  endfacet
  facet normal 0 -0.555570233019602 0.8314696123025456
    outer loop
      vertex 5.100000000000001 1 2.5679491924311226
      vertex 17 1 2.5679491924311226
      vertex 5.100000000000001 1.2175228580174413 2.7132933194175295
    endloop
  endfacet
  facet normal 0 -0.6593458151000691 0.7518398074789772
    outer loop
      vertex 5.100000000000001 1.2175228580174413 2.7132933194175295
      vertex 17 1.2175228580174413 2.7132933194175295
      vertex 5.100000000000001 1.4142135623730951 2.885786437626905
    endloop
  endfacet
  facet normal 0 -0.7518398074789773 0.6593458151000691
    outer loop
      vertex 5.100000000000001 1.4142135623730951 2.885786437626905
      vertex 17 1.4142135623730951 2.885786437626905
      vertex 5.100000000000001 1.5867066805824703 3.0824771419825585
    endloop
  endfacet
  facet normal 0 -0.8314696123025456 0.555570233019602
    outer loop
      vertex 5.100000000000001 1.5867066805824703 3.0824771419825585
      vertex 17 1.5867066805824703 3.0824771419825585
      vertex 5.100000000000001 1.7320508075688772 3.3
    endloop
  endfacet
  facet normal 0 -0.8968727415326881 0.4422886902190017
    outer loop
      vertex 5.100000000000001 1.7320508075688772 3.3
      vertex 17 1.7320508075688772 3.3
      vertex 5.100000000000001 1.8477590650225735 3.53463313526982
    endloop
  endfacet
  facet normal 0 -0.9469301294951057 0.3214394653031617
    outer loop
      vertex 5.100000000000001 1.8477590650225735 3.53463313526982
      vertex 17 1.8477590650225735 3.53463313526982
      vertex 5.100000000000001 1.9318516525781366 3.7823619097949583
    endloop
  endfacet
  facet normal 0 -0.9807852804032304 0.19509032201612786
    outer loop
      vertex 5.100000000000001 1.9318516525781366 3.7823619097949583
      vertex 17 1.9318516525781366 3.7823619097949583
      vertex 5.100000000000001 1.9828897227476208 4.038947615559897
    endloop
  endfacet
  facet normal 0 -0.9978589232386035 0.0654031292301433
    outer loop
      vertex 5.100000000000001 1.9828897227476208 4.038947615559897
      vertex 17 1.9828897227476208 4.038947615559897
      vertex 5.100000000000001 2 4.3
    endloop
  endfacet
  facet normal 0 -0.06540312923014245 0.9978589232386035
    outer loop
      vertex 5.100000000000001 0.26105238444010315 2.317110277252379
      vertex 17 0 2.3
      vertex 17 0.26105238444010315 2.317110277252379
    endloop
  endfacet
  facet normal 0 -0.19509032201612947 0.9807852804032302
    outer loop
      vertex 5.100000000000001 0.5176380902050415 2.3681483474218634
      vertex 17 0.26105238444010315 2.317110277252379
      vertex 17 0.5176380902050415 2.3681483474218634
    endloop
  endfacet
  facet normal 0 -0.32143946530316103 0.9469301294951059
    outer loop
      vertex 5.100000000000001 0.7653668647301796 2.4522409349774263
      vertex 17 0.5176380902050415 2.3681483474218634
      vertex 17 0.7653668647301796 2.4522409349774263
    endloop
  endfacet
  facet normal 0 -0.4422886902190015 0.8968727415326883
    outer loop
      vertex 5.100000000000001 1 2.5679491924311226
      vertex 17 0.7653668647301796 2.4522409349774263
      vertex 17 1 2.5679491924311226
    endloop
  endfacet
  facet normal 0 -0.555570233019602 0.8314696123025456
    outer loop
      vertex 5.100000000000001 1.2175228580174413 2.7132933194175295
      vertex 17 1 2.5679491924311226
      vertex 17 1.2175228580174413 2.7132933194175295
    endloop
  endfacet
  facet normal 0 -0.6593458151000691 0.7518398074789772
    outer loop
      vertex 5.100000000000001 1.4142135623730951 2.885786437626905
      vertex 17 1.2175228580174413 2.7132933194175295
      vertex 17 1.4142135623730951 2.885786437626905
    endloop
  endfacet
  facet normal 0 -0.7518398074789773 0.6593458151000691
    outer loop
      vertex 5.100000000000001 1.5867066805824703 3.0824771419825585
      vertex 17 1.4142135623730951 2.885786437626905
      vertex 17 1.5867066805824703 3.0824771419825585
    endloop
  endfacet
  facet normal 0 -0.8314696123025456 0.555570233019602
    outer loop
      vertex 5.100000000000001 1.7320508075688772 3.3
      vertex 17 1.5867066805824703 3.0824771419825585
      vertex 17 1.7320508075688772 3.3
    endloop
  endfacet
  facet normal 0 -0.8968727415326881 0.4422886902190017
    outer loop
      vertex 5.100000000000001 1.8477590650225735 3.53463313526982
      vertex 17 1.7320508075688772 3.3
      vertex 17 1.8477590650225735 3.53463313526982
    endloop
  endfacet
  facet normal 0 -0.9469301294951057 0.3214394653031617
    outer loop
      vertex 5.100000000000001 1.9318516525781366 3.7823619097949583
      vertex 17 1.8477590650225735 3.53463313526982
      vertex 17 1.9318516525781366 3.7823619097949583
    endloop
  endfacet
  facet normal 0 -0.9807852804032304 0.19509032201612786
    outer loop
      vertex 5.100000000000001 1.9828897227476208 4.038947615559897
      vertex 17 1.9318516525781366 3.7823619097949583
      vertex 17 1.9828897227476208 4.038947615559897
    endloop
  endfacet
  facet normal 0 -0.9978589232386035 0.0654031292301433
    outer loop
      vertex 5.100000000000001 2 4.3
      vertex 17 1.9828897227476208 4.038947615559897
      vertex 17 2 4.3
    endloop
  endfacet
  facet normal 0 -0.9978589232386035 -0.0654031292301433
    outer loop
      vertex 5.100000000000001 2 4.3
      vertex 17 2 4.3
      vertex 5.100000000000001 1.9828897227476208 4.561052384440103
    endloop
  endfacet
  facet normal 0 -0.9807852804032304 -0.19509032201612786
    outer loop
      vertex 5.100000000000001 1.9828897227476208 4.561052384440103
      vertex 17 1.9828897227476208 4.561052384440103
      vertex 5.100000000000001 1.9318516525781366 4.817638090205041
    endloop
  endfacet
  facet normal 0 -0.9469301294951056 -0.32143946530316225
    outer loop
      vertex 5.100000000000001 1.9318516525781366 4.817638090205041
      vertex 17 1.9318516525781366 4.817638090205041
      vertex 5.100000000000001 1.8477590650225735 5.065366864730179
    endloop
  endfacet
  facet normal 0 -0.8968727415326884 -0.442288690219001
    outer loop
      vertex 5.100000000000001 1.8477590650225735 5.065366864730179
      vertex 17 1.8477590650225735 5.065366864730179
      vertex 5.100000000000001 1.7320508075688772 5.3
    endloop
  endfacet
  facet normal 0 -0.831469612302546 -0.5555702330196012
    outer loop
      vertex 5.100000000000001 1.5867066805824703 5.517522858017442
      vertex 5.100000000000001 1.7320508075688772 5.3
      vertex 17 1.7320508075688772 5.3
    endloop
  endfacet
  facet normal 0 -0.7518398074789765 -0.6593458151000698
    outer loop
      vertex 5.100000000000001 1.4142135623730951 5.714213562373095
      vertex 5.100000000000001 1.5867066805824703 5.517522858017442
      vertex 17 1.5867066805824703 5.517522858017442
    endloop
  endfacet
  facet normal 0 -0.65934581510007 -0.7518398074789764
    outer loop
      vertex 5.100000000000001 1.4142135623730951 5.714213562373095
      vertex 17 1.4142135623730951 5.714213562373095
      vertex 5.100000000000001 1.2175228580174413 5.886706680582471
    endloop
  endfacet
  facet normal 0 -0.555570233019602 -0.8314696123025456
    outer loop
      vertex 5.100000000000001 1 6.0320508075688775
      vertex 5.100000000000001 1.2175228580174413 5.886706680582471
      vertex 17 1.2175228580174413 5.886706680582471
    endloop
  endfacet
  facet normal 0 -0.44228869021899875 -0.8968727415326896
    outer loop
      vertex 5.100000000000001 0.7653668647301796 6.147759065022573
      vertex 5.100000000000001 1 6.0320508075688775
      vertex 17 1 6.0320508075688775
    endloop
  endfacet
  facet normal 0 -0.3214394653031626 -0.9469301294951054
    outer loop
      vertex 5.100000000000001 0.5176380902050415 6.231851652578136
      vertex 5.100000000000001 0.7653668647301796 6.147759065022573
      vertex 17 0.7653668647301796 6.147759065022573
    endloop
  endfacet
  facet normal 0 -0.06540312923014245 -0.9978589232386035
    outer loop
      vertex 5.100000000000001 0 6.3
      vertex 5.100000000000001 0.26105238444010315 6.282889722747621
      vertex 17 0.26105238444010315 6.282889722747621
    endloop
  endfacet
  facet normal 0 -0.19509032201612947 -0.9807852804032302
    outer loop
      vertex 5.100000000000001 0.26105238444010315 6.282889722747621
      vertex 5.100000000000001 0.5176380902050415 6.231851652578136
      vertex 17 0.5176380902050415 6.231851652578136
    endloop
  endfacet
  facet normal 0 -0.9978589232386035 -0.0654031292301433
    outer loop
      vertex 5.100000000000001 1.9828897227476208 4.561052384440103
      vertex 17 2 4.3
      vertex 17 1.9828897227476208 4.561052384440103
    endloop
  endfacet
  facet normal 0 -0.9807852804032304 -0.19509032201612786
    outer loop
      vertex 5.100000000000001 1.9318516525781366 4.817638090205041
      vertex 17 1.9828897227476208 4.561052384440103
      vertex 17 1.9318516525781366 4.817638090205041
    endloop
  endfacet
  facet normal 0 -0.9469301294951056 -0.32143946530316225
    outer loop
      vertex 5.100000000000001 1.8477590650225735 5.065366864730179
      vertex 17 1.9318516525781366 4.817638090205041
      vertex 17 1.8477590650225735 5.065366864730179
    endloop
  endfacet
  facet normal 0 -0.8968727415326884 -0.442288690219001
    outer loop
      vertex 5.100000000000001 1.7320508075688772 5.3
      vertex 17 1.8477590650225735 5.065366864730179
      vertex 17 1.7320508075688772 5.3
    endloop
  endfacet
  facet normal 0 -0.831469612302546 -0.5555702330196012
    outer loop
      vertex 5.100000000000001 1.5867066805824703 5.517522858017442
      vertex 17 1.7320508075688772 5.3
      vertex 17 1.5867066805824703 5.517522858017442
    endloop
  endfacet
  facet normal 0 -0.7518398074789765 -0.6593458151000698
    outer loop
      vertex 5.100000000000001 1.4142135623730951 5.714213562373095
      vertex 17 1.5867066805824703 5.517522858017442
      vertex 17 1.4142135623730951 5.714213562373095
    endloop
  endfacet
  facet normal 0 -0.65934581510007 -0.7518398074789764
    outer loop
      vertex 5.100000000000001 1.2175228580174413 5.886706680582471
      vertex 17 1.4142135623730951 5.714213562373095
      vertex 17 1.2175228580174413 5.886706680582471
    endloop
  endfacet
  facet normal 0 -0.555570233019602 -0.8314696123025456
    outer loop
      vertex 5.100000000000001 1 6.0320508075688775
      vertex 17 1.2175228580174413 5.886706680582471
      vertex 17 1 6.0320508075688775
    endloop
  endfacet
  facet normal 0 -0.44228869021899875 -0.8968727415326896
    outer loop
      vertex 5.100000000000001 0.7653668647301796 6.147759065022573
      vertex 17 1 6.0320508075688775
      vertex 17 0.7653668647301796 6.147759065022573
    endloop
  endfacet
  facet normal 0 -0.06540312923014245 -0.9978589232386035
    outer loop
      vertex 5.100000000000001 0 6.3
      vertex 17 0.26105238444010315 6.282889722747621
      vertex 17 0 6.3
    endloop
  endfacet
  facet normal 0 -0.3214394653031626 -0.9469301294951054
    outer loop
      vertex 5.100000000000001 0.5176380902050415 6.231851652578136
      vertex 17 0.7653668647301796 6.147759065022573
      vertex 17 0.5176380902050415 6.231851652578136
    endloop
  endfacet
  facet normal 0 -0.19509032201612947 -0.9807852804032302
    outer loop
      vertex 5.100000000000001 0.26105238444010315 6.282889722747621
      vertex 17 0.5176380902050415 6.231851652578136
      vertex 17 0.26105238444010315 6.282889722747621
    endloop
  endfacet
endsolid OpenSCAD_Model
