solid OpenSCAD_Model
  facet normal -1 0 0
    outer loop
      vertex 0 -3 0
      vertex 0 -3 8
      vertex 0 3 8
    endloop
  endfacet
  facet normal -1 0 0
    outer loop
      vertex 0 -3 0
      vertex 0 3 8
      vertex 0 197 8
    endloop
  endfacet
  facet normal 0 0 -1
    outer loop
      vertex 0 -3 0
      vertex 0 203 0
      vertex 6 19 0
    endloop
  endfacet
  facet normal 0 0 1
    outer loop
      vertex 6 19 8
      vertex 6 181 8
      vertex 0 3 8
    endloop
  endfacet
  facet normal 0 0 -1
    outer loop
      vertex 0 -3 0
      vertex 6 19 0
      vertex 20 19 0
    endloop
  endfacet
  facet normal 0 -1 0
    outer loop
      vertex 0 -3 0
      vertex 26 -3 8
      vertex 0 -3 8
    endloop
  endfacet
  facet normal 0 0 1
    outer loop
      vertex 6 19 8
      vertex 0 3 8
      vertex 20 19 8
    endloop
  endfacet
  facet normal -1 0 0
    outer loop
      vertex 0 -3 0
      vertex 0 203 8
      vertex 0 203 0
    endloop
  endfacet
  facet normal -1 0 0
    outer loop
      vertex 0 -3 0
      vertex 0 197 8
      vertex 0 203 8
    endloop
  endfacet
  facet normal 0 0 -1
    outer loop
      vertex 6 19 0
      vertex 0 203 0
      vertex 6 181 0
    endloop
  endfacet
  facet normal 0 0 1
    outer loop
      vertex 6 181 8
      vertex 0 197 8
      vertex 0 3 8
    endloop
  endfacet
  facet normal 0 1 0
    outer loop
      vertex 0 203 0
      vertex 0 203 8
      vertex 26 203 0
    endloop
  endfacet
  facet normal 0 0 -1
    outer loop
      vertex 0 203 0
      vertex 26 203 0
      vertex 6 181 0
    endloop
  endfacet
  facet normal 0 0 1
    outer loop
      vertex 6 181 8
      vertex 26 197 8
      vertex 0 197 8
    endloop
  endfacet
  facet normal 0 0 -1
    outer loop
      vertex 0 -3 0
      vertex 20 19 0
      vertex 26 -3 0
    endloop
  endfacet
  facet normal 0 -1 0
    outer loop
      vertex 0 -3 0
      vertex 26 -3 0
      vertex 26 -3 8
    endloop
  endfacet
  facet normal 0 0 1
    outer loop
      vertex 20 19 8
      vertex 0 3 8
      vertex 26 3 8
    endloop
  endfacet
  facet normal 0 0 -1
    outer loop
      vertex 20 19 0
      vertex 20 181 0
      vertex 26 -3 0
    endloop
  endfacet
  facet normal 1 0 0
    outer loop
      vertex 26 -3 0
      vertex 26 203 0
      vertex 26 -3 8
    endloop
  endfacet
  facet normal 1 0 0
    outer loop
      vertex 26 203 0
      vertex 26 3 8
      vertex 26 -3 8
    endloop
  endfacet
  facet normal 0 0 1
    outer loop
      vertex 20 19 8
      vertex 26 3 8
      vertex 26 197 8
    endloop
  endfacet
  facet normal 0 0 -1
    outer loop
      vertex 6 181 0
      vertex 26 203 0
      vertex 20 181 0
    endloop
  endfacet
  facet normal 0 1 0
    outer loop
      vertex 26 203 0
      vertex 0 203 8
      vertex 26 203 8
    endloop
  endfacet
  facet normal 0 0 1
    outer loop
      vertex 6 181 8
      vertex 20 181 8
      vertex 26 197 8
    endloop
  endfacet
  facet normal 0 0 -1
    outer loop
      vertex 26 -3 0
      vertex 20 181 0
      vertex 26 203 0
    endloop
  endfacet
  facet normal 1 0 0
    outer loop
      vertex 26 203 0
      vertex 26 197 8
      vertex 26 3 8
    endloop
  endfacet
  facet normal 0 0 1
    outer loop
      vertex 20 19 8
      vertex 26 197 8
      vertex 20 181 8
    endloop
  endfacet
  facet normal 1 0 0
    outer loop
      vertex 26 203 0
      vertex 26 203 8
      vertex 26 197 8
    endloop
  endfacet
  facet normal 1 0 0
    outer loop
      vertex 6 19 0
      vertex 6 181 8
      vertex 6 19 8
    endloop
  endfacet
  facet normal 0 1 0
    outer loop
      vertex 6 19 0
      vertex 6 19 8
      vertex 20 19 0
    endloop
  endfacet
  facet normal 1 0 0
    outer loop
      vertex 6 19 0
      vertex 6 181 0
      vertex 6 181 8
    endloop
  endfacet
  facet normal 0 -1 0
    outer loop
      vertex 6 181 0
      vertex 20 181 8
      vertex 6 181 8
    endloop
  endfacet
  facet normal 0 1 0
    outer loop
      vertex 6 19 8
      vertex 20 19 8
      vertex 20 19 0
    endloop
  endfacet
  facet normal -1 0 0
    outer loop
      vertex 20 19 0
      vertex 20 19 8
      vertex 20 181 0
    endloop
  endfacet
  facet normal 0 -1 0
    outer loop
      vertex 6 181 0
      vertex 20 181 0
      vertex 20 181 8
    endloop
  endfacet
  facet normal -1 0 0
    outer loop
      vertex 20 19 8
      vertex 20 181 8
      vertex 20 181 0
    endloop
  endfacet
  facet normal -1 0 0
    outer loop
      vertex 0 197 8
      vertex 0 191.35 13.650000000000006
      vertex 0 191.35 13.66000000000001
    endloop
  endfacet
  facet normal -1 0 0
    outer loop
      vertex 0 197 8
      vertex 0 191.35 13.66000000000001
      vertex 0 208.65 13.650000000000006
    endloop
  endfacet
  facet normal -1 0 0
    outer loop
      vertex 0 197 8
      vertex 0 208.65 13.650000000000006
      vertex 0 203 8
    endloop
  endfacet
  facet normal 0 -0.7071067811865475 -0.7071067811865475
    outer loop
      vertex 0 197 8
      vertex 26 191.35 13.650000000000006
      vertex 0 191.35 13.650000000000006
    endloop
  endfacet
  facet normal 0 0.7071067811865475 -0.7071067811865475
    outer loop
      vertex 0 203 8
      vertex 0 208.65 13.650000000000006
      vertex 26 203 8
    endloop
  endfacet
  facet normal -1 0 0
    outer loop
      vertex 0 191.35 13.66000000000001
      vertex 0 208.65 13.66000000000001
      vertex 0 208.65 13.650000000000006
    endloop
  endfacet
  facet normal 0 -0.7071067811865475 -0.7071067811865475
    outer loop
      vertex 26 191.35 13.650000000000006
      vertex 0 197 8
      vertex 26 197 8
    endloop
  endfacet
  facet normal 0 0.7071067811865475 -0.7071067811865475
    outer loop
      vertex 0 208.65 13.650000000000006
      vertex 26 208.65 13.650000000000006
      vertex 26 203 8
    endloop
  endfacet
  facet normal 1 0 0
    outer loop
      vertex 26 197 8
      vertex 26 203 8
      vertex 26 191.35998233215548 13.650000000000006
    endloop
  endfacet
  facet normal 1 0 0
    outer loop
      vertex 26 197 8
      vertex 26 191.35998233215548 13.650000000000006
      vertex 26 191.35 13.650000000000006
    endloop
  endfacet
  facet normal 1 0 0
    outer loop
      vertex 26 203 8
      vertex 26 208.65 13.650000000000006
      vertex 26 191.35998233215548 13.650000000000006
    endloop
  endfacet
  facet normal 1 0 0
    outer loop
      vertex 26 191.35 13.650000000000006
      vertex 26 191.35998233215548 13.650000000000006
      vertex 26 191.35 13.66000000000001
    endloop
  endfacet
  facet normal -1 0 0
    outer loop
      vertex 0 -3 8
      vertex 0 -8.65 13.650000000000006
      vertex 0 -8.65 13.66000000000001
    endloop
  endfacet
  facet normal -1 0 0
    outer loop
      vertex 0 -3 8
      vertex 0 -8.65 13.66000000000001
      vertex 0 8.65 13.650000000000006
    endloop
  endfacet
  facet normal -1 0 0
    outer loop
      vertex 0 -3 8
      vertex 0 8.65 13.650000000000006
      vertex 0 3 8
    endloop
  endfacet
  facet normal 0 -0.7071067811865479 -0.7071067811865471
    outer loop
      vertex 0 -3 8
      vertex 26 -8.65 13.650000000000006
      vertex 0 -8.65 13.650000000000006
    endloop
  endfacet
  facet normal 0 0.7071067811865479 -0.7071067811865471
    outer loop
      vertex 0 8.65 13.650000000000006
      vertex 26 3 8
      vertex 0 3 8
    endloop
  endfacet
  facet normal -1 0 0
    outer loop
      vertex 0 -8.65 13.66000000000001
      vertex 0 8.65 13.66000000000001
      vertex 0 8.65 13.650000000000006
    endloop
  endfacet
  facet normal 0 -0.7071067811865479 -0.7071067811865471
    outer loop
      vertex 0 -3 8
      vertex 26 -3 8
      vertex 26 -8.65 13.650000000000006
    endloop
  endfacet
  facet normal 0 0.7071067811865479 -0.7071067811865471
    outer loop
      vertex 0 8.65 13.650000000000006
      vertex 26 8.65 13.650000000000006
      vertex 26 3 8
    endloop
  endfacet
  facet normal 1 0 0
    outer loop
      vertex 26 -3 8
      vertex 26 3 8
      vertex 26 -8.640017667844518 13.650000000000006
    endloop
  endfacet
  facet normal 1 0 0
    outer loop
      vertex 26 -3 8
      vertex 26 -8.640017667844518 13.650000000000006
      vertex 26 -8.65 13.650000000000006
    endloop
  endfacet
  facet normal 1 0 0
    outer loop
      vertex 26 3 8
      vertex 26 8.65 13.650000000000006
      vertex 26 -8.640017667844518 13.650000000000006
    endloop
  endfacet
  facet normal 1 0 0
    outer loop
      vertex 26 -8.65 13.650000000000006
      vertex 26 -8.640017667844518 13.650000000000006
      vertex 26 -8.65 13.66000000000001
    endloop
  endfacet
  facet normal -1 0 0
    outer loop
      vertex 0 191.35 17.650000000000006
      vertex 0 185.35 23.650000000000006
      vertex 0 185.3599833610649 23.650000000000006
    endloop
  endfacet
  facet normal -1 0 0
    outer loop
      vertex 0 191.35 17.650000000000006
      vertex 0 185.3599833610649 23.650000000000006
      vertex 0 214.65 23.650000000000006
    endloop
  endfacet
  facet normal -1 0 0
    outer loop
      vertex 0 191.35 17.650000000000006
      vertex 0 214.65 23.650000000000006
      vertex 0 208.65 17.650000000000006
    endloop
  endfacet
  facet normal -1 0 0
    outer loop
      vertex 0 185.3599833610649 23.650000000000006
      vertex 0 185.35 23.66000000000001
      vertex 0 214.65 23.650000000000006
    endloop
  endfacet
  facet normal -1 0 0
    outer loop
      vertex 0 185.35 23.66000000000001
      vertex 0 214.65 23.66000000000001
      vertex 0 214.65 23.650000000000006
    endloop
  endfacet
  facet normal 0 -1 0
    outer loop
      vertex 0 185.35 23.650000000000006
      vertex 26 185.35 23.66000000000001
      vertex 0 185.35 23.66000000000001
    endloop
  endfacet
  facet normal 0 -0.7071067811865476 -0.7071067811865476
    outer loop
      vertex 0 191.35 17.650000000000006
      vertex 26 191.35 17.650000000000006
      vertex 0 185.35 23.650000000000006
    endloop
  endfacet
  facet normal 0 0.7071067811865476 -0.7071067811865476
    outer loop
      vertex 0 208.65 17.650000000000006
      vertex 0 214.65 23.650000000000006
      vertex 26 214.65 23.650000000000006
    endloop
  endfacet
  facet normal 0 1 0
    outer loop
      vertex 0 214.65 23.650000000000006
      vertex 0 214.65 23.66000000000001
      vertex 26 214.65 23.66000000000001
    endloop
  endfacet
  facet normal 0 -1 0
    outer loop
      vertex 0 185.35 23.650000000000006
      vertex 26 185.35 23.650000000000006
      vertex 26 185.35 23.66000000000001
    endloop
  endfacet
  facet normal 0 -0.7071067811865476 -0.7071067811865476
    outer loop
      vertex 0 185.35 23.650000000000006
      vertex 26 191.35 17.650000000000006
      vertex 26 185.35 23.650000000000006
    endloop
  endfacet
  facet normal 0 0.7071067811865476 -0.7071067811865476
    outer loop
      vertex 0 208.65 17.650000000000006
      vertex 26 214.65 23.650000000000006
      vertex 26 208.65 17.650000000000006
    endloop
  endfacet
  facet normal 0 1 0
    outer loop
      vertex 0 214.65 23.650000000000006
      vertex 26 214.65 23.66000000000001
      vertex 26 214.65 23.650000000000006
    endloop
  endfacet
  facet normal 1 0 0
    outer loop
      vertex 26 191.35 17.650000000000006
      vertex 26 208.65 17.650000000000006
      vertex 26 185.35 23.650000000000006
    endloop
  endfacet
  facet normal 1 0 0
    outer loop
      vertex 26 208.65 17.650000000000006
      vertex 26 214.65 23.650000000000006
      vertex 26 185.35 23.650000000000006
    endloop
  endfacet
  facet normal -1 0 0
    outer loop
      vertex 0 -8.65 17.650000000000006
      vertex 0 -14.65 23.650000000000006
      vertex 0 -14.640016638935103 23.650000000000006
    endloop
  endfacet
  facet normal -1 0 0
    outer loop
      vertex 0 -8.65 17.650000000000006
      vertex 0 -14.640016638935103 23.650000000000006
      vertex 0 14.65 23.650000000000006
    endloop
  endfacet
  facet normal -1 0 0
    outer loop
      vertex 0 -8.65 17.650000000000006
      vertex 0 14.65 23.650000000000006
      vertex 0 8.65 17.650000000000006
    endloop
  endfacet
  facet normal -1 0 0
    outer loop
      vertex 0 -14.640016638935103 23.650000000000006
      vertex 0 -14.65 23.66000000000001
      vertex 0 14.65 23.650000000000006
    endloop
  endfacet
  facet normal -1 0 0
    outer loop
      vertex 0 -14.65 23.66000000000001
      vertex 0 14.65 23.66000000000001
      vertex 0 14.65 23.650000000000006
    endloop
  endfacet
  facet normal 0 -0.7071067811865476 -0.7071067811865476
    outer loop
      vertex 0 -8.65 17.650000000000006
      vertex 26 -8.65 17.650000000000006
      vertex 0 -14.65 23.650000000000006
    endloop
  endfacet
  facet normal 0 0.7071067811865476 -0.7071067811865476
    outer loop
      vertex 0 8.65 17.650000000000006
      vertex 0 14.65 23.650000000000006
      vertex 26 14.65 23.650000000000006
    endloop
  endfacet
  facet normal 0 -1 0
    outer loop
      vertex 0 -14.65 23.650000000000006
      vertex 26 -14.65 23.66000000000001
      vertex 0 -14.65 23.66000000000001
    endloop
  endfacet
  facet normal 0 1 0
    outer loop
      vertex 0 14.65 23.650000000000006
      vertex 0 14.65 23.66000000000001
      vertex 26 14.65 23.66000000000001
    endloop
  endfacet
  facet normal 0 -0.7071067811865476 -0.7071067811865476
    outer loop
      vertex 0 -14.65 23.650000000000006
      vertex 26 -8.65 17.650000000000006
      vertex 26 -14.65 23.650000000000006
    endloop
  endfacet
  facet normal 0 0.7071067811865476 -0.7071067811865476
    outer loop
      vertex 0 8.65 17.650000000000006
      vertex 26 14.65 23.650000000000006
      vertex 26 8.65 17.650000000000006
    endloop
  endfacet
  facet normal 0 -1 0
    outer loop
      vertex 0 -14.65 23.650000000000006
      vertex 26 -14.65 23.650000000000006
      vertex 26 -14.65 23.66000000000001
    endloop
  endfacet
  facet normal 0 1 0
    outer loop
      vertex 0 14.65 23.650000000000006
      vertex 26 14.65 23.66000000000001
      vertex 26 14.65 23.650000000000006
    endloop
  endfacet
  facet normal 1 0 0
    outer loop
      vertex 26 -8.65 17.650000000000006
      vertex 26 8.65 17.650000000000006
      vertex 26 -14.65 23.650000000000006
    endloop
  endfacet
  facet normal 1 0 0
    outer loop
      vertex 26 8.65 17.650000000000006
      vertex 26 14.65 23.650000000000006
      vertex 26 -14.65 23.650000000000006
    endloop
  endfacet
  facet normal -1 0 0
    outer loop
      vertex 0 191.35 13.66000000000001
      vertex 0 191.35 17.650000000000006
      vertex 0 208.65 13.66000000000001
    endloop
  endfacet
  facet normal -1 0 0
    outer loop
      vertex 0 208.65 13.66000000000001
      vertex 0 191.35 17.650000000000006
      vertex 0 208.65 17.650000000000006
    endloop
  endfacet
  facet normal 0 -1 0
    outer loop
      vertex 0 191.35 13.66000000000001
      vertex 0 191.35 13.650000000000006
      vertex 26 191.35 17.650000000000006
    endloop
  endfacet
  facet normal 0 1 0
    outer loop
      vertex 0 208.65 13.66000000000001
      vertex 26 208.65 13.650000000000006
      vertex 0 208.65 13.650000000000006
    endloop
  endfacet
  facet normal 0 1 0
    outer loop
      vertex 0 208.65 13.66000000000001
      vertex 0 208.65 17.650000000000006
      vertex 26 208.65 13.650000000000006
    endloop
  endfacet
  facet normal 0 -1 0
    outer loop
      vertex 0 191.35 13.66000000000001
      vertex 26 191.35 17.650000000000006
      vertex 0 191.35 17.650000000000006
    endloop
  endfacet
  facet normal 0 -1 0
    outer loop
      vertex 0 191.35 13.650000000000006
      vertex 26 191.35 13.650000000000006
      vertex 26 191.35 13.66000000000001
    endloop
  endfacet
  facet normal 0 -1 0
    outer loop
      vertex 0 191.35 13.650000000000006
      vertex 26 191.35 13.66000000000001
      vertex 26 191.35 17.650000000000006
    endloop
  endfacet
  facet normal 0 1 0
    outer loop
      vertex 0 208.65 17.650000000000006
      vertex 26 208.65 17.650000000000006
      vertex 26 208.65 13.650000000000006
    endloop
  endfacet
  facet normal 1 0 0
    outer loop
      vertex 26 191.35 13.66000000000001
      vertex 26 191.35998233215548 13.650000000000006
      vertex 26 208.65 13.650000000000006
    endloop
  endfacet
  facet normal 1 0 0
    outer loop
      vertex 26 191.35 13.66000000000001
      vertex 26 208.65 13.650000000000006
      vertex 26 191.35 17.650000000000006
    endloop
  endfacet
  facet normal 1 0 0
    outer loop
      vertex 26 208.65 13.650000000000006
      vertex 26 208.65 17.650000000000006
      vertex 26 191.35 17.650000000000006
    endloop
  endfacet
  facet normal -1 0 0
    outer loop
      vertex 0 -8.65 13.66000000000001
      vertex 0 -8.65 17.650000000000006
      vertex 0 8.65 13.66000000000001
    endloop
  endfacet
  facet normal -1 0 0
    outer loop
      vertex 0 8.65 13.66000000000001
      vertex 0 -8.65 17.650000000000006
      vertex 0 8.65 17.650000000000006
    endloop
  endfacet
  facet normal 0 -1 0
    outer loop
      vertex 0 -8.65 13.66000000000001
      vertex 0 -8.65 13.650000000000006
      vertex 26 -8.65 17.650000000000006
    endloop
  endfacet
  facet normal 0 1 0
    outer loop
      vertex 0 8.65 13.66000000000001
      vertex 26 8.65 13.650000000000006
      vertex 0 8.65 13.650000000000006
    endloop
  endfacet
  facet normal 0 1 0
    outer loop
      vertex 0 8.65 13.66000000000001
      vertex 0 8.65 17.650000000000006
      vertex 26 8.65 13.650000000000006
    endloop
  endfacet
  facet normal 0 -1 0
    outer loop
      vertex 0 -8.65 13.66000000000001
      vertex 26 -8.65 17.650000000000006
      vertex 0 -8.65 17.650000000000006
    endloop
  endfacet
  facet normal 0 -1 0
    outer loop
      vertex 0 -8.65 13.650000000000006
      vertex 26 -8.65 13.650000000000006
      vertex 26 -8.65 13.66000000000001
    endloop
  endfacet
  facet normal 0 -1 0
    outer loop
      vertex 0 -8.65 13.650000000000006
      vertex 26 -8.65 13.66000000000001
      vertex 26 -8.65 17.650000000000006
    endloop
  endfacet
  facet normal 0 1 0
    outer loop
      vertex 0 8.65 17.650000000000006
      vertex 26 8.65 17.650000000000006
      vertex 26 8.65 13.650000000000006
    endloop
  endfacet
  facet normal 1 0 0
    outer loop
      vertex 26 -8.65 13.66000000000001
      vertex 26 -8.640017667844518 13.650000000000006
      vertex 26 8.65 13.650000000000006
    endloop
  endfacet
  facet normal 1 0 0
    outer loop
      vertex 26 -8.65 13.66000000000001
      vertex 26 8.65 13.650000000000006
      vertex 26 -8.65 17.650000000000006
    endloop
  endfacet
  facet normal 1 0 0
    outer loop
      vertex 26 8.65 13.650000000000006
      vertex 26 8.65 17.650000000000006
      vertex 26 -8.65 17.650000000000006
    endloop
  endfacet
  facet normal -1 0 0
    outer loop
      vertex 0 185.35 23.650000000000006
      vertex 0 185.35 23.66000000000001
      vertex 0 185.3599833610649 23.650000000000006
    endloop
  endfacet
  facet normal -1 0 0
    outer loop
      vertex 0 185.35 23.66000000000001
      vertex 0 185.35 24.950000000000003
      vertex 0 214.65 24.950000000000003
    endloop
  endfacet
  facet normal -1 0 0
    outer loop
      vertex 0 185.35 23.66000000000001
      vertex 0 214.65 24.950000000000003
      vertex 0 214.65 23.66000000000001
    endloop
  endfacet
  facet normal 0 -1 0
    outer loop
      vertex 0 185.35 23.66000000000001
      vertex 26 185.35 23.66000000000001
      vertex 0 185.35 24.950000000000003
    endloop
  endfacet
  facet normal 0 0 1
    outer loop
      vertex 0 185.35 24.950000000000003
      vertex 26 185.35 24.950000000000003
      vertex 0 214.65 24.950000000000003
    endloop
  endfacet
  facet normal 0 1 0
    outer loop
      vertex 0 214.65 23.66000000000001
      vertex 0 214.65 24.950000000000003
      vertex 26 214.65 24.950000000000003
    endloop
  endfacet
  facet normal 0 -1 0
    outer loop
      vertex 0 185.35 24.950000000000003
      vertex 26 185.35 23.66000000000001
      vertex 26 185.35 24.950000000000003
    endloop
  endfacet
  facet normal 0 0 1
    outer loop
      vertex 0 214.65 24.950000000000003
      vertex 26 185.35 24.950000000000003
      vertex 26 214.65 24.950000000000003
    endloop
  endfacet
  facet normal 0 1 0
    outer loop
      vertex 0 214.65 23.66000000000001
      vertex 26 214.65 24.950000000000003
      vertex 26 214.65 23.66000000000001
    endloop
  endfacet
  facet normal 1 0 0
    outer loop
      vertex 26 185.35 23.650000000000006
      vertex 26 214.65 23.650000000000006
      vertex 26 185.35 23.66000000000001
    endloop
  endfacet
  facet normal 1 0 0
    outer loop
      vertex 26 185.35 23.66000000000001
      vertex 26 214.65 23.650000000000006
      vertex 26 185.35 24.950000000000003
    endloop
  endfacet
  facet normal 1 0 0
    outer loop
      vertex 26 185.35 24.950000000000003
      vertex 26 214.65 23.650000000000006
      vertex 26 214.65 23.66000000000001
    endloop
  endfacet
  facet normal 1 0 0
    outer loop
      vertex 26 185.35 24.950000000000003
      vertex 26 214.65 23.66000000000001
      vertex 26 214.65 24.950000000000003
    endloop
  endfacet
  facet normal -1 0 0
    outer loop
      vertex 0 -14.65 23.650000000000006
      vertex 0 -14.65 23.66000000000001
      vertex 0 -14.640016638935103 23.650000000000006
    endloop
  endfacet
  facet normal -1 0 0
    outer loop
      vertex 0 -14.65 23.66000000000001
      vertex 0 -14.65 24.950000000000003
      vertex 0 14.65 24.950000000000003
    endloop
  endfacet
  facet normal -1 0 0
    outer loop
      vertex 0 -14.65 23.66000000000001
      vertex 0 14.65 24.950000000000003
      vertex 0 14.65 23.66000000000001
    endloop
  endfacet
  facet normal 0 -1 0
    outer loop
      vertex 0 -14.65 23.66000000000001
      vertex 26 -14.65 23.66000000000001
      vertex 0 -14.65 24.950000000000003
    endloop
  endfacet
  facet normal 0 0 1
    outer loop
      vertex 0 -14.65 24.950000000000003
      vertex 26 -14.65 24.950000000000003
      vertex 0 14.65 24.950000000000003
    endloop
  endfacet
  facet normal 0 1 0
    outer loop
      vertex 0 14.65 23.66000000000001
      vertex 0 14.65 24.950000000000003
      vertex 26 14.65 24.950000000000003
    endloop
  endfacet
  facet normal 0 -1 0
    outer loop
      vertex 0 -14.65 24.950000000000003
      vertex 26 -14.65 23.66000000000001
      vertex 26 -14.65 24.950000000000003
    endloop
  endfacet
  facet normal 0 0 1
    outer loop
      vertex 0 14.65 24.950000000000003
      vertex 26 -14.65 24.950000000000003
      vertex 26 14.65 24.950000000000003
    endloop
  endfacet
  facet normal 0 1 0
    outer loop
      vertex 0 14.65 23.66000000000001
      vertex 26 14.65 24.950000000000003
      vertex 26 14.65 23.66000000000001
    endloop
  endfacet
  facet normal 1 0 0
    outer loop
      vertex 26 -14.65 23.650000000000006
      vertex 26 14.65 23.650000000000006
      vertex 26 -14.65 23.66000000000001
    endloop
  endfacet
  facet normal 1 0 0
    outer loop
      vertex 26 -14.65 23.66000000000001
      vertex 26 14.65 23.650000000000006
      vertex 26 -14.65 24.950000000000003
    endloop
  endfacet
  facet normal 1 0 0
    outer loop
      vertex 26 -14.65 24.950000000000003
      vertex 26 14.65 23.650000000000006
      vertex 26 14.65 23.66000000000001
    endloop
  endfacet
  facet normal 1 0 0
    outer loop
      vertex 26 -14.65 24.950000000000003
      vertex 26 14.65 23.66000000000001
      vertex 26 14.65 24.950000000000003
    endloop
  endfacet
endsolid OpenSCAD_Model
