solid OpenSCAD_Model
  facet normal -1 0 0
    outer loop
      vertex 0 0 -1.8
      vertex 0 7.3999999999999995 0
      vertex 0 7.3999999999999995 -1.8
    endloop
  endfacet
  facet normal 0 0 -1
    outer loop
      vertex 27 7.3999999999999995 -1.8
      vertex 0 0 -1.8
      vertex 0 7.3999999999999995 -1.8
    endloop
  endfacet
  facet normal 0 1 0
    outer loop
      vertex 0 7.3999999999999995 0
      vertex 27 7.3999999999999995 -1.8
      vertex 0 7.3999999999999995 -1.8
    endloop
  endfacet
  facet normal -1 0 0
    outer loop
      vertex 0 7.3999999999999995 0
      vertex 0 0 -1.8
      vertex 0 0 0
    endloop
  endfacet
  facet normal 0 -1 0
    outer loop
      vertex 0 0 -1.8
      vertex 27 0 0
      vertex 0 0 0
    endloop
  endfacet
  facet normal 0 0 1
    outer loop
      vertex 27 0 0
      vertex 0 7.3999999999999995 0
      vertex 0 0 0
    endloop
  endfacet
  facet normal 0 0 -1
    outer loop
      vertex 0 0 -1.8
      vertex 27 7.3999999999999995 -1.8
      vertex 27 0 -1.8
    endloop
  endfacet
  facet normal 0 -1 0
    outer loop
      vertex 27 0 0
      vertex 0 0 -1.8
      vertex 27 0 -1.8
    endloop
  endfacet
  facet normal 1 0 0
    outer loop
      vertex 27 7.3999999999999995 -1.8
      vertex 27 0 0
      vertex 27 0 -1.8
    endloop
  endfacet
  facet normal 0 1 0
    outer loop
      vertex 27 7.3999999999999995 -1.8
      vertex 0 7.3999999999999995 0
      vertex 27 7.3999999999999995 0
    endloop
  endfacet
  facet normal 0 0 1
    outer loop
      vertex 0 7.3999999999999995 0
      vertex 27 0 0
      vertex 27 7.3999999999999995 0
    endloop
  endfacet
  facet normal 1 0 0
    outer loop
      vertex 27 0 0
      vertex 27 7.3999999999999995 -1.8
      vertex 27 7.3999999999999995 0
    endloop
  endfacet
  facet normal -1 0 0
    outer loop
      vertex 0 10.399999999999999 -1.8
      vertex 0 17.799999999999997 0
      vertex 0 17.799999999999997 -1.8
    endloop
  endfacet
  facet normal 0 0 -1
    outer loop
      vertex 27 17.799999999999997 -1.8
      vertex 0 10.399999999999999 -1.8
      vertex 0 17.799999999999997 -1.8
    endloop
  endfacet
  facet normal 0 1 0
    outer loop
      vertex 0 17.799999999999997 0
      vertex 27 17.799999999999997 -1.8
      vertex 0 17.799999999999997 -1.8
    endloop
  endfacet
  facet normal -1 0 0
    outer loop
      vertex 0 17.799999999999997 0
      vertex 0 10.399999999999999 -1.8
      vertex 0 10.399999999999999 0
    endloop
  endfacet
  facet normal 0 -1 0
    outer loop
      vertex 0 10.399999999999999 -1.8
      vertex 27 10.399999999999999 0
      vertex 0 10.399999999999999 0
    endloop
  endfacet
  facet normal 0 0 1
    outer loop
      vertex 27 10.399999999999999 0
      vertex 0 17.799999999999997 0
      vertex 0 10.399999999999999 0
    endloop
  endfacet
  facet normal 0 0 -1
    outer loop
      vertex 0 10.399999999999999 -1.8
      vertex 27 17.799999999999997 -1.8
      vertex 27 10.399999999999999 -1.8
    endloop
  endfacet
  facet normal 0 -1 0
    outer loop
      vertex 27 10.399999999999999 0
      vertex 0 10.399999999999999 -1.8
      vertex 27 10.399999999999999 -1.8
    endloop
  endfacet
  facet normal 1 0 0
    outer loop
      vertex 27 17.799999999999997 -1.8
      vertex 27 10.399999999999999 0
      vertex 27 10.399999999999999 -1.8
    endloop
  endfacet
  facet normal 0 1 0
    outer loop
      vertex 27 17.799999999999997 -1.8
      vertex 0 17.799999999999997 0
      vertex 27 17.799999999999997 0
    endloop
  endfacet
  facet normal 0 0 1
    outer loop
      vertex 0 17.799999999999997 0
      vertex 27 10.399999999999999 0
      vertex 27 17.799999999999997 0
    endloop
  endfacet
  facet normal 1 0 0
    outer loop
      vertex 27 10.399999999999999 0
      vertex 27 17.799999999999997 -1.8
      vertex 27 17.799999999999997 0
    endloop
  endfacet
  facet normal -1 0 0
    outer loop
      vertex 0 20.799999999999997 -1.8
      vertex 0 28.199999999999996 0
      vertex 0 28.199999999999996 -1.8
    endloop
  endfacet
  facet normal 0 0 -1
    outer loop
      vertex 27 28.199999999999996 -1.8
      vertex 0 20.799999999999997 -1.8
      vertex 0 28.199999999999996 -1.8
    endloop
  endfacet
  facet normal 0 1 0
    outer loop
      vertex 0 28.199999999999996 0
      vertex 27 28.199999999999996 -1.8
      vertex 0 28.199999999999996 -1.8
    endloop
  endfacet
  facet normal -1 0 0
    outer loop
      vertex 0 28.199999999999996 0
      vertex 0 20.799999999999997 -1.8
      vertex 0 20.799999999999997 0
    endloop
  endfacet
  facet normal 0 -1 0
    outer loop
      vertex 0 20.799999999999997 -1.8
      vertex 27 20.799999999999997 0
      vertex 0 20.799999999999997 0
    endloop
  endfacet
  facet normal 0 0 1
    outer loop
      vertex 27 20.799999999999997 0
      vertex 0 28.199999999999996 0
      vertex 0 20.799999999999997 0
    endloop
  endfacet
  facet normal 0 0 -1
    outer loop
      vertex 0 20.799999999999997 -1.8
      vertex 27 28.199999999999996 -1.8
      vertex 27 20.799999999999997 -1.8
    endloop
  endfacet
  facet normal 0 -1 0
    outer loop
      vertex 27 20.799999999999997 0
      vertex 0 20.799999999999997 -1.8
      vertex 27 20.799999999999997 -1.8
    endloop
  endfacet
  facet normal 1 0 0
    outer loop
      vertex 27 28.199999999999996 -1.8
      vertex 27 20.799999999999997 0
      vertex 27 20.799999999999997 -1.8
    endloop
  endfacet
  facet normal 0 1 0
    outer loop
      vertex 27 28.199999999999996 -1.8
      vertex 0 28.199999999999996 0
      vertex 27 28.199999999999996 0
    endloop
  endfacet
  facet normal 0 0 1
    outer loop
      vertex 0 28.199999999999996 0
      vertex 27 20.799999999999997 0
      vertex 27 28.199999999999996 0
    endloop
  endfacet
  facet normal 1 0 0
    outer loop
      vertex 27 20.799999999999997 0
      vertex 27 28.199999999999996 -1.8
      vertex 27 28.199999999999996 0
    endloop
  endfacet
  facet normal -1 0 0
    outer loop
      vertex 0 31.199999999999996 -1.8
      vertex 0 38.599999999999994 0
      vertex 0 38.599999999999994 -1.8
    endloop
  endfacet
  facet normal 0 0 -1
    outer loop
      vertex 27 38.599999999999994 -1.8
      vertex 0 31.199999999999996 -1.8
      vertex 0 38.599999999999994 -1.8
    endloop
  endfacet
  facet normal 0 1 0
    outer loop
      vertex 0 38.599999999999994 0
      vertex 27 38.599999999999994 -1.8
      vertex 0 38.599999999999994 -1.8
    endloop
  endfacet
  facet normal -1 0 0
    outer loop
      vertex 0 38.599999999999994 0
      vertex 0 31.199999999999996 -1.8
      vertex 0 31.199999999999996 0
    endloop
  endfacet
  facet normal 0 -1 0
    outer loop
      vertex 0 31.199999999999996 -1.8
      vertex 27 31.199999999999996 0
      vertex 0 31.199999999999996 0
    endloop
  endfacet
  facet normal 0 0 1
    outer loop
      vertex 27 31.199999999999996 0
      vertex 0 38.599999999999994 0
      vertex 0 31.199999999999996 0
    endloop
  endfacet
  facet normal 0 0 -1
    outer loop
      vertex 0 31.199999999999996 -1.8
      vertex 27 38.599999999999994 -1.8
      vertex 27 31.199999999999996 -1.8
    endloop
  endfacet
  facet normal 0 -1 0
    outer loop
      vertex 27 31.199999999999996 0
      vertex 0 31.199999999999996 -1.8
      vertex 27 31.199999999999996 -1.8
    endloop
  endfacet
  facet normal 1 0 0
    outer loop
      vertex 27 38.599999999999994 -1.8
      vertex 27 31.199999999999996 0
      vertex 27 31.199999999999996 -1.8
    endloop
  endfacet
  facet normal 0 1 0
    outer loop
      vertex 27 38.599999999999994 -1.8
      vertex 0 38.599999999999994 0
      vertex 27 38.599999999999994 0
    endloop
  endfacet
  facet normal 0 0 1
    outer loop
      vertex 0 38.599999999999994 0
      vertex 27 31.199999999999996 0
      vertex 27 38.599999999999994 0
    endloop
  endfacet
  facet normal 1 0 0
    outer loop
      vertex 27 31.199999999999996 0
      vertex 27 38.599999999999994 -1.8
      vertex 27 38.599999999999994 0
    endloop
  endfacet
  facet normal -1 0 0
    outer loop
      vertex 0 41.599999999999994 -1.8
      vertex 0 48.99999999999999 0
      vertex 0 48.99999999999999 -1.8
    endloop
  endfacet
  facet normal 0 0 -1
    outer loop
      vertex 27 48.99999999999999 -1.8
      vertex 0 41.599999999999994 -1.8
      vertex 0 48.99999999999999 -1.8
    endloop
  endfacet
  facet normal 0 1 0
    outer loop
      vertex 0 48.99999999999999 0
      vertex 27 48.99999999999999 -1.8
      vertex 0 48.99999999999999 -1.8
    endloop
  endfacet
  facet normal -1 0 0
    outer loop
      vertex 0 48.99999999999999 0
      vertex 0 41.599999999999994 -1.8
      vertex 0 41.599999999999994 0
    endloop
  endfacet
  facet normal 0 -1 0
    outer loop
      vertex 0 41.599999999999994 -1.8
      vertex 27 41.599999999999994 0
      vertex 0 41.599999999999994 0
    endloop
  endfacet
  facet normal 0 0 1
    outer loop
      vertex 27 41.599999999999994 0
      vertex 0 48.99999999999999 0
      vertex 0 41.599999999999994 0
    endloop
  endfacet
  facet normal 0 0 -1
    outer loop
      vertex 0 41.599999999999994 -1.8
      vertex 27 48.99999999999999 -1.8
      vertex 27 41.599999999999994 -1.8
    endloop
  endfacet
  facet normal 0 -1 0
    outer loop
      vertex 27 41.599999999999994 0
      vertex 0 41.599999999999994 -1.8
      vertex 27 41.599999999999994 -1.8
    endloop
  endfacet
  facet normal 1 0 0
    outer loop
      vertex 27 48.99999999999999 -1.8
      vertex 27 41.599999999999994 0
      vertex 27 41.599999999999994 -1.8
    endloop
  endfacet
  facet normal 0 1 0
    outer loop
      vertex 27 48.99999999999999 -1.8
      vertex 0 48.99999999999999 0
      vertex 27 48.99999999999999 0
    endloop
  endfacet
  facet normal 0 0 1
    outer loop
      vertex 0 48.99999999999999 0
      vertex 27 41.599999999999994 0
      vertex 27 48.99999999999999 0
    endloop
  endfacet
  facet normal 1 0 0
    outer loop
      vertex 27 41.599999999999994 0
      vertex 27 48.99999999999999 -1.8
      vertex 27 48.99999999999999 0
    endloop
  endfacet
  facet normal -1 0 0
    outer loop
      vertex 0 51.99999999999999 -1.8
      vertex 0 59.39999999999999 0
      vertex 0 59.39999999999999 -1.8
    endloop
  endfacet
  facet normal 0 0 -1
    outer loop
      vertex 27 59.39999999999999 -1.8
      vertex 0 51.99999999999999 -1.8
      vertex 0 59.39999999999999 -1.8
    endloop
  endfacet
  facet normal 0 1 0
    outer loop
      vertex 0 59.39999999999999 0
      vertex 27 59.39999999999999 -1.8
      vertex 0 59.39999999999999 -1.8
    endloop
  endfacet
  facet normal -1 0 0
    outer loop
      vertex 0 59.39999999999999 0
      vertex 0 51.99999999999999 -1.8
      vertex 0 51.99999999999999 0
    endloop
  endfacet
  facet normal 0 -1 0
    outer loop
      vertex 0 51.99999999999999 -1.8
      vertex 27 51.99999999999999 0
      vertex 0 51.99999999999999 0
    endloop
  endfacet
  facet normal 0 0 1
    outer loop
      vertex 27 51.99999999999999 0
      vertex 0 59.39999999999999 0
      vertex 0 51.99999999999999 0
    endloop
  endfacet
  facet normal 0 0 -1
    outer loop
      vertex 0 51.99999999999999 -1.8
      vertex 27 59.39999999999999 -1.8
      vertex 27 51.99999999999999 -1.8
    endloop
  endfacet
  facet normal 0 -1 0
    outer loop
      vertex 27 51.99999999999999 0
      vertex 0 51.99999999999999 -1.8
      vertex 27 51.99999999999999 -1.8
    endloop
  endfacet
  facet normal 1 0 0
    outer loop
      vertex 27 59.39999999999999 -1.8
      vertex 27 51.99999999999999 0
      vertex 27 51.99999999999999 -1.8
    endloop
  endfacet
  facet normal 0 1 0
    outer loop
      vertex 27 59.39999999999999 -1.8
      vertex 0 59.39999999999999 0
      vertex 27 59.39999999999999 0
    endloop
  endfacet
  facet normal 0 0 1
    outer loop
      vertex 0 59.39999999999999 0
      vertex 27 51.99999999999999 0
      vertex 27 59.39999999999999 0
    endloop
  endfacet
  facet normal 1 0 0
    outer loop
      vertex 27 51.99999999999999 0
      vertex 27 59.39999999999999 -1.8
      vertex 27 59.39999999999999 0
    endloop
  endfacet
endsolid OpenSCAD_Model
