solid OpenSCAD_Model
  facet normal -1 0 0
    outer loop
      vertex 0 9 0
      vertex 0 9 3
      vertex 0 15 3
    endloop
  endfacet
  facet normal -1 0 0
    outer loop
      vertex 0 9 0
      vertex 0 18 3
      vertex 0 18 0
    endloop
  endfacet
  facet normal -1 0 0
    outer loop
      vertex 0 9 0
      vertex 0 15 3
      vertex 0 18 3
    endloop
  endfacet
  facet normal 0 -1 0
    outer loop
      vertex 0 9 0
      vertex 60 9 3
      vertex 0 9 3
    endloop
  endfacet
  facet normal 0 0 1
    outer loop
      vertex 0 9 3
      vertex 60 9 3
      vertex 0 15 3
    endloop
  endfacet
  facet normal 0 0 -1
    outer loop
      vertex 0 9 0
      vertex 0 18 0
      vertex 60 18 0
    endloop
  endfacet
  facet normal 0 1 0
    outer loop
      vertex 0 18 0
      vertex 0 18 3
      vertex 60 18 0
    endloop
  endfacet
  facet normal 0 -1 0
    outer loop
      vertex 0 9 0
      vertex 60 9 0
      vertex 60 9 3
    endloop
  endfacet
  facet normal 0 0 -1
    outer loop
      vertex 0 9 0
      vertex 60 18 0
      vertex 60 9 0
    endloop
  endfacet
  facet normal 0 0 1
    outer loop
      vertex 60 9 3
      vertex 60 15 3
      vertex 0 15 3
    endloop
  endfacet
  facet normal 0 1 0
    outer loop
      vertex 60 18 0
      vertex 0 18 3
      vertex 60 18 3
    endloop
  endfacet
  facet normal 1 0 0
    outer loop
      vertex 60 9 0
      vertex 60 18 0
      vertex 60 9 3
    endloop
  endfacet
  facet normal 1 0 0
    outer loop
      vertex 60 9 3
      vertex 60 18 0
      vertex 60 15 3
    endloop
  endfacet
  facet normal 1 0 0
    outer loop
      vertex 60 18 0
      vertex 60 18 3
      vertex 60 15 3
    endloop
  endfacet
  facet normal -1 0 0
    outer loop
      vertex 0 -18 0
      vertex 0 -18 3
      vertex 0 -15 3
    endloop
  endfacet
  facet normal -1 0 0
    outer loop
      vertex 0 -18 0
      vertex 0 -15 3
      vertex 0 -9 3
    endloop
  endfacet
  facet normal -1 0 0
    outer loop
      vertex 0 -18 0
      vertex 0 -9 3
      vertex 0 -9 0
    endloop
  endfacet
  facet normal 0 -1 0
    outer loop
      vertex 0 -18 0
      vertex 60 -18 3
      vertex 0 -18 3
    endloop
  endfacet
  facet normal 0 0 -1
    outer loop
      vertex 0 -18 0
      vertex 0 -9 0
      vertex 60 -9 0
    endloop
  endfacet
  facet normal 0 0 1
    outer loop
      vertex 0 -9 3
      vertex 0 -15 3
      vertex 60 -15 3
    endloop
  endfacet
  facet normal 0 1 0
    outer loop
      vertex 0 -9 0
      vertex 0 -9 3
      vertex 60 -9 0
    endloop
  endfacet
  facet normal 0 -1 0
    outer loop
      vertex 0 -18 0
      vertex 60 -18 0
      vertex 60 -18 3
    endloop
  endfacet
  facet normal 0 0 -1
    outer loop
      vertex 0 -18 0
      vertex 60 -9 0
      vertex 60 -18 0
    endloop
  endfacet
  facet normal 0 0 1
    outer loop
      vertex 0 -9 3
      vertex 60 -15 3
      vertex 60 -9 3
    endloop
  endfacet
  facet normal 0 1 0
    outer loop
      vertex 0 -9 3
      vertex 60 -9 3
      vertex 60 -9 0
    endloop
  endfacet
  facet normal 1 0 0
    outer loop
      vertex 60 -18 0
      vertex 60 -9 0
      vertex 60 -18 3
    endloop
  endfacet
  facet normal 1 0 0
    outer loop
      vertex 60 -18 3
      vertex 60 -9 0
      vertex 60 -15 3
    endloop
  endfacet
  facet normal 1 0 0
    outer loop
      vertex 60 -9 0
      vertex 60 -9 3
      vertex 60 -15 3
    endloop
  endfacet
  facet normal -1 0 0
    outer loop
      vertex 0 15 3
      vertex 0 18 11
      vertex 0 18 3
    endloop
  endfacet
  facet normal 0 1 0
    outer loop
      vertex 0 18 3
      vertex 0 18 11
      vertex 60 18 3
    endloop
  endfacet
  facet normal -1 0 0
    outer loop
      vertex 0 15 3
      vertex 0 15 11
      vertex 0 18 11
    endloop
  endfacet
  facet normal 0 -1 0
    outer loop
      vertex 0 15 3
      vertex 60 15 11
      vertex 0 15 11
    endloop
  endfacet
  facet normal 0 -1 0
    outer loop
      vertex 0 15 3
      vertex 60 15 3
      vertex 60 15 11
    endloop
  endfacet
  facet normal 1 0 0
    outer loop
      vertex 60 15 3
      vertex 60 18 3
      vertex 60 15 11
    endloop
  endfacet
  facet normal 0 1 0
    outer loop
      vertex 0 18 11
      vertex 60 18 11
      vertex 60 18 3
    endloop
  endfacet
  facet normal 1 0 0
    outer loop
      vertex 60 15 11
      vertex 60 18 3
      vertex 60 18 11
    endloop
  endfacet
  facet normal -1 0 0
    outer loop
      vertex 0 -15 3
      vertex 0 -18 3
      vertex 0 -15 11
    endloop
  endfacet
  facet normal 0 1 0
    outer loop
      vertex 0 -15 3
      vertex 0 -15 11
      vertex 60 -15 3
    endloop
  endfacet
  facet normal -1 0 0
    outer loop
      vertex 0 -18 11
      vertex 0 -15 11
      vertex 0 -18 3
    endloop
  endfacet
  facet normal 0 -1 0
    outer loop
      vertex 0 -18 11
      vertex 0 -18 3
      vertex 60 -18 11
    endloop
  endfacet
  facet normal 0 -1 0
    outer loop
      vertex 60 -18 3
      vertex 60 -18 11
      vertex 0 -18 3
    endloop
  endfacet
  facet normal 1 0 0
    outer loop
      vertex 60 -18 3
      vertex 60 -15 3
      vertex 60 -18 11
    endloop
  endfacet
  facet normal 0 1 0
    outer loop
      vertex 0 -15 11
      vertex 60 -15 11
      vertex 60 -15 3
    endloop
  endfacet
  facet normal 1 0 0
    outer loop
      vertex 60 -15 3
      vertex 60 -15 11
      vertex 60 -18 11
    endloop
  endfacet
  facet normal -1 0 0
    outer loop
      vertex 0 -18 11
      vertex 0 18 15
      vertex 0 -15 11
    endloop
  endfacet
  facet normal -1 0 0
    outer loop
      vertex 0 -18 11
      vertex 0 -18 15
      vertex 0 18 15
    endloop
  endfacet
  facet normal 0 -1 0
    outer loop
      vertex 0 -18 11
      vertex 60 -18 15
      vertex 0 -18 15
    endloop
  endfacet
  facet normal 0 0 1
    outer loop
      vertex 0 -18 15
      vertex 60 -18 15
      vertex 0 18 15
    endloop
  endfacet
  facet normal -1 0 0
    outer loop
      vertex 0 18 15
      vertex 0 15 11
      vertex 0 -15 11
    endloop
  endfacet
  facet normal -1 0 0
    outer loop
      vertex 0 18 11
      vertex 0 15 11
      vertex 0 18 15
    endloop
  endfacet
  facet normal 0 0 -1
    outer loop
      vertex 0 15 11
      vertex 60 15 11
      vertex 0 -15 11
    endloop
  endfacet
  facet normal 0 1 0
    outer loop
      vertex 0 18 11
      vertex 0 18 15
      vertex 60 18 11
    endloop
  endfacet
  facet normal 0 -1 0
    outer loop
      vertex 0 -18 11
      vertex 60 -18 11
      vertex 60 -18 15
    endloop
  endfacet
  facet normal 0 0 -1
    outer loop
      vertex 60 15 11
      vertex 60 -15 11
      vertex 0 -15 11
    endloop
  endfacet
  facet normal 1 0 0
    outer loop
      vertex 60 -18 15
      vertex 60 -18 11
      vertex 60 -15 11
    endloop
  endfacet
  facet normal 1 0 0
    outer loop
      vertex 60 -18 15
      vertex 60 -15 11
      vertex 60 15 11
    endloop
  endfacet
  facet normal 0 0 1
    outer loop
      vertex 0 18 15
      vertex 60 -18 15
      vertex 60 18 15
    endloop
  endfacet
  facet normal 0 1 0
    outer loop
      vertex 0 18 15
      vertex 60 18 15
      vertex 60 18 11
    endloop
  endfacet
  facet normal 1 0 0
    outer loop
      vertex 60 15 11
      vertex 60 18 11
      vertex 60 -18 15
    endloop
  endfacet
  facet normal 1 0 0
    outer loop
      vertex 60 -18 15
      vertex 60 18 11
      vertex 60 18 15
    endloop
  endfacet
endsolid OpenSCAD_Model
